{"glyphs":{"0":{"ha":863,"x_min":46,"x_max":817,"o":"m 431 -21 q 140 97 235 -21 q 46 450 46 214 q 140 801 46 685 q 431 918 235 918 q 722 801 628 918 q 817 450 817 685 q 722 97 817 214 q 431 -21 626 -21 m 431 82 q 610 169 547 82 q 672 450 672 256 q 610 730 672 644 q 431 815 547 815 q 252 730 314 815 q 190 450 190 644 q 252 169 190 256 q 431 82 314 82 z "},"1":{"ha":564,"x_min":46,"x_max":518,"o":"m 100 101 l 182 101 q 224 114 213 101 q 236 154 236 126 l 236 757 l 101 675 l 46 767 l 256 899 l 382 899 l 382 154 q 394 114 382 126 q 438 101 407 101 l 518 101 l 518 0 l 100 0 l 100 101 z "},"2":{"ha":744,"x_min":60,"x_max":685,"o":"m 60 74 q 136 290 60 200 q 358 451 213 381 q 501 548 461 501 q 540 678 540 594 q 495 783 540 749 q 368 817 450 817 q 208 783 275 817 l 208 701 l 64 701 l 64 832 q 203 895 122 871 q 367 919 283 919 q 598 859 511 919 q 685 678 685 799 q 658 550 685 604 q 572 451 631 496 q 410 356 513 406 q 259 247 310 307 q 208 101 208 188 l 675 101 l 675 0 l 60 0 l 60 74 z "},"3":{"ha":768,"x_min":60,"x_max":708,"o":"m 375 -21 q 199 6 281 -21 q 60 82 118 32 l 60 213 l 206 213 l 206 129 q 379 82 281 82 q 522 124 478 82 q 565 265 565 165 q 394 418 565 418 l 283 418 l 283 521 l 399 521 q 556 679 556 521 q 510 783 556 749 q 383 817 464 817 q 224 785 294 817 l 224 701 l 78 701 l 78 831 q 215 895 133 871 q 382 919 297 919 q 612 860 524 919 q 700 683 700 801 q 579 471 700 543 q 708 269 708 411 q 627 49 708 118 q 375 -21 546 -21 z "},"4":{"ha":769,"x_min":32,"x_max":738,"o":"m 317 101 l 388 101 q 430 114 418 101 q 442 154 442 126 l 442 238 l 32 238 l 32 332 l 447 899 l 585 899 l 585 340 l 738 340 l 738 238 l 585 238 l 585 154 q 597 114 585 126 q 640 101 610 101 l 710 101 l 710 0 l 317 0 l 317 101 m 450 340 l 450 713 l 178 340 l 450 340 z "},"5":{"ha":772,"x_min":60,"x_max":713,"o":"m 383 -21 q 203 5 282 -21 q 60 82 125 31 l 60 213 l 206 213 l 206 128 q 287 94 239 106 q 389 82 335 82 q 526 138 483 82 q 569 301 569 193 q 519 451 569 408 q 360 494 469 494 l 92 494 l 92 571 l 119 899 l 683 899 l 683 796 l 251 796 l 235 599 l 379 599 q 624 529 536 599 q 713 301 713 460 q 631 63 713 146 q 383 -21 550 -21 z "},"6":{"ha":783,"x_min":60,"x_max":751,"o":"m 401 -21 q 151 78 242 -21 q 60 388 60 176 q 169 797 60 674 q 443 919 279 919 q 579 901 524 919 q 689 844 635 883 l 633 756 q 552 795 592 783 q 454 807 513 807 q 285 738 346 807 q 200 532 225 669 q 302 610 249 586 q 435 633 356 633 q 669 553 588 633 q 751 321 751 472 q 663 65 751 151 q 401 -21 575 -21 m 401 82 q 560 137 511 82 q 608 321 608 192 q 560 483 608 431 q 407 535 511 535 q 263 482 322 535 q 204 333 204 429 q 401 82 204 82 z "},"7":{"ha":710,"x_min":32,"x_max":678,"o":"m 518 796 l 179 796 l 179 699 l 32 699 l 32 899 l 678 899 l 678 828 l 344 0 l 197 0 l 518 796 z "},"8":{"ha":807,"x_min":60,"x_max":747,"o":"m 403 -21 q 147 47 235 -21 q 60 253 60 114 q 94 383 60 329 q 190 468 129 438 q 101 556 129 504 q 74 674 74 607 q 164 856 74 793 q 403 919 254 919 q 643 856 553 919 q 733 674 733 793 q 706 556 733 606 q 617 468 679 506 q 713 383 678 438 q 747 253 747 329 q 659 47 747 114 q 403 -21 571 -21 m 417 517 q 547 554 506 517 q 589 674 589 592 q 540 781 589 746 q 403 817 492 817 q 267 781 315 817 q 218 674 218 746 q 260 554 218 592 q 390 517 303 517 l 417 517 m 403 82 q 554 124 506 82 q 603 258 603 167 q 556 378 603 336 q 415 421 508 421 l 392 421 q 251 378 299 421 q 203 258 203 336 q 251 124 203 167 q 403 82 300 82 z "},"9":{"ha":811,"x_min":60,"x_max":751,"o":"m 379 -21 q 239 -4 299 -21 q 126 49 179 13 l 185 143 q 267 102 226 114 q 363 90 307 90 q 528 156 469 90 q 611 361 586 222 q 510 288 565 310 q 378 265 456 265 q 142 347 225 265 q 60 581 60 429 q 151 834 60 749 q 414 919 242 919 q 662 821 572 919 q 751 511 751 722 q 646 101 751 224 q 379 -21 540 -21 m 406 364 q 549 417 492 364 q 607 568 607 471 q 557 758 607 700 q 414 817 507 817 q 253 761 304 817 q 203 578 203 706 q 252 416 203 468 q 406 364 301 364 z "},"\r":{"ha":486,"x_min":0,"x_max":0,"o":""}," ":{"ha":486,"x_min":0,"x_max":0,"o":""},"A":{"ha":999,"x_min":46,"x_max":953,"o":"m 46 101 l 89 101 q 138 113 121 101 q 165 151 156 124 l 431 899 l 571 899 l 833 151 q 861 113 843 124 q 911 101 879 101 l 953 101 l 953 0 l 636 0 l 636 101 l 706 101 l 644 279 l 356 279 l 294 101 l 364 101 l 364 0 l 46 0 l 46 101 m 617 367 l 501 706 l 383 367 l 617 367 z "},"Á":{"ha":999,"x_min":46,"x_max":953,"o":"m 532 1222 l 706 1222 l 547 974 l 421 974 l 532 1222 m 46 101 l 89 101 q 138 113 121 101 q 165 151 156 124 l 431 899 l 571 899 l 833 151 q 861 113 843 124 q 911 101 879 101 l 953 101 l 953 0 l 636 0 l 636 101 l 706 101 l 644 279 l 356 279 l 294 101 l 364 101 l 364 0 l 46 0 l 46 101 m 617 367 l 501 706 l 383 367 l 617 367 z "},"Ă":{"ha":999,"x_min":46,"x_max":953,"o":"m 501 974 q 340 1028 400 974 q 281 1172 281 1082 l 401 1172 q 428 1095 401 1122 q 501 1068 454 1068 q 576 1095 550 1068 q 601 1172 601 1122 l 722 1172 q 663 1028 722 1082 q 501 974 603 974 m 46 101 l 89 101 q 138 113 121 101 q 165 151 156 124 l 431 899 l 571 899 l 833 151 q 861 113 843 124 q 911 101 879 101 l 953 101 l 953 0 l 636 0 l 636 101 l 706 101 l 644 279 l 356 279 l 294 101 l 364 101 l 364 0 l 46 0 l 46 101 m 617 367 l 501 706 l 383 367 l 617 367 z "},"Ắ":{"ha":999,"x_min":46,"x_max":953,"o":"m 526 1376 l 679 1376 l 538 1176 l 435 1176 l 526 1376 m 501 974 q 340 1029 404 974 q 275 1181 275 1085 l 379 1181 q 411 1094 379 1125 q 501 1064 443 1064 q 594 1094 563 1064 q 625 1181 625 1125 l 729 1181 q 665 1029 729 1085 q 501 974 600 974 m 46 101 l 89 101 q 138 113 121 101 q 165 151 156 124 l 431 899 l 571 899 l 833 151 q 861 113 843 124 q 911 101 879 101 l 953 101 l 953 0 l 636 0 l 636 101 l 706 101 l 644 279 l 356 279 l 294 101 l 364 101 l 364 0 l 46 0 l 46 101 m 617 367 l 501 706 l 383 367 l 617 367 z "},"Ặ":{"ha":999,"x_min":46,"x_max":953,"o":"m 501 974 q 340 1028 400 974 q 281 1172 281 1082 l 401 1172 q 428 1095 401 1122 q 501 1068 454 1068 q 576 1095 550 1068 q 601 1172 601 1122 l 722 1172 q 663 1028 722 1082 q 501 974 603 974 m 46 101 l 89 101 q 138 113 121 101 q 165 151 156 124 l 431 899 l 571 899 l 833 151 q 861 113 843 124 q 911 101 879 101 l 953 101 l 953 0 l 636 0 l 636 101 l 706 101 l 644 279 l 356 279 l 294 101 l 364 101 l 364 0 l 46 0 l 46 101 m 617 367 l 501 706 l 383 367 l 617 367 m 438 -86 l 565 -86 l 565 -219 l 438 -219 l 438 -86 z "},"Ằ":{"ha":999,"x_min":46,"x_max":953,"o":"m 326 1376 l 479 1376 l 571 1176 l 468 1176 l 326 1376 m 504 974 q 341 1029 406 974 q 276 1181 276 1085 l 381 1181 q 412 1094 381 1125 q 504 1064 443 1064 q 594 1094 563 1064 q 626 1181 626 1125 l 731 1181 q 666 1029 731 1085 q 504 974 601 974 m 46 101 l 89 101 q 138 113 121 101 q 165 151 156 124 l 431 899 l 571 899 l 833 151 q 861 113 843 124 q 911 101 879 101 l 953 101 l 953 0 l 636 0 l 636 101 l 706 101 l 644 279 l 356 279 l 294 101 l 364 101 l 364 0 l 46 0 l 46 101 m 617 367 l 501 706 l 383 367 l 617 367 z "},"Ẳ":{"ha":999,"x_min":46,"x_max":953,"o":"m 444 1229 q 507 1240 490 1229 q 524 1275 524 1250 q 476 1311 524 1311 q 419 1300 450 1311 l 419 1371 q 506 1383 454 1383 q 625 1286 625 1383 q 606 1227 625 1249 q 543 1197 586 1206 l 543 1165 l 444 1165 l 444 1229 m 501 974 q 340 1029 404 974 q 275 1181 275 1085 l 379 1181 q 411 1094 379 1125 q 501 1064 443 1064 q 594 1094 563 1064 q 625 1181 625 1125 l 729 1181 q 665 1029 729 1085 q 501 974 600 974 m 46 101 l 89 101 q 138 113 121 101 q 165 151 156 124 l 431 899 l 571 899 l 833 151 q 861 113 843 124 q 911 101 879 101 l 953 101 l 953 0 l 636 0 l 636 101 l 706 101 l 644 279 l 356 279 l 294 101 l 364 101 l 364 0 l 46 0 l 46 101 m 617 367 l 501 706 l 383 367 l 617 367 z "},"Ẵ":{"ha":999,"x_min":46,"x_max":953,"o":"m 596 1226 q 547 1235 571 1226 q 493 1260 524 1243 q 454 1277 474 1269 q 419 1285 435 1285 q 386 1271 396 1285 q 376 1229 376 1257 l 294 1229 q 323 1333 294 1301 q 411 1365 351 1365 q 460 1357 438 1365 q 514 1332 483 1349 q 533 1322 518 1331 q 561 1310 549 1314 q 583 1307 574 1307 q 616 1321 607 1307 q 625 1363 625 1335 l 707 1363 q 681 1258 707 1290 q 596 1226 654 1226 m 501 974 q 340 1029 404 974 q 275 1181 275 1085 l 379 1181 q 411 1094 379 1125 q 501 1064 443 1064 q 593 1094 561 1064 q 625 1181 625 1125 l 729 1181 q 665 1029 729 1085 q 501 974 600 974 m 46 101 l 89 101 q 138 113 121 101 q 165 151 156 124 l 431 899 l 571 899 l 833 151 q 861 113 843 124 q 911 101 879 101 l 953 101 l 953 0 l 636 0 l 636 101 l 706 101 l 644 279 l 356 279 l 294 101 l 364 101 l 364 0 l 46 0 l 46 101 m 617 367 l 501 706 l 383 367 l 617 367 z "},"Ǎ":{"ha":999,"x_min":46,"x_max":953,"o":"m 258 1233 l 396 1233 l 503 1058 l 610 1233 l 749 1233 l 575 972 l 432 972 l 258 1233 m 46 101 l 89 101 q 138 113 121 101 q 165 151 156 124 l 431 899 l 571 899 l 833 151 q 861 113 843 124 q 911 101 879 101 l 953 101 l 953 0 l 636 0 l 636 101 l 706 101 l 644 279 l 356 279 l 294 101 l 364 101 l 364 0 l 46 0 l 46 101 m 617 367 l 501 706 l 383 367 l 617 367 z "},"Â":{"ha":999,"x_min":46,"x_max":953,"o":"m 431 1235 l 574 1235 l 747 974 l 608 974 l 501 1149 l 394 974 l 257 974 l 431 1235 m 46 101 l 89 101 q 138 113 121 101 q 165 151 156 124 l 431 899 l 571 899 l 833 151 q 861 113 843 124 q 911 101 879 101 l 953 101 l 953 0 l 636 0 l 636 101 l 706 101 l 644 279 l 356 279 l 294 101 l 364 101 l 364 0 l 46 0 l 46 101 m 617 367 l 501 706 l 383 367 l 617 367 z "},"Ấ":{"ha":999,"x_min":46,"x_max":953,"o":"m 728 1304 l 885 1304 l 749 1128 l 640 1128 l 728 1304 m 433 1164 l 572 1164 l 721 976 l 589 976 l 503 1094 l 414 976 l 285 976 l 433 1164 m 46 101 l 89 101 q 138 113 121 101 q 165 151 156 124 l 431 899 l 571 899 l 833 151 q 861 113 843 124 q 911 101 879 101 l 953 101 l 953 0 l 636 0 l 636 101 l 706 101 l 644 279 l 356 279 l 294 101 l 364 101 l 364 0 l 46 0 l 46 101 m 617 367 l 501 706 l 383 367 l 617 367 z "},"Ậ":{"ha":999,"x_min":46,"x_max":953,"o":"m 431 1235 l 574 1235 l 747 974 l 608 974 l 501 1149 l 394 974 l 257 974 l 431 1235 m 46 101 l 89 101 q 138 113 121 101 q 165 151 156 124 l 431 899 l 571 899 l 833 151 q 861 113 843 124 q 911 101 879 101 l 953 101 l 953 0 l 636 0 l 636 101 l 706 101 l 644 279 l 356 279 l 294 101 l 364 101 l 364 0 l 46 0 l 46 101 m 617 367 l 501 706 l 383 367 l 617 367 m 438 -86 l 565 -86 l 565 -219 l 438 -219 l 438 -86 z "},"Ầ":{"ha":999,"x_min":46,"x_max":953,"o":"m 119 1304 l 276 1304 l 364 1128 l 256 1128 l 119 1304 m 432 1164 l 571 1164 l 719 976 l 590 976 l 501 1094 l 415 976 l 283 976 l 432 1164 m 46 101 l 89 101 q 138 113 121 101 q 165 151 156 124 l 431 899 l 571 899 l 833 151 q 861 113 843 124 q 911 101 879 101 l 953 101 l 953 0 l 636 0 l 636 101 l 706 101 l 644 279 l 356 279 l 294 101 l 364 101 l 364 0 l 46 0 l 46 101 m 617 367 l 501 706 l 383 367 l 617 367 z "},"Ẩ":{"ha":999,"x_min":46,"x_max":953,"o":"m 608 1213 q 671 1223 654 1213 q 688 1258 688 1233 q 675 1285 688 1276 q 640 1294 663 1294 q 583 1283 614 1294 l 583 1354 q 668 1367 618 1367 q 789 1269 789 1367 q 769 1210 789 1232 q 707 1181 750 1189 l 707 1149 l 608 1149 l 608 1213 m 431 1161 l 571 1161 l 719 974 l 589 974 l 500 1092 l 414 974 l 283 974 l 431 1161 m 46 101 l 89 101 q 138 113 121 101 q 165 151 156 124 l 431 899 l 571 899 l 833 151 q 861 113 843 124 q 911 101 879 101 l 953 101 l 953 0 l 636 0 l 636 101 l 706 101 l 644 279 l 356 279 l 294 101 l 364 101 l 364 0 l 46 0 l 46 101 m 617 367 l 501 706 l 383 367 l 617 367 z "},"Ẫ":{"ha":999,"x_min":46,"x_max":953,"o":"m 596 1186 q 547 1194 571 1186 q 493 1219 524 1203 q 454 1237 474 1229 q 419 1244 435 1244 q 386 1231 396 1244 q 376 1189 376 1217 l 294 1189 q 323 1293 294 1261 q 411 1325 351 1325 q 460 1317 438 1325 q 514 1292 483 1308 q 533 1282 518 1290 q 561 1270 549 1274 q 583 1267 574 1267 q 617 1281 607 1267 q 626 1322 626 1294 l 708 1322 q 681 1218 708 1250 q 596 1186 654 1186 m 431 1161 l 571 1161 l 719 974 l 589 974 l 500 1092 l 414 974 l 283 974 l 431 1161 m 46 101 l 89 101 q 138 113 121 101 q 165 151 156 124 l 431 899 l 571 899 l 833 151 q 861 113 843 124 q 911 101 879 101 l 953 101 l 953 0 l 636 0 l 636 101 l 706 101 l 644 279 l 356 279 l 294 101 l 364 101 l 364 0 l 46 0 l 46 101 m 617 367 l 501 706 l 383 367 l 617 367 z "},"Ä":{"ha":999,"x_min":46,"x_max":953,"o":"m 289 1133 l 417 1133 l 417 1000 l 289 1000 l 289 1133 m 585 1133 l 714 1133 l 714 1000 l 585 1000 l 585 1133 m 46 101 l 89 101 q 138 113 121 101 q 165 151 156 124 l 431 899 l 571 899 l 833 151 q 861 113 843 124 q 911 101 879 101 l 953 101 l 953 0 l 636 0 l 636 101 l 706 101 l 644 279 l 356 279 l 294 101 l 364 101 l 364 0 l 46 0 l 46 101 m 617 367 l 501 706 l 383 367 l 617 367 z "},"Ạ":{"ha":999,"x_min":46,"x_max":953,"o":"m 46 101 l 89 101 q 138 113 121 101 q 165 151 156 124 l 431 899 l 571 899 l 833 151 q 861 113 843 124 q 911 101 879 101 l 953 101 l 953 0 l 636 0 l 636 101 l 706 101 l 644 279 l 356 279 l 294 101 l 364 101 l 364 0 l 46 0 l 46 101 m 617 367 l 501 706 l 383 367 l 617 367 m 422 -86 l 550 -86 l 550 -219 l 422 -219 l 422 -86 z "},"À":{"ha":999,"x_min":46,"x_max":953,"o":"m 272 1222 l 447 1222 l 558 974 l 431 974 l 272 1222 m 46 101 l 89 101 q 138 113 121 101 q 165 151 156 124 l 431 899 l 571 899 l 833 151 q 861 113 843 124 q 911 101 879 101 l 953 101 l 953 0 l 636 0 l 636 101 l 706 101 l 644 279 l 356 279 l 294 101 l 364 101 l 364 0 l 46 0 l 46 101 m 617 367 l 501 706 l 383 367 l 617 367 z "},"Ả":{"ha":999,"x_min":46,"x_max":953,"o":"m 436 1061 q 503 1076 483 1061 q 522 1121 522 1092 q 507 1158 522 1147 q 454 1169 492 1169 q 386 1157 418 1169 l 386 1239 q 486 1254 426 1254 q 646 1138 646 1254 q 556 1026 646 1051 l 556 971 l 436 971 l 436 1061 m 46 101 l 89 101 q 138 113 121 101 q 165 151 156 124 l 431 899 l 571 899 l 833 151 q 861 113 843 124 q 911 101 879 101 l 953 101 l 953 0 l 636 0 l 636 101 l 706 101 l 644 279 l 356 279 l 294 101 l 364 101 l 364 0 l 46 0 l 46 101 m 617 367 l 501 706 l 383 367 l 617 367 z "},"Ā":{"ha":999,"x_min":46,"x_max":953,"o":"m 301 1097 l 703 1097 l 703 1001 l 301 1001 l 301 1097 m 46 101 l 89 101 q 138 113 121 101 q 165 151 156 124 l 431 899 l 571 899 l 833 151 q 861 113 843 124 q 911 101 879 101 l 953 101 l 953 0 l 636 0 l 636 101 l 706 101 l 644 279 l 356 279 l 294 101 l 364 101 l 364 0 l 46 0 l 46 101 m 617 367 l 501 706 l 383 367 l 617 367 z "},"Ą":{"ha":999,"x_min":46,"x_max":953,"o":"m 842 0 q 790 -60 807 -29 q 772 -126 772 -90 q 824 -190 772 -190 q 882 -179 851 -190 l 882 -265 q 790 -290 847 -290 q 688 -256 726 -290 q 649 -154 649 -222 q 667 -69 649 -110 q 719 0 686 -29 l 636 0 l 636 101 l 706 101 l 644 279 l 356 279 l 294 101 l 364 101 l 364 0 l 46 0 l 46 101 l 89 101 q 138 113 121 101 q 165 151 156 124 l 431 899 l 571 899 l 833 151 q 861 113 843 124 q 911 101 879 101 l 953 101 l 953 0 l 842 0 m 617 367 l 501 706 l 383 367 l 617 367 z "},"Å":{"ha":999,"x_min":46,"x_max":953,"o":"m 953 101 l 953 0 l 636 0 l 636 101 l 706 101 l 644 279 l 356 279 l 294 101 l 364 101 l 364 0 l 46 0 l 46 101 l 89 101 q 138 113 121 101 q 165 151 156 124 l 417 860 q 364 916 383 881 q 344 992 344 951 q 390 1103 344 1057 q 501 1150 436 1150 q 613 1103 567 1150 q 660 992 660 1057 q 640 915 660 950 q 585 858 619 879 l 833 151 q 861 113 843 124 q 911 101 879 101 l 953 101 m 501 1067 q 449 1045 471 1067 q 428 992 428 1024 q 449 940 428 961 q 501 918 471 918 q 554 940 533 918 q 575 992 575 961 q 553 1045 575 1024 q 501 1067 532 1067 m 617 367 l 501 706 l 383 367 l 617 367 z "},"Ǻ":{"ha":999,"x_min":46,"x_max":953,"o":"m 547 1189 l 421 1189 l 532 1438 l 706 1438 l 547 1189 m 953 101 l 953 0 l 636 0 l 636 101 l 706 101 l 644 279 l 356 279 l 294 101 l 364 101 l 364 0 l 46 0 l 46 101 l 89 101 q 138 113 121 101 q 165 151 156 124 l 417 861 q 364 917 383 882 q 344 994 344 953 q 390 1106 344 1060 q 501 1153 436 1153 q 613 1106 567 1153 q 660 994 660 1060 q 639 917 660 953 q 585 861 618 882 l 833 151 q 861 113 843 124 q 911 101 879 101 l 953 101 m 501 1069 q 449 1048 471 1069 q 428 994 428 1026 q 449 942 428 964 q 501 921 471 921 q 554 942 533 921 q 575 994 575 964 q 553 1048 575 1026 q 501 1069 532 1069 m 617 367 l 501 706 l 383 367 l 617 367 z "},"Ã":{"ha":999,"x_min":46,"x_max":953,"o":"m 231 974 q 267 1117 231 1071 q 382 1164 304 1164 q 449 1153 418 1164 q 514 1121 479 1142 q 563 1097 544 1104 q 603 1089 582 1089 q 649 1106 635 1089 q 664 1164 664 1122 l 772 1164 q 736 1019 772 1064 q 624 974 700 974 q 558 985 588 974 q 494 1015 529 996 q 444 1039 465 1031 q 401 1047 424 1047 q 354 1031 369 1047 q 339 974 339 1014 l 231 974 m 46 101 l 89 101 q 138 113 121 101 q 165 151 156 124 l 431 899 l 571 899 l 833 151 q 861 113 843 124 q 911 101 879 101 l 953 101 l 953 0 l 636 0 l 636 101 l 706 101 l 644 279 l 356 279 l 294 101 l 364 101 l 364 0 l 46 0 l 46 101 m 617 367 l 501 706 l 383 367 l 617 367 z "},"Æ":{"ha":1164,"x_min":46,"x_max":1118,"o":"m 46 101 l 89 101 q 138 113 121 101 q 165 151 156 124 l 449 899 l 1118 899 l 1118 719 l 985 719 l 985 746 q 972 785 985 774 q 932 797 960 797 l 700 797 l 700 501 l 932 501 l 932 399 l 700 399 l 700 101 l 932 101 q 972 113 960 101 q 985 153 985 125 l 985 181 l 1118 181 l 1118 0 l 467 0 l 467 101 l 507 101 q 547 114 535 101 q 558 154 558 126 l 558 279 l 360 279 l 294 101 l 364 101 l 364 0 l 46 0 l 46 101 m 558 381 l 558 796 l 549 796 l 392 381 l 558 381 z "},"Ǽ":{"ha":1164,"x_min":46,"x_max":1118,"o":"m 703 1222 l 876 1222 l 718 974 l 592 974 l 703 1222 m 46 101 l 89 101 q 138 113 121 101 q 165 151 156 124 l 449 899 l 1118 899 l 1118 719 l 985 719 l 985 746 q 972 785 985 774 q 932 797 960 797 l 700 797 l 700 501 l 932 501 l 932 399 l 700 399 l 700 101 l 932 101 q 972 113 960 101 q 985 153 985 125 l 985 181 l 1118 181 l 1118 0 l 467 0 l 467 101 l 507 101 q 547 114 535 101 q 558 154 558 126 l 558 279 l 360 279 l 294 101 l 364 101 l 364 0 l 46 0 l 46 101 m 558 381 l 558 796 l 549 796 l 392 381 l 558 381 z "},"B":{"ha":821,"x_min":46,"x_max":775,"o":"m 46 101 l 86 101 q 126 114 114 101 q 138 154 138 126 l 138 746 q 126 784 138 772 q 86 796 114 796 l 46 796 l 46 899 l 513 899 q 696 836 632 899 q 760 660 760 774 q 728 538 760 592 q 635 457 696 485 q 740 380 704 433 q 775 249 775 326 q 711 70 775 140 q 535 0 647 0 l 46 0 l 46 101 m 464 504 q 575 543 535 504 q 615 653 615 582 q 581 762 615 726 q 471 797 547 797 l 285 797 l 285 504 l 464 504 m 494 101 q 594 140 558 101 q 631 253 631 178 q 592 365 631 331 q 472 400 553 400 l 285 400 l 285 101 l 494 101 z "},"C":{"ha":832,"x_min":46,"x_max":786,"o":"m 504 -21 q 255 38 358 -21 q 99 202 151 97 q 46 444 46 307 q 94 690 46 583 q 242 858 143 797 q 488 919 340 919 q 659 901 586 919 q 786 842 732 882 l 786 700 l 640 700 l 640 789 q 488 817 578 817 q 267 718 346 817 q 189 444 189 619 q 274 178 189 274 q 510 82 360 82 q 628 94 576 82 q 729 138 681 107 l 783 51 q 658 -5 722 11 q 504 -21 593 -21 z "},"Ć":{"ha":832,"x_min":46,"x_max":786,"o":"m 507 1222 l 681 1222 l 522 974 l 396 974 l 507 1222 m 504 -21 q 255 38 358 -21 q 99 202 151 97 q 46 444 46 307 q 94 690 46 583 q 242 858 143 797 q 488 919 340 919 q 659 901 586 919 q 786 842 732 882 l 786 700 l 640 700 l 640 789 q 488 817 578 817 q 267 718 346 817 q 189 444 189 619 q 274 178 189 274 q 510 82 360 82 q 628 94 576 82 q 729 138 681 107 l 783 51 q 658 -5 722 11 q 504 -21 593 -21 z "},"Č":{"ha":832,"x_min":46,"x_max":786,"o":"m 225 1235 l 363 1235 l 469 1060 l 576 1235 l 715 1235 l 542 974 l 399 974 l 225 1235 m 504 -21 q 255 38 358 -21 q 99 202 151 97 q 46 444 46 307 q 94 690 46 583 q 242 858 143 797 q 488 919 340 919 q 659 901 586 919 q 786 842 732 882 l 786 700 l 640 700 l 640 789 q 488 817 578 817 q 267 718 346 817 q 189 444 189 619 q 274 178 189 274 q 510 82 360 82 q 628 94 576 82 q 729 138 681 107 l 783 51 q 658 -5 722 11 q 504 -21 593 -21 z "},"Ç":{"ha":832,"x_min":46,"x_max":786,"o":"m 640 700 l 640 789 q 488 817 578 817 q 267 718 346 817 q 189 444 189 619 q 274 178 189 274 q 510 82 360 82 q 628 94 576 82 q 729 138 681 107 l 783 51 q 674 -1 729 15 q 549 -19 619 -17 l 540 -64 q 626 -103 600 -74 q 653 -185 653 -133 q 606 -283 653 -249 q 464 -317 558 -317 q 360 -299 406 -317 l 360 -212 q 450 -231 400 -231 q 529 -181 529 -231 q 503 -129 529 -144 q 401 -114 478 -114 l 417 -15 q 142 134 239 10 q 46 444 46 258 q 94 690 46 583 q 242 858 143 797 q 488 919 340 919 q 659 901 586 919 q 786 842 732 882 l 786 700 l 640 700 z "},"Ĉ":{"ha":832,"x_min":46,"x_max":786,"o":"m 401 1235 l 544 1235 l 718 974 l 579 974 l 472 1149 l 365 974 l 228 974 l 401 1235 m 504 -21 q 255 38 358 -21 q 99 202 151 97 q 46 444 46 307 q 94 690 46 583 q 242 858 143 797 q 488 919 340 919 q 659 901 586 919 q 786 842 732 882 l 786 700 l 640 700 l 640 789 q 488 817 578 817 q 267 718 346 817 q 189 444 189 619 q 274 178 189 274 q 510 82 360 82 q 628 94 576 82 q 729 138 681 107 l 783 51 q 658 -5 722 11 q 504 -21 593 -21 z "},"Ċ":{"ha":832,"x_min":46,"x_max":786,"o":"m 417 1133 l 544 1133 l 544 1000 l 417 1000 l 417 1133 m 504 -21 q 255 38 358 -21 q 99 202 151 97 q 46 444 46 307 q 94 690 46 583 q 242 858 143 797 q 488 919 340 919 q 659 901 586 919 q 786 842 732 882 l 786 700 l 640 700 l 640 789 q 488 817 578 817 q 267 718 346 817 q 189 444 189 619 q 274 178 189 274 q 510 82 360 82 q 628 94 576 82 q 729 138 681 107 l 783 51 q 658 -5 722 11 q 504 -21 593 -21 z "},"D":{"ha":872,"x_min":46,"x_max":826,"o":"m 46 100 l 78 100 q 117 113 106 100 q 129 153 129 125 l 129 747 q 117 785 129 774 q 78 797 106 797 l 46 797 l 46 899 l 446 899 q 733 781 639 899 q 826 446 826 663 q 730 122 826 243 q 446 0 633 0 l 46 0 l 46 100 m 426 100 q 622 186 563 100 q 682 446 682 272 q 622 711 682 624 q 426 799 563 799 l 276 799 l 276 100 l 426 100 z "},"Ð":{"ha":872,"x_min":46,"x_max":826,"o":"m 46 100 l 78 100 q 117 113 106 100 q 129 153 129 125 l 129 397 l 46 397 l 46 500 l 129 500 l 129 747 q 117 785 129 774 q 78 797 106 797 l 46 797 l 46 899 l 446 899 q 733 781 639 899 q 826 446 826 663 q 730 122 826 243 q 446 0 633 0 l 46 0 l 46 100 m 426 100 q 622 186 563 100 q 682 446 682 272 q 622 711 682 624 q 426 799 563 799 l 276 799 l 276 500 l 467 500 l 467 397 l 276 397 l 276 100 l 426 100 z "},"Ď":{"ha":872,"x_min":46,"x_max":826,"o":"m 111 1235 l 249 1235 l 356 1060 l 463 1235 l 601 1235 l 428 974 l 285 974 l 111 1235 m 46 100 l 78 100 q 117 113 106 100 q 129 153 129 125 l 129 747 q 117 785 129 774 q 78 797 106 797 l 46 797 l 46 899 l 446 899 q 733 781 639 899 q 826 446 826 663 q 730 122 826 243 q 446 0 633 0 l 46 0 l 46 100 m 426 100 q 622 186 563 100 q 682 446 682 272 q 622 711 682 624 q 426 799 563 799 l 276 799 l 276 100 l 426 100 z "},"Đ":{"ha":872,"x_min":46,"x_max":826,"o":"m 46 100 l 78 100 q 117 113 106 100 q 129 153 129 125 l 129 397 l 46 397 l 46 500 l 129 500 l 129 747 q 117 785 129 774 q 78 797 106 797 l 46 797 l 46 899 l 446 899 q 733 781 639 899 q 826 446 826 663 q 730 122 826 243 q 446 0 633 0 l 46 0 l 46 100 m 426 100 q 622 186 563 100 q 682 446 682 272 q 622 711 682 624 q 426 799 563 799 l 276 799 l 276 500 l 467 500 l 467 397 l 276 397 l 276 100 l 426 100 z "},"Ḍ":{"ha":872,"x_min":46,"x_max":826,"o":"m 46 100 l 78 100 q 117 113 106 100 q 129 153 129 125 l 129 747 q 117 785 129 774 q 78 797 106 797 l 46 797 l 46 899 l 446 899 q 733 781 639 899 q 826 446 826 663 q 730 122 826 243 q 446 0 633 0 l 46 0 l 46 100 m 426 100 q 622 186 563 100 q 682 446 682 272 q 622 711 682 624 q 426 799 563 799 l 276 799 l 276 100 l 426 100 m 300 -86 l 428 -86 l 428 -219 l 300 -219 l 300 -86 z "},"Ḏ":{"ha":872,"x_min":46,"x_max":826,"o":"m 46 100 l 78 100 q 117 113 106 100 q 129 153 129 125 l 129 747 q 117 785 129 774 q 78 797 106 797 l 46 797 l 46 899 l 446 899 q 733 781 639 899 q 826 446 826 663 q 730 122 826 243 q 446 0 633 0 l 46 0 l 46 100 m 426 100 q 622 186 563 100 q 682 446 682 272 q 622 711 682 624 q 426 799 563 799 l 276 799 l 276 100 l 426 100 m 168 -87 l 569 -87 l 569 -183 l 168 -183 l 168 -87 z "},"E":{"ha":757,"x_min":46,"x_max":711,"o":"m 46 101 l 86 101 q 126 114 114 101 q 138 154 138 126 l 138 746 q 126 784 138 772 q 86 796 114 796 l 46 796 l 46 899 l 711 899 l 711 719 l 578 719 l 578 747 q 565 785 578 774 q 525 797 553 797 l 285 797 l 285 501 l 525 501 l 525 399 l 285 399 l 285 101 l 525 101 q 565 113 553 101 q 578 153 578 125 l 578 181 l 711 181 l 711 0 l 46 0 l 46 101 z "},"É":{"ha":757,"x_min":46,"x_max":711,"o":"m 396 1222 l 569 1222 l 411 974 l 285 974 l 396 1222 m 46 101 l 86 101 q 126 114 114 101 q 138 154 138 126 l 138 746 q 126 784 138 772 q 86 796 114 796 l 46 796 l 46 899 l 711 899 l 711 719 l 578 719 l 578 747 q 565 785 578 774 q 525 797 553 797 l 285 797 l 285 501 l 525 501 l 525 399 l 285 399 l 285 101 l 525 101 q 565 113 553 101 q 578 153 578 125 l 578 181 l 711 181 l 711 0 l 46 0 l 46 101 z "},"Ĕ":{"ha":757,"x_min":46,"x_max":711,"o":"m 386 974 q 225 1028 285 974 q 165 1172 165 1082 l 286 1172 q 313 1095 286 1122 q 386 1068 339 1068 q 460 1095 435 1068 q 486 1172 486 1122 l 607 1172 q 547 1028 607 1082 q 386 974 488 974 m 46 101 l 86 101 q 126 114 114 101 q 138 154 138 126 l 138 746 q 126 784 138 772 q 86 796 114 796 l 46 796 l 46 899 l 711 899 l 711 719 l 578 719 l 578 747 q 565 785 578 774 q 525 797 553 797 l 285 797 l 285 501 l 525 501 l 525 399 l 285 399 l 285 101 l 525 101 q 565 113 553 101 q 578 153 578 125 l 578 181 l 711 181 l 711 0 l 46 0 l 46 101 z "},"Ě":{"ha":757,"x_min":46,"x_max":711,"o":"m 133 1235 l 271 1235 l 378 1060 l 485 1235 l 624 1235 l 450 974 l 307 974 l 133 1235 m 46 101 l 86 101 q 126 114 114 101 q 138 154 138 126 l 138 746 q 126 784 138 772 q 86 796 114 796 l 46 796 l 46 899 l 711 899 l 711 719 l 578 719 l 578 747 q 565 785 578 774 q 525 797 553 797 l 285 797 l 285 501 l 525 501 l 525 399 l 285 399 l 285 101 l 525 101 q 565 113 553 101 q 578 153 578 125 l 578 181 l 711 181 l 711 0 l 46 0 l 46 101 z "},"Ê":{"ha":757,"x_min":46,"x_max":711,"o":"m 288 1235 l 431 1235 l 604 974 l 465 974 l 358 1149 l 251 974 l 114 974 l 288 1235 m 46 101 l 86 101 q 126 114 114 101 q 138 154 138 126 l 138 746 q 126 784 138 772 q 86 796 114 796 l 46 796 l 46 899 l 711 899 l 711 719 l 578 719 l 578 747 q 565 785 578 774 q 525 797 553 797 l 285 797 l 285 501 l 525 501 l 525 399 l 285 399 l 285 101 l 525 101 q 565 113 553 101 q 578 153 578 125 l 578 181 l 711 181 l 711 0 l 46 0 l 46 101 z "},"Ế":{"ha":757,"x_min":46,"x_max":751,"o":"m 594 1301 l 751 1301 l 615 1125 l 507 1125 l 594 1301 m 300 1161 l 439 1161 l 588 974 l 456 974 l 369 1092 l 281 974 l 151 974 l 300 1161 m 46 101 l 86 101 q 126 114 114 101 q 138 154 138 126 l 138 746 q 126 784 138 772 q 86 796 114 796 l 46 796 l 46 899 l 711 899 l 711 719 l 578 719 l 578 747 q 565 785 578 774 q 525 797 553 797 l 285 797 l 285 501 l 525 501 l 525 399 l 285 399 l 285 101 l 525 101 q 565 113 553 101 q 578 153 578 125 l 578 181 l 711 181 l 711 0 l 46 0 l 46 101 z "},"Ệ":{"ha":757,"x_min":46,"x_max":711,"o":"m 306 1235 l 449 1235 l 622 974 l 483 974 l 376 1149 l 269 974 l 132 974 l 306 1235 m 46 101 l 86 101 q 126 114 114 101 q 138 154 138 126 l 138 746 q 126 784 138 772 q 86 796 114 796 l 46 796 l 46 899 l 711 899 l 711 719 l 578 719 l 578 747 q 565 785 578 774 q 525 797 553 797 l 285 797 l 285 501 l 525 501 l 525 399 l 285 399 l 285 101 l 525 101 q 565 113 553 101 q 578 153 578 125 l 578 181 l 711 181 l 711 0 l 46 0 l 46 101 m 314 -86 l 442 -86 l 442 -219 l 314 -219 l 314 -86 z "},"Ề":{"ha":757,"x_min":7,"x_max":711,"o":"m 7 1301 l 164 1301 l 251 1125 l 143 1125 l 7 1301 m 313 1161 l 451 1161 l 600 974 l 471 974 l 382 1092 l 296 974 l 164 974 l 313 1161 m 46 101 l 86 101 q 126 114 114 101 q 138 154 138 126 l 138 746 q 126 784 138 772 q 86 796 114 796 l 46 796 l 46 899 l 711 899 l 711 719 l 578 719 l 578 747 q 565 785 578 774 q 525 797 553 797 l 285 797 l 285 501 l 525 501 l 525 399 l 285 399 l 285 101 l 525 101 q 565 113 553 101 q 578 153 578 125 l 578 181 l 711 181 l 711 0 l 46 0 l 46 101 z "},"Ể":{"ha":757,"x_min":46,"x_max":711,"o":"m 475 1213 q 538 1223 521 1213 q 554 1258 554 1233 q 542 1285 554 1276 q 507 1294 529 1294 q 450 1283 481 1294 l 450 1354 q 535 1367 485 1367 q 656 1269 656 1367 q 636 1210 656 1232 q 574 1181 617 1189 l 574 1149 l 475 1149 l 475 1213 m 297 1161 l 438 1161 l 586 974 l 456 974 l 367 1092 l 281 974 l 150 974 l 297 1161 m 46 101 l 86 101 q 126 114 114 101 q 138 154 138 126 l 138 746 q 126 784 138 772 q 86 796 114 796 l 46 796 l 46 899 l 711 899 l 711 719 l 578 719 l 578 747 q 565 785 578 774 q 525 797 553 797 l 285 797 l 285 501 l 525 501 l 525 399 l 285 399 l 285 101 l 525 101 q 565 113 553 101 q 578 153 578 125 l 578 181 l 711 181 l 711 0 l 46 0 l 46 101 z "},"Ễ":{"ha":757,"x_min":46,"x_max":711,"o":"m 488 1186 q 439 1194 463 1186 q 385 1219 415 1203 q 346 1237 365 1229 q 311 1244 326 1244 q 278 1231 288 1244 q 268 1189 268 1217 l 186 1189 q 215 1293 186 1261 q 303 1325 243 1325 q 352 1317 329 1325 q 406 1292 375 1308 q 425 1282 410 1290 q 453 1270 440 1274 q 475 1267 465 1267 q 508 1281 499 1267 q 518 1322 518 1294 l 600 1322 q 573 1218 600 1250 q 488 1186 546 1186 m 322 1161 l 463 1161 l 611 974 l 481 974 l 392 1092 l 306 974 l 175 974 l 322 1161 m 46 101 l 86 101 q 126 114 114 101 q 138 154 138 126 l 138 746 q 126 784 138 772 q 86 796 114 796 l 46 796 l 46 899 l 711 899 l 711 719 l 578 719 l 578 747 q 565 785 578 774 q 525 797 553 797 l 285 797 l 285 501 l 525 501 l 525 399 l 285 399 l 285 101 l 525 101 q 565 113 553 101 q 578 153 578 125 l 578 181 l 711 181 l 711 0 l 46 0 l 46 101 z "},"Ë":{"ha":757,"x_min":46,"x_max":711,"o":"m 149 1133 l 276 1133 l 276 1000 l 149 1000 l 149 1133 m 444 1133 l 574 1133 l 574 1000 l 444 1000 l 444 1133 m 46 101 l 86 101 q 126 114 114 101 q 138 154 138 126 l 138 746 q 126 784 138 772 q 86 796 114 796 l 46 796 l 46 899 l 711 899 l 711 719 l 578 719 l 578 747 q 565 785 578 774 q 525 797 553 797 l 285 797 l 285 501 l 525 501 l 525 399 l 285 399 l 285 101 l 525 101 q 565 113 553 101 q 578 153 578 125 l 578 181 l 711 181 l 711 0 l 46 0 l 46 101 z "},"Ė":{"ha":757,"x_min":46,"x_max":711,"o":"m 308 1133 l 436 1133 l 436 1000 l 308 1000 l 308 1133 m 46 101 l 86 101 q 126 114 114 101 q 138 154 138 126 l 138 746 q 126 784 138 772 q 86 796 114 796 l 46 796 l 46 899 l 711 899 l 711 719 l 578 719 l 578 747 q 565 785 578 774 q 525 797 553 797 l 285 797 l 285 501 l 525 501 l 525 399 l 285 399 l 285 101 l 525 101 q 565 113 553 101 q 578 153 578 125 l 578 181 l 711 181 l 711 0 l 46 0 l 46 101 z "},"Ẹ":{"ha":757,"x_min":46,"x_max":711,"o":"m 46 101 l 86 101 q 126 114 114 101 q 138 154 138 126 l 138 746 q 126 784 138 772 q 86 796 114 796 l 46 796 l 46 899 l 711 899 l 711 719 l 578 719 l 578 747 q 565 785 578 774 q 525 797 553 797 l 285 797 l 285 501 l 525 501 l 525 399 l 285 399 l 285 101 l 525 101 q 565 113 553 101 q 578 153 578 125 l 578 181 l 711 181 l 711 0 l 46 0 l 46 101 m 317 -86 l 444 -86 l 444 -219 l 317 -219 l 317 -86 z "},"È":{"ha":757,"x_min":46,"x_max":711,"o":"m 167 1222 l 342 1222 l 453 974 l 325 974 l 167 1222 m 46 101 l 86 101 q 126 114 114 101 q 138 154 138 126 l 138 746 q 126 784 138 772 q 86 796 114 796 l 46 796 l 46 899 l 711 899 l 711 719 l 578 719 l 578 747 q 565 785 578 774 q 525 797 553 797 l 285 797 l 285 501 l 525 501 l 525 399 l 285 399 l 285 101 l 525 101 q 565 113 553 101 q 578 153 578 125 l 578 181 l 711 181 l 711 0 l 46 0 l 46 101 z "},"Ẻ":{"ha":757,"x_min":46,"x_max":711,"o":"m 310 1064 q 376 1079 357 1064 q 396 1124 396 1094 q 381 1161 396 1150 q 328 1172 365 1172 q 260 1160 292 1172 l 260 1242 q 360 1257 300 1257 q 519 1140 519 1257 q 429 1029 519 1054 l 429 974 l 310 974 l 310 1064 m 46 101 l 86 101 q 126 114 114 101 q 138 154 138 126 l 138 746 q 126 784 138 772 q 86 796 114 796 l 46 796 l 46 899 l 711 899 l 711 719 l 578 719 l 578 747 q 565 785 578 774 q 525 797 553 797 l 285 797 l 285 501 l 525 501 l 525 399 l 285 399 l 285 101 l 525 101 q 565 113 553 101 q 578 153 578 125 l 578 181 l 711 181 l 711 0 l 46 0 l 46 101 z "},"Ē":{"ha":757,"x_min":46,"x_max":711,"o":"m 178 1097 l 579 1097 l 579 1001 l 178 1001 l 178 1097 m 46 101 l 86 101 q 126 114 114 101 q 138 154 138 126 l 138 746 q 126 784 138 772 q 86 796 114 796 l 46 796 l 46 899 l 711 899 l 711 719 l 578 719 l 578 747 q 565 785 578 774 q 525 797 553 797 l 285 797 l 285 501 l 525 501 l 525 399 l 285 399 l 285 101 l 525 101 q 565 113 553 101 q 578 153 578 125 l 578 181 l 711 181 l 711 0 l 46 0 l 46 101 z "},"Ę":{"ha":757,"x_min":46,"x_max":711,"o":"m 578 719 l 578 747 q 565 785 578 774 q 525 797 553 797 l 285 797 l 285 501 l 525 501 l 525 399 l 285 399 l 285 101 l 525 101 q 565 113 553 101 q 578 153 578 125 l 578 181 l 711 181 l 711 0 l 651 0 q 599 -60 617 -29 q 582 -126 582 -90 q 633 -190 582 -190 q 692 -179 661 -190 l 692 -265 q 600 -290 657 -290 q 497 -256 536 -290 q 458 -154 458 -222 q 477 -69 458 -110 q 529 0 496 -29 l 46 0 l 46 101 l 86 101 q 126 114 114 101 q 138 154 138 126 l 138 746 q 126 784 138 772 q 86 796 114 796 l 46 796 l 46 899 l 711 899 l 711 719 l 578 719 z "},"Ẽ":{"ha":757,"x_min":46,"x_max":711,"o":"m 118 974 q 155 1117 118 1071 q 269 1164 192 1164 q 336 1153 306 1164 q 401 1121 367 1142 q 451 1097 432 1104 q 490 1089 469 1089 q 537 1106 522 1089 q 551 1164 551 1122 l 660 1164 q 624 1019 660 1064 q 511 974 588 974 q 446 985 475 974 q 382 1015 417 996 q 332 1039 353 1031 q 289 1047 311 1047 q 242 1031 257 1047 q 226 974 226 1014 l 118 974 m 46 101 l 86 101 q 126 114 114 101 q 138 154 138 126 l 138 746 q 126 784 138 772 q 86 796 114 796 l 46 796 l 46 899 l 711 899 l 711 719 l 578 719 l 578 747 q 565 785 578 774 q 525 797 553 797 l 285 797 l 285 501 l 525 501 l 525 399 l 285 399 l 285 101 l 525 101 q 565 113 553 101 q 578 153 578 125 l 578 181 l 711 181 l 711 0 l 46 0 l 46 101 z "},"F":{"ha":757,"x_min":46,"x_max":711,"o":"m 46 101 l 86 101 q 126 114 114 101 q 138 154 138 126 l 138 746 q 126 784 138 772 q 86 796 114 796 l 46 796 l 46 899 l 711 899 l 711 719 l 578 719 l 578 747 q 565 785 578 774 q 525 797 553 797 l 285 797 l 285 501 l 525 501 l 525 399 l 285 399 l 285 153 q 297 113 285 125 q 335 101 308 101 l 376 101 l 376 0 l 46 0 l 46 101 z "},"G":{"ha":858,"x_min":46,"x_max":813,"o":"m 490 -21 q 247 38 347 -21 q 97 202 147 97 q 46 444 46 307 q 93 690 46 583 q 238 858 140 797 q 482 919 336 919 q 655 901 582 919 q 783 842 728 882 l 783 700 l 636 700 l 636 786 q 482 817 576 817 q 267 718 343 817 q 190 444 190 619 q 271 178 190 274 q 496 82 351 82 q 667 111 593 82 l 667 371 l 474 371 l 474 474 l 813 474 l 813 67 q 667 0 744 21 q 490 -21 589 -21 z "},"Ğ":{"ha":858,"x_min":46,"x_max":813,"o":"m 463 974 q 301 1028 361 974 q 242 1172 242 1082 l 363 1172 q 389 1095 363 1122 q 463 1068 415 1068 q 537 1095 511 1068 q 563 1172 563 1122 l 683 1172 q 624 1028 683 1082 q 463 974 564 974 m 490 -21 q 247 38 347 -21 q 97 202 147 97 q 46 444 46 307 q 93 690 46 583 q 238 858 140 797 q 482 919 336 919 q 655 901 582 919 q 783 842 728 882 l 783 700 l 636 700 l 636 786 q 482 817 576 817 q 267 718 343 817 q 190 444 190 619 q 271 178 190 274 q 496 82 351 82 q 667 111 593 82 l 667 371 l 474 371 l 474 474 l 813 474 l 813 67 q 667 0 744 21 q 490 -21 589 -21 z "},"Ǧ":{"ha":858,"x_min":46,"x_max":813,"o":"m 242 1235 l 379 1235 l 486 1060 l 593 1235 l 732 1235 l 558 974 l 415 974 l 242 1235 m 490 -21 q 247 38 347 -21 q 97 202 147 97 q 46 444 46 307 q 93 690 46 583 q 238 858 140 797 q 482 919 336 919 q 655 901 582 919 q 783 842 728 882 l 783 700 l 636 700 l 636 786 q 482 817 576 817 q 267 718 343 817 q 190 444 190 619 q 271 178 190 274 q 496 82 351 82 q 667 111 593 82 l 667 371 l 474 371 l 474 474 l 813 474 l 813 67 q 667 0 744 21 q 490 -21 589 -21 z "},"Ĝ":{"ha":858,"x_min":46,"x_max":813,"o":"m 388 1235 l 531 1235 l 704 974 l 565 974 l 458 1149 l 351 974 l 214 974 l 388 1235 m 490 -21 q 247 38 347 -21 q 97 202 147 97 q 46 444 46 307 q 93 690 46 583 q 238 858 140 797 q 482 919 336 919 q 655 901 582 919 q 783 842 728 882 l 783 700 l 636 700 l 636 786 q 482 817 576 817 q 267 718 343 817 q 190 444 190 619 q 271 178 190 274 q 496 82 351 82 q 667 111 593 82 l 667 371 l 474 371 l 474 474 l 813 474 l 813 67 q 667 0 744 21 q 490 -21 589 -21 z "},"Ģ":{"ha":858,"x_min":46,"x_max":813,"o":"m 490 -21 q 247 38 347 -21 q 97 202 147 97 q 46 444 46 307 q 93 690 46 583 q 238 858 140 797 q 482 919 336 919 q 655 901 582 919 q 783 842 728 882 l 783 700 l 636 700 l 636 786 q 482 817 576 817 q 267 718 343 817 q 190 444 190 619 q 271 178 190 274 q 496 82 351 82 q 667 111 593 82 l 667 371 l 474 371 l 474 474 l 813 474 l 813 67 q 667 0 744 21 q 490 -21 589 -21 m 438 -68 l 599 -68 l 513 -351 l 394 -351 l 438 -68 z "},"Ġ":{"ha":858,"x_min":46,"x_max":813,"o":"m 415 1117 l 543 1117 l 543 983 l 415 983 l 415 1117 m 490 -21 q 247 38 347 -21 q 97 202 147 97 q 46 444 46 307 q 93 690 46 583 q 238 858 140 797 q 482 919 336 919 q 655 901 582 919 q 783 842 728 882 l 783 700 l 636 700 l 636 786 q 482 817 576 817 q 267 718 343 817 q 190 444 190 619 q 271 178 190 274 q 496 82 351 82 q 667 111 593 82 l 667 371 l 474 371 l 474 474 l 813 474 l 813 67 q 667 0 744 21 q 490 -21 589 -21 z "},"Ḡ":{"ha":858,"x_min":46,"x_max":813,"o":"m 265 1097 l 667 1097 l 667 1001 l 265 1001 l 265 1097 m 490 -21 q 247 38 347 -21 q 97 202 147 97 q 46 444 46 307 q 93 690 46 583 q 238 858 140 797 q 482 919 336 919 q 655 901 582 919 q 783 842 728 882 l 783 700 l 636 700 l 636 786 q 482 817 576 817 q 267 718 343 817 q 190 444 190 619 q 271 178 190 274 q 496 82 351 82 q 667 111 593 82 l 667 371 l 474 371 l 474 474 l 813 474 l 813 67 q 667 0 744 21 q 490 -21 589 -21 z "},"H":{"ha":947,"x_min":46,"x_max":901,"o":"m 46 101 l 86 101 q 126 114 114 101 q 138 154 138 126 l 138 746 q 126 784 138 772 q 86 796 114 796 l 46 796 l 46 899 l 369 899 l 369 796 l 335 796 q 297 784 308 796 q 285 746 285 772 l 285 501 l 663 501 l 663 744 q 651 784 663 772 q 613 796 640 796 l 576 796 l 576 899 l 901 899 l 901 796 l 861 796 q 822 784 833 796 q 810 746 810 772 l 810 154 q 822 114 810 126 q 861 101 833 101 l 901 101 l 901 0 l 576 0 l 576 101 l 613 101 q 651 114 639 101 q 663 154 663 126 l 663 400 l 285 400 l 285 154 q 297 114 285 126 q 335 101 308 101 l 369 101 l 369 0 l 46 0 l 46 101 z "},"Ħ":{"ha":947,"x_min":46,"x_max":901,"o":"m 861 796 q 822 784 833 796 q 810 746 810 772 l 810 685 l 901 685 l 901 583 l 810 583 l 810 154 q 822 114 810 126 q 861 101 833 101 l 901 101 l 901 0 l 576 0 l 576 101 l 613 101 q 651 114 639 101 q 663 154 663 126 l 663 400 l 285 400 l 285 154 q 297 114 285 126 q 335 101 308 101 l 369 101 l 369 0 l 46 0 l 46 101 l 86 101 q 126 114 114 101 q 138 154 138 126 l 138 583 l 47 583 l 47 685 l 138 685 l 138 746 q 126 784 138 772 q 86 796 114 796 l 46 796 l 46 899 l 369 899 l 369 796 l 335 796 q 297 784 308 796 q 285 746 285 772 l 285 685 l 663 685 l 663 744 q 651 784 663 772 q 613 796 640 796 l 576 796 l 576 899 l 901 899 l 901 796 l 861 796 m 663 583 l 285 583 l 285 501 l 663 501 l 663 583 z "},"Ḫ":{"ha":947,"x_min":46,"x_max":901,"o":"m 46 101 l 86 101 q 126 114 114 101 q 138 154 138 126 l 138 746 q 126 784 138 772 q 86 796 114 796 l 46 796 l 46 899 l 369 899 l 369 796 l 335 796 q 297 784 308 796 q 285 746 285 772 l 285 501 l 663 501 l 663 744 q 651 784 663 772 q 613 796 640 796 l 576 796 l 576 899 l 901 899 l 901 796 l 861 796 q 822 784 833 796 q 810 746 810 772 l 810 154 q 822 114 810 126 q 861 101 833 101 l 901 101 l 901 0 l 576 0 l 576 101 l 613 101 q 651 114 639 101 q 663 154 663 126 l 663 400 l 285 400 l 285 154 q 297 114 285 126 q 335 101 308 101 l 369 101 l 369 0 l 46 0 l 46 101 m 474 -267 q 313 -212 372 -267 q 253 -67 253 -157 l 374 -67 q 400 -144 374 -117 q 474 -171 426 -171 q 548 -144 522 -171 q 574 -67 574 -117 l 694 -67 q 635 -212 694 -157 q 474 -267 575 -267 z "},"Ĥ":{"ha":947,"x_min":46,"x_max":901,"o":"m 403 1235 l 546 1235 l 719 974 l 581 974 l 474 1149 l 367 974 l 229 974 l 403 1235 m 46 101 l 86 101 q 126 114 114 101 q 138 154 138 126 l 138 746 q 126 784 138 772 q 86 796 114 796 l 46 796 l 46 899 l 369 899 l 369 796 l 335 796 q 297 784 308 796 q 285 746 285 772 l 285 501 l 663 501 l 663 744 q 651 784 663 772 q 613 796 640 796 l 576 796 l 576 899 l 901 899 l 901 796 l 861 796 q 822 784 833 796 q 810 746 810 772 l 810 154 q 822 114 810 126 q 861 101 833 101 l 901 101 l 901 0 l 576 0 l 576 101 l 613 101 q 651 114 639 101 q 663 154 663 126 l 663 400 l 285 400 l 285 154 q 297 114 285 126 q 335 101 308 101 l 369 101 l 369 0 l 46 0 l 46 101 z "},"Ḥ":{"ha":947,"x_min":46,"x_max":901,"o":"m 46 101 l 86 101 q 126 114 114 101 q 138 154 138 126 l 138 746 q 126 784 138 772 q 86 796 114 796 l 46 796 l 46 899 l 369 899 l 369 796 l 335 796 q 297 784 308 796 q 285 746 285 772 l 285 501 l 663 501 l 663 744 q 651 784 663 772 q 613 796 640 796 l 576 796 l 576 899 l 901 899 l 901 796 l 861 796 q 822 784 833 796 q 810 746 810 772 l 810 154 q 822 114 810 126 q 861 101 833 101 l 901 101 l 901 0 l 576 0 l 576 101 l 613 101 q 651 114 639 101 q 663 154 663 126 l 663 400 l 285 400 l 285 154 q 297 114 285 126 q 335 101 308 101 l 369 101 l 369 0 l 46 0 l 46 101 m 393 -86 l 521 -86 l 521 -219 l 393 -219 l 393 -86 z "},"I":{"ha":421,"x_min":46,"x_max":375,"o":"m 46 101 l 86 101 q 126 114 114 101 q 138 154 138 126 l 138 746 q 126 784 138 772 q 86 796 114 796 l 46 796 l 46 899 l 375 899 l 375 796 l 335 796 q 297 784 308 796 q 285 746 285 772 l 285 153 q 297 113 285 125 q 335 101 308 101 l 375 101 l 375 0 l 46 0 l 46 101 z "},"Ĳ":{"ha":1061,"x_min":46,"x_max":1029,"o":"m 46 101 l 86 101 q 126 114 114 101 q 138 154 138 126 l 138 746 q 126 784 138 772 q 86 796 114 796 l 46 796 l 46 899 l 375 899 l 375 796 l 335 796 q 297 784 308 796 q 285 746 285 772 l 285 153 q 297 113 285 125 q 335 101 308 101 l 375 101 l 375 0 l 46 0 l 46 101 m 663 -21 q 390 85 485 -21 l 390 196 l 524 196 l 524 129 q 653 82 569 82 q 758 119 725 82 q 792 231 792 156 l 792 746 q 779 784 792 772 q 740 796 767 796 l 699 796 l 699 899 l 1029 899 l 1029 796 l 989 796 q 950 784 963 796 q 938 746 938 772 l 938 251 q 867 51 938 122 q 663 -21 796 -21 z "},"Í":{"ha":421,"x_min":46,"x_max":431,"o":"m 257 1222 l 431 1222 l 272 974 l 146 974 l 257 1222 m 46 101 l 86 101 q 126 114 114 101 q 138 154 138 126 l 138 746 q 126 784 138 772 q 86 796 114 796 l 46 796 l 46 899 l 375 899 l 375 796 l 335 796 q 297 784 308 796 q 285 746 285 772 l 285 153 q 297 113 285 125 q 335 101 308 101 l 375 101 l 375 0 l 46 0 l 46 101 z "},"Ĭ":{"ha":421,"x_min":-11,"x_max":431,"o":"m 210 974 q 49 1028 108 974 q -11 1172 -11 1082 l 110 1172 q 136 1095 110 1122 q 210 1068 163 1068 q 284 1095 258 1068 q 310 1172 310 1122 l 431 1172 q 371 1028 431 1082 q 210 974 311 974 m 46 101 l 86 101 q 126 114 114 101 q 138 154 138 126 l 138 746 q 126 784 138 772 q 86 796 114 796 l 46 796 l 46 899 l 375 899 l 375 796 l 335 796 q 297 784 308 796 q 285 746 285 772 l 285 153 q 297 113 285 125 q 335 101 308 101 l 375 101 l 375 0 l 46 0 l 46 101 z "},"Ǐ":{"ha":421,"x_min":-35,"x_max":456,"o":"m -35 1235 l 103 1235 l 210 1060 l 317 1235 l 456 1235 l 282 974 l 139 974 l -35 1235 m 46 101 l 86 101 q 126 114 114 101 q 138 154 138 126 l 138 746 q 126 784 138 772 q 86 796 114 796 l 46 796 l 46 899 l 375 899 l 375 796 l 335 796 q 297 784 308 796 q 285 746 285 772 l 285 153 q 297 113 285 125 q 335 101 308 101 l 375 101 l 375 0 l 46 0 l 46 101 z "},"Î":{"ha":421,"x_min":-35,"x_max":456,"o":"m 139 1235 l 282 1235 l 456 974 l 317 974 l 210 1149 l 103 974 l -35 974 l 139 1235 m 46 101 l 86 101 q 126 114 114 101 q 138 154 138 126 l 138 746 q 126 784 138 772 q 86 796 114 796 l 46 796 l 46 899 l 375 899 l 375 796 l 335 796 q 297 784 308 796 q 285 746 285 772 l 285 153 q 297 113 285 125 q 335 101 308 101 l 375 101 l 375 0 l 46 0 l 46 101 z "},"Ï":{"ha":421,"x_min":-3,"x_max":422,"o":"m -3 1147 l 125 1147 l 125 1014 l -3 1014 l -3 1147 m 293 1147 l 422 1147 l 422 1014 l 293 1014 l 293 1147 m 46 101 l 86 101 q 126 114 114 101 q 138 154 138 126 l 138 746 q 126 784 138 772 q 86 796 114 796 l 46 796 l 46 899 l 375 899 l 375 796 l 335 796 q 297 784 308 796 q 285 746 285 772 l 285 153 q 297 113 285 125 q 335 101 308 101 l 375 101 l 375 0 l 46 0 l 46 101 z "},"İ":{"ha":421,"x_min":46,"x_max":375,"o":"m 146 1135 l 274 1135 l 274 1001 l 146 1001 l 146 1135 m 46 101 l 86 101 q 126 114 114 101 q 138 154 138 126 l 138 746 q 126 784 138 772 q 86 796 114 796 l 46 796 l 46 899 l 375 899 l 375 796 l 335 796 q 297 784 308 796 q 285 746 285 772 l 285 153 q 297 113 285 125 q 335 101 308 101 l 375 101 l 375 0 l 46 0 l 46 101 z "},"Ị":{"ha":421,"x_min":46,"x_max":375,"o":"m 46 101 l 86 101 q 126 114 114 101 q 138 154 138 126 l 138 746 q 126 784 138 772 q 86 796 114 796 l 46 796 l 46 899 l 375 899 l 375 796 l 335 796 q 297 784 308 796 q 285 746 285 772 l 285 153 q 297 113 285 125 q 335 101 308 101 l 375 101 l 375 0 l 46 0 l 46 101 m 146 -86 l 274 -86 l 274 -219 l 146 -219 l 146 -86 z "},"Ì":{"ha":421,"x_min":-1,"x_max":375,"o":"m -1 1222 l 174 1222 l 285 974 l 157 974 l -1 1222 m 46 101 l 86 101 q 126 114 114 101 q 138 154 138 126 l 138 746 q 126 784 138 772 q 86 796 114 796 l 46 796 l 46 899 l 375 899 l 375 796 l 335 796 q 297 784 308 796 q 285 746 285 772 l 285 153 q 297 113 285 125 q 335 101 308 101 l 375 101 l 375 0 l 46 0 l 46 101 z "},"Ỉ":{"ha":421,"x_min":46,"x_max":375,"o":"m 150 1064 q 217 1079 197 1064 q 236 1124 236 1094 q 221 1161 236 1150 q 168 1172 206 1172 q 100 1160 132 1172 l 100 1242 q 200 1257 140 1257 q 360 1140 360 1257 q 269 1029 360 1054 l 269 974 l 150 974 l 150 1064 m 46 101 l 86 101 q 126 114 114 101 q 138 154 138 126 l 138 746 q 126 784 138 772 q 86 796 114 796 l 46 796 l 46 899 l 375 899 l 375 796 l 335 796 q 297 784 308 796 q 285 746 285 772 l 285 153 q 297 113 285 125 q 335 101 308 101 l 375 101 l 375 0 l 46 0 l 46 101 z "},"Ī":{"ha":421,"x_min":8,"x_max":411,"o":"m 8 1097 l 411 1097 l 411 1001 l 8 1001 l 8 1097 m 46 101 l 86 101 q 126 114 114 101 q 138 154 138 126 l 138 746 q 126 784 138 772 q 86 796 114 796 l 46 796 l 46 899 l 375 899 l 375 796 l 335 796 q 297 784 308 796 q 285 746 285 772 l 285 153 q 297 113 285 125 q 335 101 308 101 l 375 101 l 375 0 l 46 0 l 46 101 z "},"Į":{"ha":421,"x_min":46,"x_max":375,"o":"m 335 796 q 297 784 308 796 q 285 746 285 772 l 285 153 q 297 113 285 125 q 335 101 308 101 l 375 101 l 375 0 l 279 0 q 227 -60 244 -29 q 210 -126 210 -90 q 261 -190 210 -190 q 319 -179 289 -190 l 319 -265 q 228 -290 285 -290 q 125 -256 164 -290 q 86 -154 86 -222 q 105 -69 86 -110 q 157 0 124 -29 l 46 0 l 46 101 l 86 101 q 126 114 114 101 q 138 154 138 126 l 138 746 q 126 784 138 772 q 86 796 114 796 l 46 796 l 46 899 l 375 899 l 375 796 l 335 796 z "},"Ĩ":{"ha":421,"x_min":-61,"x_max":481,"o":"m -61 974 q -24 1117 -61 1071 q 90 1164 13 1164 q 157 1153 126 1164 q 222 1121 188 1142 q 272 1097 253 1104 q 311 1089 290 1089 q 358 1106 343 1089 q 372 1164 372 1122 l 481 1164 q 444 1019 481 1064 q 332 974 408 974 q 267 985 296 974 q 203 1015 238 996 q 153 1039 174 1031 q 110 1047 132 1047 q 63 1031 78 1047 q 47 974 47 1014 l -61 974 m 46 101 l 86 101 q 126 114 114 101 q 138 154 138 126 l 138 746 q 126 784 138 772 q 86 796 114 796 l 46 796 l 46 899 l 375 899 l 375 796 l 335 796 q 297 784 308 796 q 285 746 285 772 l 285 153 q 297 113 285 125 q 335 101 308 101 l 375 101 l 375 0 l 46 0 l 46 101 z "},"J":{"ha":689,"x_min":4,"x_max":643,"o":"m 276 -21 q 4 85 99 -21 l 4 196 l 138 196 l 138 129 q 267 82 183 82 q 372 119 339 82 q 406 231 406 156 l 406 746 q 393 784 406 772 q 354 796 381 796 l 313 796 l 313 899 l 643 899 l 643 796 l 603 796 q 564 784 576 796 q 551 746 551 772 l 551 251 q 481 51 551 122 q 276 -21 410 -21 z "},"Ĵ":{"ha":689,"x_min":4,"x_max":703,"o":"m 386 1235 l 529 1235 l 703 974 l 564 974 l 457 1149 l 350 974 l 213 974 l 386 1235 m 276 -21 q 4 85 99 -21 l 4 196 l 138 196 l 138 129 q 267 82 183 82 q 372 119 339 82 q 406 231 406 156 l 406 746 q 393 784 406 772 q 354 796 381 796 l 313 796 l 313 899 l 643 899 l 643 796 l 603 796 q 564 784 576 796 q 551 746 551 772 l 551 251 q 481 51 551 122 q 276 -21 410 -21 z "},"K":{"ha":900,"x_min":46,"x_max":854,"o":"m 46 103 l 86 103 q 126 115 114 103 q 138 153 138 126 l 138 747 q 126 785 138 774 q 86 797 114 797 l 54 797 l 54 899 l 356 899 l 356 797 l 331 797 q 295 785 306 797 q 285 747 285 772 l 285 453 l 606 797 l 535 797 l 535 899 l 840 899 l 840 792 l 789 792 q 747 783 763 792 q 713 754 732 775 l 488 517 l 733 144 q 765 113 749 122 q 808 103 782 103 l 854 103 l 854 0 l 535 0 l 535 103 l 613 103 l 400 425 l 285 301 l 285 153 q 295 115 285 128 q 333 103 306 103 l 364 103 l 364 0 l 46 0 l 46 103 z "},"Ķ":{"ha":900,"x_min":46,"x_max":854,"o":"m 46 103 l 86 103 q 126 115 114 103 q 138 153 138 126 l 138 747 q 126 785 138 774 q 86 797 114 797 l 54 797 l 54 899 l 356 899 l 356 797 l 331 797 q 295 785 306 797 q 285 747 285 772 l 285 453 l 606 797 l 535 797 l 535 899 l 840 899 l 840 792 l 789 792 q 747 783 763 792 q 713 754 732 775 l 488 517 l 733 144 q 765 113 749 122 q 808 103 782 103 l 854 103 l 854 0 l 535 0 l 535 103 l 613 103 l 400 425 l 285 301 l 285 153 q 295 115 285 128 q 333 103 306 103 l 364 103 l 364 0 l 46 0 l 46 103 m 375 -68 l 536 -68 l 450 -351 l 332 -351 l 375 -68 z "},"L":{"ha":707,"x_min":46,"x_max":703,"o":"m 46 100 l 75 100 q 117 113 106 100 q 129 153 129 125 l 129 747 q 117 785 129 774 q 78 797 106 797 l 46 797 l 46 899 l 360 899 l 360 797 l 326 797 q 288 785 300 797 q 276 747 276 774 l 276 100 l 517 100 q 557 112 544 100 q 569 151 569 124 l 569 196 l 703 196 l 703 0 l 46 0 l 46 100 z "},"Ĺ":{"ha":707,"x_min":46,"x_max":703,"o":"m 213 1222 l 386 1222 l 228 974 l 101 974 l 213 1222 m 46 100 l 75 100 q 117 113 106 100 q 129 153 129 125 l 129 747 q 117 785 129 774 q 78 797 106 797 l 46 797 l 46 899 l 360 899 l 360 797 l 326 797 q 288 785 300 797 q 276 747 276 774 l 276 100 l 517 100 q 557 112 544 100 q 569 151 569 124 l 569 196 l 703 196 l 703 0 l 46 0 l 46 100 z "},"Ľ":{"ha":707,"x_min":46,"x_max":703,"o":"m 535 992 l 696 992 l 610 708 l 492 708 l 535 992 m 46 100 l 75 100 q 117 113 106 100 q 129 153 129 125 l 129 747 q 117 785 129 774 q 78 797 106 797 l 46 797 l 46 899 l 360 899 l 360 797 l 326 797 q 288 785 300 797 q 276 747 276 774 l 276 100 l 517 100 q 557 112 544 100 q 569 151 569 124 l 569 196 l 703 196 l 703 0 l 46 0 l 46 100 z "},"Ļ":{"ha":707,"x_min":46,"x_max":703,"o":"m 46 100 l 75 100 q 117 113 106 100 q 129 153 129 125 l 129 747 q 117 785 129 774 q 78 797 106 797 l 46 797 l 46 899 l 360 899 l 360 797 l 326 797 q 288 785 300 797 q 276 747 276 774 l 276 100 l 517 100 q 557 112 544 100 q 569 151 569 124 l 569 196 l 703 196 l 703 0 l 46 0 l 46 100 m 331 -68 l 492 -68 l 406 -351 l 288 -351 l 331 -68 z "},"Ŀ":{"ha":707,"x_min":46,"x_max":703,"o":"m 46 100 l 75 100 q 117 113 106 100 q 129 153 129 125 l 129 747 q 117 785 129 774 q 78 797 106 797 l 46 797 l 46 899 l 360 899 l 360 797 l 326 797 q 288 785 300 797 q 276 747 276 774 l 276 100 l 517 100 q 557 112 544 100 q 569 151 569 124 l 569 196 l 703 196 l 703 0 l 46 0 l 46 100 m 424 532 l 553 532 l 553 399 l 424 399 l 424 532 z "},"Ḷ":{"ha":707,"x_min":46,"x_max":703,"o":"m 46 100 l 75 100 q 117 113 106 100 q 129 153 129 125 l 129 747 q 117 785 129 774 q 78 797 106 797 l 46 797 l 46 899 l 360 899 l 360 797 l 326 797 q 288 785 300 797 q 276 747 276 774 l 276 100 l 517 100 q 557 112 544 100 q 569 151 569 124 l 569 196 l 703 196 l 703 0 l 46 0 l 46 100 m 285 -86 l 413 -86 l 413 -219 l 285 -219 l 285 -86 z "},"Ḹ":{"ha":707,"x_min":11,"x_max":703,"o":"m 11 1089 l 413 1089 l 413 993 l 11 993 l 11 1089 m 46 100 l 75 100 q 117 113 106 100 q 129 153 129 125 l 129 747 q 117 785 129 774 q 78 797 106 797 l 46 797 l 46 899 l 360 899 l 360 797 l 326 797 q 288 785 300 797 q 276 747 276 774 l 276 100 l 517 100 q 557 112 544 100 q 569 151 569 124 l 569 196 l 703 196 l 703 0 l 46 0 l 46 100 m 288 -86 l 415 -86 l 415 -219 l 288 -219 l 288 -86 z "},"Ḻ":{"ha":707,"x_min":46,"x_max":703,"o":"m 46 100 l 75 100 q 117 113 106 100 q 129 153 129 125 l 129 747 q 117 785 129 774 q 78 797 106 797 l 46 797 l 46 899 l 360 899 l 360 797 l 326 797 q 288 785 300 797 q 276 747 276 774 l 276 100 l 517 100 q 557 112 544 100 q 569 151 569 124 l 569 196 l 703 196 l 703 0 l 46 0 l 46 100 m 156 -87 l 557 -87 l 557 -183 l 156 -183 l 156 -87 z "},"Ł":{"ha":707,"x_min":46,"x_max":703,"o":"m 703 196 l 703 0 l 46 0 l 46 100 l 75 100 q 117 113 106 100 q 129 153 129 125 l 129 321 l 47 274 l 47 385 l 129 432 l 129 747 q 117 785 129 774 q 79 797 106 797 l 46 797 l 46 899 l 360 899 l 360 797 l 328 797 q 288 785 300 797 q 276 747 276 774 l 276 517 l 426 603 l 426 492 l 276 406 l 276 100 l 517 100 q 558 112 546 100 q 569 151 569 124 l 569 196 l 703 196 z "},"M":{"ha":1076,"x_min":46,"x_max":1031,"o":"m 46 101 l 86 101 q 126 114 114 101 q 138 154 138 126 l 138 744 q 126 785 138 772 q 86 797 114 797 l 46 797 l 46 899 l 294 899 l 539 333 l 782 899 l 1031 899 l 1031 797 l 989 797 q 951 785 963 797 q 939 744 939 772 l 939 154 q 951 114 939 126 q 989 101 963 101 l 1031 101 l 1031 0 l 701 0 l 701 101 l 743 101 q 781 113 769 101 q 793 153 793 125 l 793 656 l 594 193 l 482 193 l 282 656 l 282 153 q 294 114 282 126 q 333 101 307 101 l 375 101 l 375 0 l 46 0 l 46 101 z "},"Ṃ":{"ha":1076,"x_min":46,"x_max":1031,"o":"m 46 101 l 86 101 q 126 114 114 101 q 138 154 138 126 l 138 744 q 126 785 138 772 q 86 797 114 797 l 46 797 l 46 899 l 294 899 l 539 333 l 782 899 l 1031 899 l 1031 797 l 989 797 q 951 785 963 797 q 939 744 939 772 l 939 154 q 951 114 939 126 q 989 101 963 101 l 1031 101 l 1031 0 l 701 0 l 701 101 l 743 101 q 781 113 769 101 q 793 153 793 125 l 793 656 l 594 193 l 482 193 l 282 656 l 282 153 q 294 114 282 126 q 333 101 307 101 l 375 101 l 375 0 l 46 0 l 46 101 m 475 -86 l 603 -86 l 603 -219 l 475 -219 l 475 -86 z "},"N":{"ha":960,"x_min":46,"x_max":914,"o":"m 46 103 l 86 103 q 126 115 114 103 q 138 153 138 126 l 138 746 q 126 784 138 772 q 86 796 114 796 l 46 796 l 46 899 l 253 899 l 676 242 l 676 746 q 664 784 676 772 q 625 796 651 796 l 583 796 l 583 899 l 914 899 l 914 796 l 872 796 q 834 784 846 796 q 822 746 822 772 l 822 0 l 707 0 l 283 656 l 283 153 q 296 115 283 126 q 335 103 308 103 l 375 103 l 375 0 l 46 0 l 46 103 z "},"Ń":{"ha":960,"x_min":46,"x_max":914,"o":"m 494 1222 l 668 1222 l 510 974 l 383 974 l 494 1222 m 46 103 l 86 103 q 126 115 114 103 q 138 153 138 126 l 138 746 q 126 784 138 772 q 86 796 114 796 l 46 796 l 46 899 l 253 899 l 676 242 l 676 746 q 664 784 676 772 q 625 796 651 796 l 583 796 l 583 899 l 914 899 l 914 796 l 872 796 q 834 784 846 796 q 822 746 822 772 l 822 0 l 707 0 l 283 656 l 283 153 q 296 115 283 126 q 335 103 308 103 l 375 103 l 375 0 l 46 0 l 46 103 z "},"Ň":{"ha":960,"x_min":46,"x_max":914,"o":"m 219 1235 l 357 1235 l 464 1060 l 571 1235 l 710 1235 l 536 974 l 393 974 l 219 1235 m 46 103 l 86 103 q 126 115 114 103 q 138 153 138 126 l 138 746 q 126 784 138 772 q 86 796 114 796 l 46 796 l 46 899 l 253 899 l 676 242 l 676 746 q 664 784 676 772 q 625 796 651 796 l 583 796 l 583 899 l 914 899 l 914 796 l 872 796 q 834 784 846 796 q 822 746 822 772 l 822 0 l 707 0 l 283 656 l 283 153 q 296 115 283 126 q 335 103 308 103 l 375 103 l 375 0 l 46 0 l 46 103 z "},"Ņ":{"ha":960,"x_min":46,"x_max":914,"o":"m 46 103 l 86 103 q 126 115 114 103 q 138 153 138 126 l 138 746 q 126 784 138 772 q 86 796 114 796 l 46 796 l 46 899 l 253 899 l 676 242 l 676 746 q 664 784 676 772 q 625 796 651 796 l 583 796 l 583 899 l 914 899 l 914 796 l 872 796 q 834 784 846 796 q 822 746 822 772 l 822 0 l 707 0 l 283 656 l 283 153 q 296 115 283 126 q 335 103 308 103 l 375 103 l 375 0 l 46 0 l 46 103 m 454 -68 l 615 -68 l 529 -351 l 411 -351 l 454 -68 z "},"Ṅ":{"ha":960,"x_min":46,"x_max":914,"o":"m 419 1133 l 547 1133 l 547 1000 l 419 1000 l 419 1133 m 46 103 l 86 103 q 126 115 114 103 q 138 153 138 126 l 138 746 q 126 784 138 772 q 86 796 114 796 l 46 796 l 46 899 l 253 899 l 676 242 l 676 746 q 664 784 676 772 q 625 796 651 796 l 583 796 l 583 899 l 914 899 l 914 796 l 872 796 q 834 784 846 796 q 822 746 822 772 l 822 0 l 707 0 l 283 656 l 283 153 q 296 115 283 126 q 335 103 308 103 l 375 103 l 375 0 l 46 0 l 46 103 z "},"Ṇ":{"ha":960,"x_min":46,"x_max":914,"o":"m 46 103 l 86 103 q 126 115 114 103 q 138 153 138 126 l 138 746 q 126 784 138 772 q 86 796 114 796 l 46 796 l 46 899 l 253 899 l 676 242 l 676 746 q 664 784 676 772 q 625 796 651 796 l 583 796 l 583 899 l 914 899 l 914 796 l 872 796 q 834 784 846 796 q 822 746 822 772 l 822 0 l 707 0 l 283 656 l 283 153 q 296 115 283 126 q 335 103 308 103 l 375 103 l 375 0 l 46 0 l 46 103 m 431 -86 l 558 -86 l 558 -219 l 431 -219 l 431 -86 z "},"Ŋ":{"ha":960,"x_min":46,"x_max":914,"o":"m 549 -396 q 289 -308 388 -396 l 289 -192 l 415 -192 l 415 -251 q 540 -296 460 -296 q 674 -158 674 -296 l 674 51 l 283 656 l 283 153 q 296 115 283 126 q 335 103 308 103 l 375 103 l 375 0 l 46 0 l 46 103 l 86 103 q 126 115 114 103 q 138 153 138 126 l 138 746 q 126 784 138 772 q 86 796 114 796 l 46 796 l 46 899 l 253 899 l 676 242 l 676 746 q 664 784 676 772 q 625 796 651 796 l 583 796 l 583 899 l 914 899 l 914 796 l 872 796 q 834 784 846 796 q 822 746 822 772 l 822 -140 q 753 -329 822 -262 q 549 -396 683 -396 z "},"Ṉ":{"ha":960,"x_min":46,"x_max":914,"o":"m 46 103 l 86 103 q 126 115 114 103 q 138 153 138 126 l 138 746 q 126 784 138 772 q 86 796 114 796 l 46 796 l 46 899 l 253 899 l 676 242 l 676 746 q 664 784 676 772 q 625 796 651 796 l 583 796 l 583 899 l 914 899 l 914 796 l 872 796 q 834 784 846 796 q 822 746 822 772 l 822 0 l 707 0 l 283 656 l 283 153 q 296 115 283 126 q 335 103 308 103 l 375 103 l 375 0 l 46 0 l 46 103 m 278 -87 l 679 -87 l 679 -183 l 278 -183 l 278 -87 z "},"Ñ":{"ha":960,"x_min":46,"x_max":914,"o":"m 213 974 q 249 1117 213 1071 q 364 1164 286 1164 q 431 1153 400 1164 q 496 1121 461 1142 q 545 1097 526 1104 q 585 1089 564 1089 q 631 1106 617 1089 q 646 1164 646 1122 l 754 1164 q 718 1019 754 1064 q 606 974 682 974 q 540 985 569 974 q 476 1015 511 996 q 426 1039 447 1031 q 383 1047 406 1047 q 336 1031 351 1047 q 321 974 321 1014 l 213 974 m 46 103 l 86 103 q 126 115 114 103 q 138 153 138 126 l 138 746 q 126 784 138 772 q 86 796 114 796 l 46 796 l 46 899 l 253 899 l 676 242 l 676 746 q 664 784 676 772 q 625 796 651 796 l 583 796 l 583 899 l 914 899 l 914 796 l 872 796 q 834 784 846 796 q 822 746 822 772 l 822 0 l 707 0 l 283 656 l 283 153 q 296 115 283 126 q 335 103 308 103 l 375 103 l 375 0 l 46 0 l 46 103 z "},"O":{"ha":915,"x_min":46,"x_max":869,"o":"m 458 -21 q 147 95 249 -21 q 46 446 46 211 q 145 801 46 683 q 458 919 244 919 q 770 801 671 919 q 869 446 869 683 q 768 95 869 211 q 458 -21 667 -21 m 458 82 q 660 167 594 82 q 725 446 725 251 q 660 731 725 644 q 458 817 596 817 q 255 731 319 817 q 190 446 190 644 q 256 167 190 251 q 458 82 321 82 z "},"Ó":{"ha":915,"x_min":46,"x_max":869,"o":"m 472 1222 l 646 1222 l 488 974 l 361 974 l 472 1222 m 458 -21 q 147 95 249 -21 q 46 446 46 211 q 145 801 46 683 q 458 919 244 919 q 770 801 671 919 q 869 446 869 683 q 768 95 869 211 q 458 -21 667 -21 m 458 82 q 660 167 594 82 q 725 446 725 251 q 660 731 725 644 q 458 817 596 817 q 255 731 319 817 q 190 446 190 644 q 256 167 190 251 q 458 82 321 82 z "},"Ŏ":{"ha":915,"x_min":46,"x_max":869,"o":"m 457 974 q 296 1028 356 974 q 236 1172 236 1082 l 357 1172 q 383 1095 357 1122 q 457 1068 410 1068 q 531 1095 506 1068 q 557 1172 557 1122 l 678 1172 q 618 1028 678 1082 q 457 974 558 974 m 458 -21 q 147 95 249 -21 q 46 446 46 211 q 145 801 46 683 q 458 919 244 919 q 770 801 671 919 q 869 446 869 683 q 768 95 869 211 q 458 -21 667 -21 m 458 82 q 660 167 594 82 q 725 446 725 251 q 660 731 725 644 q 458 817 596 817 q 255 731 319 817 q 190 446 190 644 q 256 167 190 251 q 458 82 321 82 z "},"Ǒ":{"ha":915,"x_min":46,"x_max":869,"o":"m 211 1235 l 349 1235 l 456 1060 l 563 1235 l 701 1235 l 528 974 l 385 974 l 211 1235 m 458 -21 q 147 95 249 -21 q 46 446 46 211 q 145 801 46 683 q 458 919 244 919 q 770 801 671 919 q 869 446 869 683 q 768 95 869 211 q 458 -21 667 -21 m 458 82 q 660 167 594 82 q 725 446 725 251 q 660 731 725 644 q 458 817 596 817 q 255 731 319 817 q 190 446 190 644 q 256 167 190 251 q 458 82 321 82 z "},"Ô":{"ha":915,"x_min":46,"x_max":869,"o":"m 385 1235 l 528 1235 l 701 974 l 563 974 l 456 1149 l 349 974 l 211 974 l 385 1235 m 458 -21 q 147 95 249 -21 q 46 446 46 211 q 145 801 46 683 q 458 919 244 919 q 770 801 671 919 q 869 446 869 683 q 768 95 869 211 q 458 -21 667 -21 m 458 82 q 660 167 594 82 q 725 446 725 251 q 660 731 725 644 q 458 817 596 817 q 255 731 319 817 q 190 446 190 644 q 256 167 190 251 q 458 82 321 82 z "},"Ố":{"ha":915,"x_min":46,"x_max":869,"o":"m 685 1301 l 842 1301 l 706 1125 l 597 1125 l 685 1301 m 390 1161 l 529 1161 l 678 974 l 546 974 l 460 1092 l 371 974 l 242 974 l 390 1161 m 458 -21 q 147 95 249 -21 q 46 446 46 211 q 145 801 46 683 q 458 919 244 919 q 770 801 671 919 q 869 446 869 683 q 768 95 869 211 q 458 -21 667 -21 m 458 82 q 660 167 594 82 q 725 446 725 251 q 660 731 725 644 q 458 817 596 817 q 255 731 319 817 q 190 446 190 644 q 256 167 190 251 q 458 82 321 82 z "},"Ộ":{"ha":915,"x_min":46,"x_max":869,"o":"m 386 1235 l 529 1235 l 703 974 l 564 974 l 457 1149 l 350 974 l 213 974 l 386 1235 m 458 -21 q 147 95 249 -21 q 46 446 46 211 q 145 801 46 683 q 458 919 244 919 q 770 801 671 919 q 869 446 869 683 q 768 95 869 211 q 458 -21 667 -21 m 458 82 q 660 167 594 82 q 725 446 725 251 q 660 731 725 644 q 458 817 596 817 q 255 731 319 817 q 190 446 190 644 q 256 167 190 251 q 458 82 321 82 m 393 -86 l 521 -86 l 521 -219 l 393 -219 l 393 -86 z "},"Ồ":{"ha":915,"x_min":46,"x_max":869,"o":"m 56 1301 l 213 1301 l 300 1125 l 192 1125 l 56 1301 m 368 1161 l 507 1161 l 656 974 l 526 974 l 438 1092 l 351 974 l 219 974 l 368 1161 m 458 -21 q 147 95 249 -21 q 46 446 46 211 q 145 801 46 683 q 458 919 244 919 q 770 801 671 919 q 869 446 869 683 q 768 95 869 211 q 458 -21 667 -21 m 458 82 q 660 167 594 82 q 725 446 725 251 q 660 731 725 644 q 458 817 596 817 q 255 731 319 817 q 190 446 190 644 q 256 167 190 251 q 458 82 321 82 z "},"Ổ":{"ha":915,"x_min":46,"x_max":869,"o":"m 543 1213 q 606 1223 589 1213 q 622 1258 622 1233 q 610 1285 622 1276 q 575 1294 597 1294 q 518 1283 549 1294 l 518 1354 q 603 1367 553 1367 q 724 1269 724 1367 q 704 1210 724 1232 q 642 1181 685 1189 l 642 1149 l 543 1149 l 543 1213 m 365 1161 l 506 1161 l 654 974 l 524 974 l 435 1092 l 349 974 l 218 974 l 365 1161 m 458 -21 q 147 95 249 -21 q 46 446 46 211 q 145 801 46 683 q 458 919 244 919 q 770 801 671 919 q 869 446 869 683 q 768 95 869 211 q 458 -21 667 -21 m 458 82 q 660 167 594 82 q 725 446 725 251 q 660 731 725 644 q 458 817 596 817 q 255 731 319 817 q 190 446 190 644 q 256 167 190 251 q 458 82 321 82 z "},"Ỗ":{"ha":915,"x_min":46,"x_max":869,"o":"m 553 1226 q 504 1235 528 1226 q 450 1260 481 1243 q 411 1277 431 1269 q 376 1285 392 1285 q 343 1271 353 1285 q 333 1229 333 1257 l 251 1229 q 280 1333 251 1301 q 368 1365 308 1365 q 417 1357 394 1365 q 471 1332 440 1349 q 490 1322 475 1331 q 518 1310 506 1314 q 540 1307 531 1307 q 573 1321 564 1307 q 582 1363 582 1335 l 664 1363 q 638 1258 664 1290 q 553 1226 611 1226 m 458 974 q 297 1029 361 974 q 232 1181 232 1085 l 336 1181 q 368 1094 336 1125 q 458 1064 400 1064 q 550 1094 518 1064 q 582 1181 582 1125 l 686 1181 q 622 1029 686 1085 q 458 974 557 974 m 458 -21 q 147 95 249 -21 q 46 446 46 211 q 145 801 46 683 q 458 919 244 919 q 770 801 671 919 q 869 446 869 683 q 768 95 869 211 q 458 -21 667 -21 m 458 82 q 660 167 594 82 q 725 446 725 251 q 660 731 725 644 q 458 817 596 817 q 255 731 319 817 q 190 446 190 644 q 256 167 190 251 q 458 82 321 82 z "},"Ö":{"ha":915,"x_min":46,"x_max":869,"o":"m 244 1133 l 372 1133 l 372 1000 l 244 1000 l 244 1133 m 540 1133 l 669 1133 l 669 1000 l 540 1000 l 540 1133 m 458 -21 q 147 95 249 -21 q 46 446 46 211 q 145 801 46 683 q 458 919 244 919 q 770 801 671 919 q 869 446 869 683 q 768 95 869 211 q 458 -21 667 -21 m 458 82 q 660 167 594 82 q 725 446 725 251 q 660 731 725 644 q 458 817 596 817 q 255 731 319 817 q 190 446 190 644 q 256 167 190 251 q 458 82 321 82 z "},"Ọ":{"ha":915,"x_min":46,"x_max":869,"o":"m 458 -21 q 147 95 249 -21 q 46 446 46 211 q 145 801 46 683 q 458 919 244 919 q 770 801 671 919 q 869 446 869 683 q 768 95 869 211 q 458 -21 667 -21 m 458 82 q 660 167 594 82 q 725 446 725 251 q 660 731 725 644 q 458 817 596 817 q 255 731 319 817 q 190 446 190 644 q 256 167 190 251 q 458 82 321 82 m 378 -86 l 506 -86 l 506 -219 l 378 -219 l 378 -86 z "},"Ò":{"ha":915,"x_min":46,"x_max":869,"o":"m 228 1222 l 403 1222 l 514 974 l 386 974 l 228 1222 m 458 -21 q 147 95 249 -21 q 46 446 46 211 q 145 801 46 683 q 458 919 244 919 q 770 801 671 919 q 869 446 869 683 q 768 95 869 211 q 458 -21 667 -21 m 458 82 q 660 167 594 82 q 725 446 725 251 q 660 731 725 644 q 458 817 596 817 q 255 731 319 817 q 190 446 190 644 q 256 167 190 251 q 458 82 321 82 z "},"Ỏ":{"ha":915,"x_min":46,"x_max":869,"o":"m 378 1064 q 444 1079 425 1064 q 464 1124 464 1094 q 449 1161 464 1150 q 396 1172 433 1172 q 328 1160 360 1172 l 328 1242 q 428 1257 368 1257 q 588 1140 588 1257 q 497 1029 588 1054 l 497 974 l 378 974 l 378 1064 m 458 -21 q 147 95 249 -21 q 46 446 46 211 q 145 801 46 683 q 458 919 244 919 q 770 801 671 919 q 869 446 869 683 q 768 95 869 211 q 458 -21 667 -21 m 458 82 q 660 167 594 82 q 725 446 725 251 q 660 731 725 644 q 458 817 596 817 q 255 731 319 817 q 190 446 190 644 q 256 167 190 251 q 458 82 321 82 z "},"Ơ":{"ha":986,"x_min":46,"x_max":989,"o":"m 458 -21 q 147 95 249 -21 q 46 446 46 211 q 145 801 46 683 q 458 919 244 919 q 767 803 667 919 q 828 833 811 808 q 846 907 846 858 l 846 957 l 989 957 l 989 906 q 825 708 989 738 q 869 446 869 607 q 768 95 869 211 q 458 -21 667 -21 m 458 82 q 660 167 594 82 q 725 446 725 251 q 660 731 725 644 q 458 817 596 817 q 255 731 319 817 q 190 446 190 644 q 256 167 190 251 q 458 82 321 82 z "},"Ớ":{"ha":986,"x_min":46,"x_max":989,"o":"m 478 1222 l 651 1222 l 493 974 l 367 974 l 478 1222 m 458 -21 q 147 95 249 -21 q 46 446 46 211 q 145 801 46 683 q 458 919 244 919 q 767 803 667 919 q 828 833 811 808 q 846 907 846 858 l 846 957 l 989 957 l 989 906 q 825 708 989 738 q 869 446 869 607 q 768 95 869 211 q 458 -21 667 -21 m 458 82 q 660 167 594 82 q 725 446 725 251 q 660 731 725 644 q 458 817 596 817 q 255 731 319 817 q 190 446 190 644 q 256 167 190 251 q 458 82 321 82 z "},"Ợ":{"ha":986,"x_min":46,"x_max":989,"o":"m 458 -21 q 147 95 249 -21 q 46 446 46 211 q 145 801 46 683 q 458 919 244 919 q 767 803 667 919 q 828 833 811 808 q 846 907 846 858 l 846 957 l 989 957 l 989 906 q 825 708 989 738 q 869 446 869 607 q 768 95 869 211 q 458 -21 667 -21 m 458 82 q 660 167 594 82 q 725 446 725 251 q 660 731 725 644 q 458 817 596 817 q 255 731 319 817 q 190 446 190 644 q 256 167 190 251 q 458 82 321 82 m 401 -86 l 529 -86 l 529 -219 l 401 -219 l 401 -86 z "},"Ờ":{"ha":986,"x_min":46,"x_max":989,"o":"m 219 1222 l 394 1222 l 506 974 l 378 974 l 219 1222 m 458 -21 q 147 95 249 -21 q 46 446 46 211 q 145 801 46 683 q 458 919 244 919 q 767 803 667 919 q 828 833 811 808 q 846 907 846 858 l 846 957 l 989 957 l 989 906 q 825 708 989 738 q 869 446 869 607 q 768 95 869 211 q 458 -21 667 -21 m 458 82 q 660 167 594 82 q 725 446 725 251 q 660 731 725 644 q 458 817 596 817 q 255 731 319 817 q 190 446 190 644 q 256 167 190 251 q 458 82 321 82 z "},"Ở":{"ha":986,"x_min":46,"x_max":989,"o":"m 386 1064 q 453 1079 433 1064 q 472 1124 472 1094 q 457 1161 472 1150 q 404 1172 442 1172 q 336 1160 368 1172 l 336 1242 q 436 1257 376 1257 q 596 1140 596 1257 q 506 1029 596 1054 l 506 974 l 386 974 l 386 1064 m 458 -21 q 147 95 249 -21 q 46 446 46 211 q 145 801 46 683 q 458 919 244 919 q 767 803 667 919 q 828 833 811 808 q 846 907 846 858 l 846 957 l 989 957 l 989 906 q 825 708 989 738 q 869 446 869 607 q 768 95 869 211 q 458 -21 667 -21 m 458 82 q 660 167 594 82 q 725 446 725 251 q 660 731 725 644 q 458 817 596 817 q 255 731 319 817 q 190 446 190 644 q 256 167 190 251 q 458 82 321 82 z "},"Ỡ":{"ha":986,"x_min":46,"x_max":989,"o":"m 189 974 q 226 1117 189 1071 q 340 1164 263 1164 q 407 1153 376 1164 q 472 1121 438 1142 q 522 1097 503 1104 q 561 1089 540 1089 q 608 1106 593 1089 q 622 1164 622 1122 l 731 1164 q 694 1019 731 1064 q 582 974 658 974 q 517 985 546 974 q 453 1015 488 996 q 403 1039 424 1031 q 360 1047 382 1047 q 313 1031 328 1047 q 297 974 297 1014 l 189 974 m 458 -21 q 147 95 249 -21 q 46 446 46 211 q 145 801 46 683 q 458 919 244 919 q 767 803 667 919 q 828 833 811 808 q 846 907 846 858 l 846 957 l 989 957 l 989 906 q 825 708 989 738 q 869 446 869 607 q 768 95 869 211 q 458 -21 667 -21 m 458 82 q 660 167 594 82 q 725 446 725 251 q 660 731 725 644 q 458 817 596 817 q 255 731 319 817 q 190 446 190 644 q 256 167 190 251 q 458 82 321 82 z "},"Ő":{"ha":915,"x_min":46,"x_max":869,"o":"m 339 1233 l 517 1233 l 350 972 l 218 972 l 339 1233 m 615 1233 l 794 1233 l 626 972 l 496 972 l 615 1233 m 458 -21 q 147 95 249 -21 q 46 446 46 211 q 145 801 46 683 q 458 919 244 919 q 770 801 671 919 q 869 446 869 683 q 768 95 869 211 q 458 -21 667 -21 m 458 82 q 660 167 594 82 q 725 446 725 251 q 660 731 725 644 q 458 817 596 817 q 255 731 319 817 q 190 446 190 644 q 256 167 190 251 q 458 82 321 82 z "},"Ō":{"ha":915,"x_min":46,"x_max":869,"o":"m 256 1097 l 657 1097 l 657 1001 l 256 1001 l 256 1097 m 458 -21 q 147 95 249 -21 q 46 446 46 211 q 145 801 46 683 q 458 919 244 919 q 770 801 671 919 q 869 446 869 683 q 768 95 869 211 q 458 -21 667 -21 m 458 82 q 660 167 594 82 q 725 446 725 251 q 660 731 725 644 q 458 817 596 817 q 255 731 319 817 q 190 446 190 644 q 256 167 190 251 q 458 82 321 82 z "},"Ø":{"ha":915,"x_min":46,"x_max":869,"o":"m 250 19 q 96 173 146 67 q 46 446 46 279 q 145 801 46 683 q 458 919 244 919 q 578 907 524 919 l 597 957 l 674 957 l 647 888 q 815 732 761 842 q 869 446 869 622 q 768 95 869 211 q 458 -21 667 -21 q 317 -4 379 -21 l 297 -60 l 221 -60 l 250 19 m 542 807 q 458 817 497 817 q 255 731 319 817 q 190 446 190 644 q 215 250 190 326 q 292 133 240 174 l 542 807 m 458 82 q 660 167 594 82 q 725 446 725 251 q 696 660 725 579 q 607 779 667 742 l 354 97 q 458 82 396 82 z "},"Ǿ":{"ha":915,"x_min":46,"x_max":869,"o":"m 504 1222 l 679 1222 l 519 974 l 394 974 l 504 1222 m 250 19 q 96 173 146 67 q 46 446 46 279 q 145 801 46 683 q 458 919 244 919 q 578 907 524 919 l 597 957 l 674 957 l 647 888 q 815 732 761 842 q 869 446 869 622 q 768 95 869 211 q 458 -21 667 -21 q 317 -4 379 -21 l 297 -60 l 221 -60 l 250 19 m 542 807 q 458 817 497 817 q 255 731 319 817 q 190 446 190 644 q 215 250 190 326 q 292 133 240 174 l 542 807 m 458 82 q 660 167 594 82 q 725 446 725 251 q 696 660 725 579 q 607 779 667 742 l 354 97 q 458 82 396 82 z "},"Õ":{"ha":915,"x_min":46,"x_max":869,"o":"m 185 974 q 222 1117 185 1071 q 336 1164 258 1164 q 403 1153 372 1164 q 468 1121 433 1142 q 517 1097 499 1104 q 557 1089 536 1089 q 603 1106 589 1089 q 618 1164 618 1122 l 726 1164 q 690 1019 726 1064 q 578 974 654 974 q 513 985 542 974 q 449 1015 483 996 q 399 1039 419 1031 q 356 1047 378 1047 q 308 1031 324 1047 q 293 974 293 1014 l 185 974 m 458 -21 q 147 95 249 -21 q 46 446 46 211 q 145 801 46 683 q 458 919 244 919 q 770 801 671 919 q 869 446 869 683 q 768 95 869 211 q 458 -21 667 -21 m 458 82 q 660 167 594 82 q 725 446 725 251 q 660 731 725 644 q 458 817 596 817 q 255 731 319 817 q 190 446 190 644 q 256 167 190 251 q 458 82 321 82 z "},"Œ":{"ha":1122,"x_min":46,"x_max":1076,"o":"m 481 0 q 156 108 265 0 q 46 446 46 215 q 153 789 46 679 q 481 899 260 899 l 1076 899 l 1076 719 l 943 719 l 943 747 q 931 785 943 774 q 890 797 918 797 l 672 797 l 672 501 l 889 501 l 889 399 l 672 399 l 672 101 l 890 101 q 931 113 918 101 q 943 153 943 125 l 943 181 l 1076 181 l 1076 0 l 481 0 m 525 100 l 525 797 l 446 797 q 256 713 322 797 q 190 446 190 629 q 446 100 190 100 l 525 100 z "},"P":{"ha":864,"x_min":46,"x_max":818,"o":"m 46 101 l 83 101 q 126 114 114 101 q 138 153 138 126 l 138 746 q 126 784 138 772 q 83 796 114 796 l 46 796 l 46 899 l 522 899 q 740 827 661 899 q 818 622 818 756 q 738 412 818 489 q 521 335 658 335 l 285 335 l 285 153 q 297 114 285 126 q 339 101 308 101 l 375 101 l 375 0 l 46 0 l 46 101 m 501 438 q 631 483 589 438 q 674 622 674 528 q 633 757 674 718 q 501 796 593 796 l 285 796 l 285 438 l 501 438 z "},"Þ":{"ha":863,"x_min":46,"x_max":817,"o":"m 46 101 l 83 101 q 122 113 110 101 q 135 140 133 124 q 138 193 138 157 l 138 746 q 126 785 138 772 q 83 797 114 797 l 46 797 l 46 899 l 285 899 l 285 753 l 501 753 q 739 685 661 753 q 817 476 817 618 q 740 267 817 344 q 521 190 663 190 l 285 190 l 285 151 q 297 113 285 125 q 339 101 308 101 l 375 101 l 375 0 l 46 0 l 46 101 m 501 293 q 631 338 589 293 q 674 476 674 382 q 633 611 674 572 q 501 650 593 650 l 285 650 l 285 293 l 501 293 z "},"Q":{"ha":915,"x_min":46,"x_max":869,"o":"m 625 -201 q 469 -150 525 -201 q 400 -18 413 -99 q 135 119 224 -3 q 46 446 46 240 q 147 794 46 669 q 458 918 247 918 q 769 794 668 918 q 869 446 869 669 q 781 120 869 242 q 518 -18 693 -1 q 552 -81 525 -62 q 626 -99 579 -99 q 682 -92 661 -99 q 719 -71 703 -86 l 719 -33 l 833 -33 l 833 -115 q 625 -201 771 -201 m 458 82 q 725 446 725 82 q 458 815 725 815 q 190 446 190 815 q 458 82 190 82 z "},"R":{"ha":864,"x_min":46,"x_max":818,"o":"m 46 101 l 83 101 q 126 114 114 101 q 138 153 138 126 l 138 746 q 126 784 138 772 q 83 796 114 796 l 46 796 l 46 899 l 500 899 q 718 830 640 899 q 796 635 796 761 q 739 462 796 531 q 578 374 682 393 l 700 146 q 733 111 714 121 q 781 101 751 101 l 818 101 l 818 0 l 514 0 l 514 101 l 581 101 l 442 360 l 285 360 l 285 150 q 295 113 285 124 q 333 101 306 101 l 365 101 l 365 0 l 46 0 l 46 101 m 478 463 q 609 507 565 463 q 653 635 653 551 q 611 758 653 721 q 478 796 569 796 l 285 796 l 285 463 l 478 463 z "},"Ŕ":{"ha":864,"x_min":46,"x_max":818,"o":"m 418 1222 l 592 1222 l 433 974 l 307 974 l 418 1222 m 46 101 l 83 101 q 126 114 114 101 q 138 153 138 126 l 138 746 q 126 784 138 772 q 83 796 114 796 l 46 796 l 46 899 l 500 899 q 718 830 640 899 q 796 635 796 761 q 739 462 796 531 q 578 374 682 393 l 700 146 q 733 111 714 121 q 781 101 751 101 l 818 101 l 818 0 l 514 0 l 514 101 l 581 101 l 442 360 l 285 360 l 285 150 q 295 113 285 124 q 333 101 306 101 l 365 101 l 365 0 l 46 0 l 46 101 m 478 463 q 609 507 565 463 q 653 635 653 551 q 611 758 653 721 q 478 796 569 796 l 285 796 l 285 463 l 478 463 z "},"Ř":{"ha":864,"x_min":46,"x_max":818,"o":"m 174 1235 l 311 1235 l 418 1060 l 525 1235 l 664 1235 l 490 974 l 347 974 l 174 1235 m 46 101 l 83 101 q 126 114 114 101 q 138 153 138 126 l 138 746 q 126 784 138 772 q 83 796 114 796 l 46 796 l 46 899 l 500 899 q 718 830 640 899 q 796 635 796 761 q 739 462 796 531 q 578 374 682 393 l 700 146 q 733 111 714 121 q 781 101 751 101 l 818 101 l 818 0 l 514 0 l 514 101 l 581 101 l 442 360 l 285 360 l 285 150 q 295 113 285 124 q 333 101 306 101 l 365 101 l 365 0 l 46 0 l 46 101 m 478 463 q 609 507 565 463 q 653 635 653 551 q 611 758 653 721 q 478 796 569 796 l 285 796 l 285 463 l 478 463 z "},"Ŗ":{"ha":864,"x_min":46,"x_max":818,"o":"m 46 101 l 83 101 q 126 114 114 101 q 138 153 138 126 l 138 746 q 126 784 138 772 q 83 796 114 796 l 46 796 l 46 899 l 500 899 q 718 830 640 899 q 796 635 796 761 q 739 462 796 531 q 578 374 682 393 l 700 146 q 733 111 714 121 q 781 101 751 101 l 818 101 l 818 0 l 514 0 l 514 101 l 581 101 l 442 360 l 285 360 l 285 150 q 295 113 285 124 q 333 101 306 101 l 365 101 l 365 0 l 46 0 l 46 101 m 478 463 q 609 507 565 463 q 653 635 653 551 q 611 758 653 721 q 478 796 569 796 l 285 796 l 285 463 l 478 463 m 396 -68 l 557 -68 l 471 -351 l 353 -351 l 396 -68 z "},"Ṛ":{"ha":864,"x_min":46,"x_max":818,"o":"m 46 101 l 83 101 q 126 114 114 101 q 138 153 138 126 l 138 746 q 126 784 138 772 q 83 796 114 796 l 46 796 l 46 899 l 500 899 q 718 830 640 899 q 796 635 796 761 q 739 462 796 531 q 578 374 682 393 l 700 146 q 733 111 714 121 q 781 101 751 101 l 818 101 l 818 0 l 514 0 l 514 101 l 581 101 l 442 360 l 285 360 l 285 150 q 295 113 285 124 q 333 101 306 101 l 365 101 l 365 0 l 46 0 l 46 101 m 478 463 q 609 507 565 463 q 653 635 653 551 q 611 758 653 721 q 478 796 569 796 l 285 796 l 285 463 l 478 463 m 360 -86 l 488 -86 l 488 -219 l 360 -219 l 360 -86 z "},"Ṝ":{"ha":864,"x_min":46,"x_max":818,"o":"m 201 1097 l 603 1097 l 603 1001 l 201 1001 l 201 1097 m 46 101 l 83 101 q 126 114 114 101 q 138 153 138 126 l 138 746 q 126 784 138 772 q 83 796 114 796 l 46 796 l 46 899 l 500 899 q 718 830 640 899 q 796 635 796 761 q 739 462 796 531 q 578 374 682 393 l 700 146 q 733 111 714 121 q 781 101 751 101 l 818 101 l 818 0 l 514 0 l 514 101 l 581 101 l 442 360 l 285 360 l 285 150 q 295 113 285 124 q 333 101 306 101 l 365 101 l 365 0 l 46 0 l 46 101 m 478 463 q 609 507 565 463 q 653 635 653 551 q 611 758 653 721 q 478 796 569 796 l 285 796 l 285 463 l 478 463 m 360 -86 l 488 -86 l 488 -219 l 360 -219 l 360 -86 z "},"Ṟ":{"ha":864,"x_min":46,"x_max":818,"o":"m 46 101 l 83 101 q 126 114 114 101 q 138 153 138 126 l 138 746 q 126 784 138 772 q 83 796 114 796 l 46 796 l 46 899 l 500 899 q 718 830 640 899 q 796 635 796 761 q 739 462 796 531 q 578 374 682 393 l 700 146 q 733 111 714 121 q 781 101 751 101 l 818 101 l 818 0 l 514 0 l 514 101 l 581 101 l 442 360 l 285 360 l 285 150 q 295 113 285 124 q 333 101 306 101 l 365 101 l 365 0 l 46 0 l 46 101 m 478 463 q 609 507 565 463 q 653 635 653 551 q 611 758 653 721 q 478 796 569 796 l 285 796 l 285 463 l 478 463 m 217 -87 l 618 -87 l 618 -183 l 217 -183 l 217 -87 z "},"S":{"ha":742,"x_min":46,"x_max":696,"o":"m 381 -21 q 196 7 283 -21 q 46 82 108 35 l 46 218 l 194 218 l 194 128 q 280 94 229 107 q 383 82 331 82 q 510 117 467 82 q 553 218 553 153 q 530 294 553 264 q 465 347 507 325 q 350 399 424 369 q 185 475 247 439 q 88 560 122 511 q 54 681 54 610 q 144 859 54 799 q 376 919 235 919 q 547 893 469 919 q 679 824 624 867 l 679 694 l 531 694 l 531 781 q 369 817 469 817 q 243 785 289 817 q 197 685 197 753 q 226 606 197 638 q 293 556 256 574 q 410 506 331 538 q 572 432 515 464 q 663 351 629 400 q 696 224 696 301 q 659 98 696 153 q 551 11 622 43 q 381 -21 481 -21 z "},"Ś":{"ha":742,"x_min":46,"x_max":696,"o":"m 393 1222 l 567 1222 l 408 974 l 282 974 l 393 1222 m 381 -21 q 196 7 283 -21 q 46 82 108 35 l 46 218 l 194 218 l 194 128 q 280 94 229 107 q 383 82 331 82 q 510 117 467 82 q 553 218 553 153 q 530 294 553 264 q 465 347 507 325 q 350 399 424 369 q 185 475 247 439 q 88 560 122 511 q 54 681 54 610 q 144 859 54 799 q 376 919 235 919 q 547 893 469 919 q 679 824 624 867 l 679 694 l 531 694 l 531 781 q 369 817 469 817 q 243 785 289 817 q 197 685 197 753 q 226 606 197 638 q 293 556 256 574 q 410 506 331 538 q 572 432 515 464 q 663 351 629 400 q 696 224 696 301 q 659 98 696 153 q 551 11 622 43 q 381 -21 481 -21 z "},"Š":{"ha":742,"x_min":46,"x_max":696,"o":"m 135 1235 l 272 1235 l 379 1060 l 486 1235 l 625 1235 l 451 974 l 308 974 l 135 1235 m 381 -21 q 196 7 283 -21 q 46 82 108 35 l 46 218 l 194 218 l 194 128 q 280 94 229 107 q 383 82 331 82 q 510 117 467 82 q 553 218 553 153 q 530 294 553 264 q 465 347 507 325 q 350 399 424 369 q 185 475 247 439 q 88 560 122 511 q 54 681 54 610 q 144 859 54 799 q 376 919 235 919 q 547 893 469 919 q 679 824 624 867 l 679 694 l 531 694 l 531 781 q 369 817 469 817 q 243 785 289 817 q 197 685 197 753 q 226 606 197 638 q 293 556 256 574 q 410 506 331 538 q 572 432 515 464 q 663 351 629 400 q 696 224 696 301 q 659 98 696 153 q 551 11 622 43 q 381 -21 481 -21 z "},"Ş":{"ha":742,"x_min":46,"x_max":696,"o":"m 696 224 q 628 60 696 126 q 435 -18 560 -6 l 428 -64 q 513 -103 488 -74 q 539 -185 539 -133 q 492 -283 539 -249 q 350 -317 444 -317 q 246 -299 294 -317 l 246 -212 q 338 -231 289 -231 q 415 -181 415 -231 q 390 -129 415 -144 q 289 -114 364 -114 l 303 -17 q 161 19 228 -7 q 46 82 94 44 l 46 218 l 194 218 l 194 128 q 280 94 229 107 q 383 82 331 82 q 510 117 467 82 q 553 218 553 153 q 530 294 553 264 q 465 347 507 325 q 350 399 424 369 q 185 475 247 439 q 88 560 122 511 q 54 681 54 610 q 144 859 54 799 q 376 919 235 919 q 547 893 469 919 q 679 824 624 867 l 679 694 l 531 694 l 531 781 q 369 817 469 817 q 243 785 289 817 q 197 685 197 753 q 226 606 197 638 q 293 556 256 574 q 410 506 331 538 q 572 432 515 464 q 663 351 629 400 q 696 224 696 301 z "},"Ŝ":{"ha":742,"x_min":46,"x_max":696,"o":"m 304 1235 l 447 1235 l 621 974 l 482 974 l 375 1149 l 268 974 l 131 974 l 304 1235 m 381 -21 q 196 7 283 -21 q 46 82 108 35 l 46 218 l 194 218 l 194 128 q 280 94 229 107 q 383 82 331 82 q 510 117 467 82 q 553 218 553 153 q 530 294 553 264 q 465 347 507 325 q 350 399 424 369 q 185 475 247 439 q 88 560 122 511 q 54 681 54 610 q 144 859 54 799 q 376 919 235 919 q 547 893 469 919 q 679 824 624 867 l 679 694 l 531 694 l 531 781 q 369 817 469 817 q 243 785 289 817 q 197 685 197 753 q 226 606 197 638 q 293 556 256 574 q 410 506 331 538 q 572 432 515 464 q 663 351 629 400 q 696 224 696 301 q 659 98 696 153 q 551 11 622 43 q 381 -21 481 -21 z "},"Ș":{"ha":742,"x_min":46,"x_max":696,"o":"m 381 -21 q 196 7 283 -21 q 46 82 108 35 l 46 218 l 194 218 l 194 128 q 280 94 229 107 q 383 82 331 82 q 510 117 467 82 q 553 218 553 153 q 530 294 553 264 q 465 347 507 325 q 350 399 424 369 q 185 475 247 439 q 88 560 122 511 q 54 681 54 610 q 144 859 54 799 q 376 919 235 919 q 547 893 469 919 q 679 824 624 867 l 679 694 l 531 694 l 531 781 q 369 817 469 817 q 243 785 289 817 q 197 685 197 753 q 226 606 197 638 q 293 556 256 574 q 410 506 331 538 q 572 432 515 464 q 663 351 629 400 q 696 224 696 301 q 659 98 696 153 q 551 11 622 43 q 381 -21 481 -21 m 294 -68 l 479 -68 l 347 -339 l 210 -339 l 294 -68 z "},"Ṡ":{"ha":742,"x_min":46,"x_max":696,"o":"m 311 1133 l 439 1133 l 439 1000 l 311 1000 l 311 1133 m 381 -21 q 196 7 283 -21 q 46 82 108 35 l 46 218 l 194 218 l 194 128 q 280 94 229 107 q 383 82 331 82 q 510 117 467 82 q 553 218 553 153 q 530 294 553 264 q 465 347 507 325 q 350 399 424 369 q 185 475 247 439 q 88 560 122 511 q 54 681 54 610 q 144 859 54 799 q 376 919 235 919 q 547 893 469 919 q 679 824 624 867 l 679 694 l 531 694 l 531 781 q 369 817 469 817 q 243 785 289 817 q 197 685 197 753 q 226 606 197 638 q 293 556 256 574 q 410 506 331 538 q 572 432 515 464 q 663 351 629 400 q 696 224 696 301 q 659 98 696 153 q 551 11 622 43 q 381 -21 481 -21 z "},"Ṣ":{"ha":742,"x_min":46,"x_max":696,"o":"m 381 -21 q 196 7 283 -21 q 46 82 108 35 l 46 218 l 194 218 l 194 128 q 280 94 229 107 q 383 82 331 82 q 510 117 467 82 q 553 218 553 153 q 530 294 553 264 q 465 347 507 325 q 350 399 424 369 q 185 475 247 439 q 88 560 122 511 q 54 681 54 610 q 144 859 54 799 q 376 919 235 919 q 547 893 469 919 q 679 824 624 867 l 679 694 l 531 694 l 531 781 q 369 817 469 817 q 243 785 289 817 q 197 685 197 753 q 226 606 197 638 q 293 556 256 574 q 410 506 331 538 q 572 432 515 464 q 663 351 629 400 q 696 224 696 301 q 659 98 696 153 q 551 11 622 43 q 381 -21 481 -21 m 294 -86 l 422 -86 l 422 -219 l 294 -219 l 294 -86 z "},"ẞ":{"ha":921,"x_min":32,"x_max":875,"o":"m 593 -21 q 390 28 472 -21 l 439 113 q 507 86 474 93 q 583 79 540 79 q 694 125 657 79 q 731 256 731 171 q 692 387 731 349 q 567 425 654 425 l 439 425 l 439 501 l 643 753 q 597 824 643 793 q 471 856 550 856 q 313 801 363 856 q 264 635 264 746 l 264 0 l 32 0 l 32 100 l 67 100 q 101 111 90 100 q 113 139 111 122 q 114 196 114 156 l 114 635 q 201 870 114 782 q 474 958 288 958 q 647 926 575 958 q 755 842 718 894 q 792 728 792 789 l 621 524 q 815 453 756 518 q 875 257 875 388 q 804 56 875 132 q 593 -21 733 -21 z "},"Ə":{"ha":939,"x_min":46,"x_max":893,"o":"m 464 -21 q 151 99 257 -21 q 46 417 46 218 l 46 506 l 749 506 q 669 737 749 657 q 456 817 589 817 q 225 774 304 817 l 225 685 l 76 685 l 76 813 q 244 894 150 868 q 456 919 338 919 q 682 870 583 919 q 837 719 781 821 q 893 465 893 618 q 784 103 893 226 q 464 -21 675 -21 m 464 82 q 679 171 610 82 q 749 401 749 260 l 197 401 q 264 165 197 247 q 464 82 331 82 z "},"T":{"ha":790,"x_min":32,"x_max":758,"o":"m 231 103 l 268 103 q 310 115 299 103 q 322 153 322 126 l 322 794 l 194 794 q 154 783 167 794 q 142 744 142 771 l 142 700 l 32 700 l 32 897 l 758 897 l 758 700 l 649 700 l 649 744 q 637 783 649 772 q 596 794 625 794 l 469 794 l 469 153 q 481 115 469 126 q 524 103 493 103 l 561 103 l 561 0 l 231 0 l 231 103 z "},"Ŧ":{"ha":790,"x_min":32,"x_max":758,"o":"m 758 897 l 758 700 l 649 700 l 649 744 q 637 783 649 772 q 596 794 625 794 l 469 794 l 469 503 l 644 503 l 644 407 l 469 407 l 469 153 q 481 115 469 126 q 524 103 493 103 l 561 103 l 561 0 l 231 0 l 231 103 l 268 103 q 310 115 299 103 q 322 153 322 126 l 322 407 l 169 407 l 169 503 l 322 503 l 322 794 l 194 794 q 154 783 167 794 q 142 744 142 771 l 142 700 l 32 700 l 32 897 l 758 897 z "},"Ť":{"ha":790,"x_min":32,"x_max":758,"o":"m 150 1235 l 288 1235 l 394 1060 l 501 1235 l 640 1235 l 467 974 l 324 974 l 150 1235 m 231 103 l 268 103 q 310 115 299 103 q 322 153 322 126 l 322 794 l 194 794 q 154 783 167 794 q 142 744 142 771 l 142 700 l 32 700 l 32 897 l 758 897 l 758 700 l 649 700 l 649 744 q 637 783 649 772 q 596 794 625 794 l 469 794 l 469 153 q 481 115 469 126 q 524 103 493 103 l 561 103 l 561 0 l 231 0 l 231 103 z "},"Ţ":{"ha":790,"x_min":32,"x_max":758,"o":"m 758 897 l 758 700 l 649 700 l 649 744 q 637 783 649 772 q 596 794 625 794 l 469 794 l 469 153 q 481 115 469 126 q 524 103 493 103 l 561 103 l 561 0 l 436 0 l 426 -64 q 513 -103 486 -74 q 539 -185 539 -133 q 492 -283 539 -249 q 350 -317 444 -317 q 244 -299 293 -317 l 244 -212 q 336 -231 288 -231 q 415 -181 415 -231 q 390 -129 415 -144 q 288 -114 364 -114 l 304 0 l 231 0 l 231 103 l 268 103 q 310 115 299 103 q 322 153 322 126 l 322 794 l 194 794 q 154 783 167 794 q 142 744 142 771 l 142 700 l 32 700 l 32 897 l 758 897 z "},"Ț":{"ha":790,"x_min":32,"x_max":758,"o":"m 231 103 l 268 103 q 310 115 299 103 q 322 153 322 126 l 322 794 l 194 794 q 154 783 167 794 q 142 744 142 771 l 142 700 l 32 700 l 32 897 l 758 897 l 758 700 l 649 700 l 649 744 q 637 783 649 772 q 596 794 625 794 l 469 794 l 469 153 q 481 115 469 126 q 524 103 493 103 l 561 103 l 561 0 l 231 0 l 231 103 m 336 -68 l 497 -68 l 411 -351 l 293 -351 l 336 -68 z "},"Ṭ":{"ha":790,"x_min":32,"x_max":758,"o":"m 231 103 l 268 103 q 310 115 299 103 q 322 153 322 126 l 322 794 l 194 794 q 154 783 167 794 q 142 744 142 771 l 142 700 l 32 700 l 32 897 l 758 897 l 758 700 l 649 700 l 649 744 q 637 783 649 772 q 596 794 625 794 l 469 794 l 469 153 q 481 115 469 126 q 524 103 493 103 l 561 103 l 561 0 l 231 0 l 231 103 m 315 -86 l 443 -86 l 443 -219 l 315 -219 l 315 -86 z "},"Ṯ":{"ha":790,"x_min":32,"x_max":758,"o":"m 231 103 l 268 103 q 310 115 299 103 q 322 153 322 126 l 322 794 l 194 794 q 154 783 167 794 q 142 744 142 771 l 142 700 l 32 700 l 32 897 l 758 897 l 758 700 l 649 700 l 649 744 q 637 783 649 772 q 596 794 625 794 l 469 794 l 469 153 q 481 115 469 126 q 524 103 493 103 l 561 103 l 561 0 l 231 0 l 231 103 m 182 -87 l 583 -87 l 583 -183 l 182 -183 l 182 -87 z "},"U":{"ha":918,"x_min":32,"x_max":886,"o":"m 458 -21 q 201 53 288 -21 q 115 253 115 126 l 115 749 q 103 787 115 775 q 64 799 92 799 l 32 799 l 32 899 l 339 899 l 339 799 l 313 799 q 274 786 286 799 q 263 746 263 774 l 263 244 q 312 121 263 161 q 458 81 361 81 q 654 244 654 81 l 654 746 q 642 786 654 774 q 603 799 631 799 l 576 799 l 576 899 l 886 899 l 886 799 l 853 799 q 814 787 826 799 q 801 749 801 775 l 801 253 q 715 53 801 126 q 458 -21 629 -21 z "},"Ú":{"ha":918,"x_min":32,"x_max":886,"o":"m 471 1222 l 644 1222 l 486 974 l 360 974 l 471 1222 m 458 -21 q 201 53 288 -21 q 115 253 115 126 l 115 749 q 103 787 115 775 q 64 799 92 799 l 32 799 l 32 899 l 339 899 l 339 799 l 313 799 q 274 786 286 799 q 263 746 263 774 l 263 244 q 312 121 263 161 q 458 81 361 81 q 654 244 654 81 l 654 746 q 642 786 654 774 q 603 799 631 799 l 576 799 l 576 899 l 886 899 l 886 799 l 853 799 q 814 787 826 799 q 801 749 801 775 l 801 253 q 715 53 801 126 q 458 -21 629 -21 z "},"Ŭ":{"ha":918,"x_min":32,"x_max":886,"o":"m 457 974 q 296 1028 356 974 q 236 1172 236 1082 l 357 1172 q 383 1095 357 1122 q 457 1068 410 1068 q 531 1095 506 1068 q 557 1172 557 1122 l 678 1172 q 618 1028 678 1082 q 457 974 558 974 m 458 -21 q 201 53 288 -21 q 115 253 115 126 l 115 749 q 103 787 115 775 q 64 799 92 799 l 32 799 l 32 899 l 339 899 l 339 799 l 313 799 q 274 786 286 799 q 263 746 263 774 l 263 244 q 312 121 263 161 q 458 81 361 81 q 654 244 654 81 l 654 746 q 642 786 654 774 q 603 799 631 799 l 576 799 l 576 899 l 886 899 l 886 799 l 853 799 q 814 787 826 799 q 801 749 801 775 l 801 253 q 715 53 801 126 q 458 -21 629 -21 z "},"Ǔ":{"ha":918,"x_min":32,"x_max":886,"o":"m 214 1235 l 351 1235 l 458 1060 l 565 1235 l 704 1235 l 531 974 l 388 974 l 214 1235 m 458 -21 q 201 53 288 -21 q 115 253 115 126 l 115 749 q 103 787 115 775 q 64 799 92 799 l 32 799 l 32 899 l 339 899 l 339 799 l 313 799 q 274 786 286 799 q 263 746 263 774 l 263 244 q 312 121 263 161 q 458 81 361 81 q 654 244 654 81 l 654 746 q 642 786 654 774 q 603 799 631 799 l 576 799 l 576 899 l 886 899 l 886 799 l 853 799 q 814 787 826 799 q 801 749 801 775 l 801 253 q 715 53 801 126 q 458 -21 629 -21 z "},"Û":{"ha":918,"x_min":32,"x_max":886,"o":"m 388 1235 l 531 1235 l 704 974 l 565 974 l 458 1149 l 351 974 l 214 974 l 388 1235 m 458 -21 q 201 53 288 -21 q 115 253 115 126 l 115 749 q 103 787 115 775 q 64 799 92 799 l 32 799 l 32 899 l 339 899 l 339 799 l 313 799 q 274 786 286 799 q 263 746 263 774 l 263 244 q 312 121 263 161 q 458 81 361 81 q 654 244 654 81 l 654 746 q 642 786 654 774 q 603 799 631 799 l 576 799 l 576 899 l 886 899 l 886 799 l 853 799 q 814 787 826 799 q 801 749 801 775 l 801 253 q 715 53 801 126 q 458 -21 629 -21 z "},"Ü":{"ha":919,"x_min":32,"x_max":886,"o":"m 247 1133 l 375 1133 l 375 1000 l 247 1000 l 247 1133 m 543 1133 l 672 1133 l 672 1000 l 543 1000 l 543 1133 m 458 -21 q 201 53 288 -21 q 115 253 115 126 l 115 749 q 103 787 115 775 q 64 799 92 799 l 32 799 l 32 899 l 339 899 l 339 799 l 313 799 q 274 786 286 799 q 263 746 263 774 l 263 244 q 312 121 263 161 q 458 81 361 81 q 654 244 654 81 l 654 746 q 642 786 654 774 q 603 799 631 799 l 576 799 l 576 899 l 886 899 l 886 799 l 853 799 q 814 787 826 799 q 801 749 801 775 l 801 253 q 715 53 801 126 q 458 -21 629 -21 z "},"Ǘ":{"ha":918,"x_min":32,"x_max":886,"o":"m 496 1344 l 653 1344 l 517 1168 l 408 1168 l 496 1344 m 249 1139 l 376 1139 l 376 1006 l 249 1006 l 249 1139 m 544 1139 l 674 1139 l 674 1006 l 544 1006 l 544 1139 m 458 -21 q 201 53 288 -21 q 115 253 115 126 l 115 749 q 103 787 115 775 q 64 799 92 799 l 32 799 l 32 899 l 339 899 l 339 799 l 313 799 q 274 786 286 799 q 263 746 263 774 l 263 244 q 312 121 263 161 q 458 81 361 81 q 654 244 654 81 l 654 746 q 642 786 654 774 q 603 799 631 799 l 576 799 l 576 899 l 886 899 l 886 799 l 853 799 q 814 787 826 799 q 801 749 801 775 l 801 253 q 715 53 801 126 q 458 -21 629 -21 z "},"Ǚ":{"ha":918,"x_min":32,"x_max":886,"o":"m 239 1356 l 369 1356 l 456 1238 l 544 1356 l 675 1356 l 526 1168 l 386 1168 l 239 1356 m 243 1139 l 372 1139 l 372 1006 l 243 1006 l 243 1139 m 540 1139 l 668 1139 l 668 1006 l 540 1006 l 540 1139 m 458 -21 q 201 53 288 -21 q 115 253 115 126 l 115 749 q 103 787 115 775 q 64 799 92 799 l 32 799 l 32 899 l 339 899 l 339 799 l 313 799 q 274 786 286 799 q 263 746 263 774 l 263 244 q 312 121 263 161 q 458 81 361 81 q 654 244 654 81 l 654 746 q 642 786 654 774 q 603 799 631 799 l 576 799 l 576 899 l 886 899 l 886 799 l 853 799 q 814 787 826 799 q 801 749 801 775 l 801 253 q 715 53 801 126 q 458 -21 629 -21 z "},"Ǜ":{"ha":918,"x_min":32,"x_max":886,"o":"m 264 1344 l 421 1344 l 508 1168 l 400 1168 l 264 1344 m 243 1139 l 372 1139 l 372 1006 l 243 1006 l 243 1139 m 540 1139 l 668 1139 l 668 1006 l 540 1006 l 540 1139 m 458 -21 q 201 53 288 -21 q 115 253 115 126 l 115 749 q 103 787 115 775 q 64 799 92 799 l 32 799 l 32 899 l 339 899 l 339 799 l 313 799 q 274 786 286 799 q 263 746 263 774 l 263 244 q 312 121 263 161 q 458 81 361 81 q 654 244 654 81 l 654 746 q 642 786 654 774 q 603 799 631 799 l 576 799 l 576 899 l 886 899 l 886 799 l 853 799 q 814 787 826 799 q 801 749 801 775 l 801 253 q 715 53 801 126 q 458 -21 629 -21 z "},"Ǖ":{"ha":918,"x_min":32,"x_max":886,"o":"m 257 1318 l 658 1318 l 658 1222 l 257 1222 l 257 1318 m 244 1122 l 372 1122 l 372 989 l 244 989 l 244 1122 m 540 1122 l 669 1122 l 669 989 l 540 989 l 540 1122 m 458 -21 q 201 53 288 -21 q 115 253 115 126 l 115 749 q 103 787 115 775 q 64 799 92 799 l 32 799 l 32 899 l 339 899 l 339 799 l 313 799 q 274 786 286 799 q 263 746 263 774 l 263 244 q 312 121 263 161 q 458 81 361 81 q 654 244 654 81 l 654 746 q 642 786 654 774 q 603 799 631 799 l 576 799 l 576 899 l 886 899 l 886 799 l 853 799 q 814 787 826 799 q 801 749 801 775 l 801 253 q 715 53 801 126 q 458 -21 629 -21 z "},"Ụ":{"ha":918,"x_min":32,"x_max":886,"o":"m 458 -21 q 201 53 288 -21 q 115 253 115 126 l 115 749 q 103 787 115 775 q 64 799 92 799 l 32 799 l 32 899 l 339 899 l 339 799 l 313 799 q 274 786 286 799 q 263 746 263 774 l 263 244 q 312 121 263 161 q 458 81 361 81 q 654 244 654 81 l 654 746 q 642 786 654 774 q 603 799 631 799 l 576 799 l 576 899 l 886 899 l 886 799 l 853 799 q 814 787 826 799 q 801 749 801 775 l 801 253 q 715 53 801 126 q 458 -21 629 -21 m 396 -86 l 524 -86 l 524 -219 l 396 -219 l 396 -86 z "},"Ù":{"ha":918,"x_min":32,"x_max":886,"o":"m 221 1222 l 396 1222 l 507 974 l 379 974 l 221 1222 m 458 -21 q 201 53 288 -21 q 115 253 115 126 l 115 749 q 103 787 115 775 q 64 799 92 799 l 32 799 l 32 899 l 339 899 l 339 799 l 313 799 q 274 786 286 799 q 263 746 263 774 l 263 244 q 312 121 263 161 q 458 81 361 81 q 654 244 654 81 l 654 746 q 642 786 654 774 q 603 799 631 799 l 576 799 l 576 899 l 886 899 l 886 799 l 853 799 q 814 787 826 799 q 801 749 801 775 l 801 253 q 715 53 801 126 q 458 -21 629 -21 z "},"Ủ":{"ha":918,"x_min":32,"x_max":886,"o":"m 356 1064 q 422 1079 403 1064 q 442 1124 442 1094 q 426 1161 442 1150 q 374 1172 411 1172 q 306 1160 338 1172 l 306 1242 q 406 1257 346 1257 q 565 1140 565 1257 q 475 1029 565 1054 l 475 974 l 356 974 l 356 1064 m 458 -21 q 201 53 288 -21 q 115 253 115 126 l 115 749 q 103 787 115 775 q 64 799 92 799 l 32 799 l 32 899 l 339 899 l 339 799 l 313 799 q 274 786 286 799 q 263 746 263 774 l 263 244 q 312 121 263 161 q 458 81 361 81 q 654 244 654 81 l 654 746 q 642 786 654 774 q 603 799 631 799 l 576 799 l 576 899 l 886 899 l 886 799 l 853 799 q 814 787 826 799 q 801 749 801 775 l 801 253 q 715 53 801 126 q 458 -21 629 -21 z "},"Ư":{"ha":1018,"x_min":32,"x_max":1021,"o":"m 458 -21 q 201 53 288 -21 q 115 253 115 126 l 115 749 q 103 787 115 775 q 64 799 92 799 l 32 799 l 32 899 l 339 899 l 339 799 l 313 799 q 274 786 286 799 q 263 746 263 774 l 263 244 q 312 121 263 161 q 458 81 361 81 q 654 244 654 81 l 654 746 q 642 786 654 774 q 603 799 631 799 l 576 799 l 576 899 l 800 899 l 800 806 q 862 833 844 808 q 879 907 879 857 l 879 957 l 1021 957 l 1021 906 q 969 759 1021 813 q 800 700 917 706 l 800 253 q 715 53 800 126 q 458 -21 629 -21 z "},"Ứ":{"ha":1018,"x_min":32,"x_max":1021,"o":"m 475 1222 l 649 1222 l 490 974 l 364 974 l 475 1222 m 458 -21 q 201 53 288 -21 q 115 253 115 126 l 115 749 q 103 787 115 775 q 64 799 92 799 l 32 799 l 32 899 l 339 899 l 339 799 l 313 799 q 274 786 286 799 q 263 746 263 774 l 263 244 q 312 121 263 161 q 458 81 361 81 q 654 244 654 81 l 654 746 q 642 786 654 774 q 603 799 631 799 l 576 799 l 576 899 l 800 899 l 800 806 q 862 833 844 808 q 879 907 879 857 l 879 957 l 1021 957 l 1021 906 q 969 759 1021 813 q 800 700 917 706 l 800 253 q 715 53 800 126 q 458 -21 629 -21 z "},"Ự":{"ha":1018,"x_min":32,"x_max":1021,"o":"m 458 -21 q 201 53 288 -21 q 115 253 115 126 l 115 749 q 103 787 115 775 q 64 799 92 799 l 32 799 l 32 899 l 339 899 l 339 799 l 313 799 q 274 786 286 799 q 263 746 263 774 l 263 244 q 312 121 263 161 q 458 81 361 81 q 654 244 654 81 l 654 746 q 642 786 654 774 q 603 799 631 799 l 576 799 l 576 899 l 800 899 l 800 806 q 862 833 844 808 q 879 907 879 857 l 879 957 l 1021 957 l 1021 906 q 969 759 1021 813 q 800 700 917 706 l 800 253 q 715 53 800 126 q 458 -21 629 -21 m 376 -86 l 504 -86 l 504 -219 l 376 -219 l 376 -86 z "},"Ừ":{"ha":1018,"x_min":32,"x_max":1021,"o":"m 229 1222 l 404 1222 l 515 974 l 388 974 l 229 1222 m 458 -21 q 201 53 288 -21 q 115 253 115 126 l 115 749 q 103 787 115 775 q 64 799 92 799 l 32 799 l 32 899 l 339 899 l 339 799 l 313 799 q 274 786 286 799 q 263 746 263 774 l 263 244 q 312 121 263 161 q 458 81 361 81 q 654 244 654 81 l 654 746 q 642 786 654 774 q 603 799 631 799 l 576 799 l 576 899 l 800 899 l 800 806 q 862 833 844 808 q 879 907 879 857 l 879 957 l 1021 957 l 1021 906 q 969 759 1021 813 q 800 700 917 706 l 800 253 q 715 53 800 126 q 458 -21 629 -21 z "},"Ử":{"ha":1018,"x_min":32,"x_max":1021,"o":"m 382 1064 q 449 1079 429 1064 q 468 1124 468 1094 q 453 1161 468 1150 q 400 1172 438 1172 q 332 1160 364 1172 l 332 1242 q 432 1257 372 1257 q 592 1140 592 1257 q 501 1029 592 1054 l 501 974 l 382 974 l 382 1064 m 458 -21 q 201 53 288 -21 q 115 253 115 126 l 115 749 q 103 787 115 775 q 64 799 92 799 l 32 799 l 32 899 l 339 899 l 339 799 l 313 799 q 274 786 286 799 q 263 746 263 774 l 263 244 q 312 121 263 161 q 458 81 361 81 q 654 244 654 81 l 654 746 q 642 786 654 774 q 603 799 631 799 l 576 799 l 576 899 l 800 899 l 800 806 q 862 833 844 808 q 879 907 879 857 l 879 957 l 1021 957 l 1021 906 q 969 759 1021 813 q 800 700 917 706 l 800 253 q 715 53 800 126 q 458 -21 629 -21 z "},"Ữ":{"ha":1018,"x_min":32,"x_max":1021,"o":"m 186 974 q 223 1117 186 1071 q 338 1164 260 1164 q 404 1153 374 1164 q 469 1121 435 1142 q 519 1097 500 1104 q 558 1089 538 1089 q 605 1106 590 1089 q 619 1164 619 1122 l 728 1164 q 692 1019 728 1064 q 579 974 656 974 q 514 985 543 974 q 450 1015 485 996 q 400 1039 421 1031 q 357 1047 379 1047 q 310 1031 325 1047 q 294 974 294 1014 l 186 974 m 458 -21 q 201 53 288 -21 q 115 253 115 126 l 115 749 q 103 787 115 775 q 64 799 92 799 l 32 799 l 32 899 l 339 899 l 339 799 l 313 799 q 274 786 286 799 q 263 746 263 774 l 263 244 q 312 121 263 161 q 458 81 361 81 q 654 244 654 81 l 654 746 q 642 786 654 774 q 603 799 631 799 l 576 799 l 576 899 l 800 899 l 800 806 q 862 833 844 808 q 879 907 879 857 l 879 957 l 1021 957 l 1021 906 q 969 759 1021 813 q 800 700 917 706 l 800 253 q 715 53 800 126 q 458 -21 629 -21 z "},"Ű":{"ha":918,"x_min":32,"x_max":886,"o":"m 339 1233 l 517 1233 l 350 972 l 218 972 l 339 1233 m 615 1233 l 794 1233 l 626 972 l 496 972 l 615 1233 m 458 -21 q 201 53 288 -21 q 115 253 115 126 l 115 749 q 103 787 115 775 q 64 799 92 799 l 32 799 l 32 899 l 339 899 l 339 799 l 313 799 q 274 786 286 799 q 263 746 263 774 l 263 244 q 312 121 263 161 q 458 81 361 81 q 654 244 654 81 l 654 746 q 642 786 654 774 q 603 799 631 799 l 576 799 l 576 899 l 886 899 l 886 799 l 853 799 q 814 787 826 799 q 801 749 801 775 l 801 253 q 715 53 801 126 q 458 -21 629 -21 z "},"Ū":{"ha":918,"x_min":32,"x_max":886,"o":"m 231 1097 l 632 1097 l 632 1001 l 231 1001 l 231 1097 m 458 -21 q 201 53 288 -21 q 115 253 115 126 l 115 749 q 103 787 115 775 q 64 799 92 799 l 32 799 l 32 899 l 339 899 l 339 799 l 313 799 q 274 786 286 799 q 263 746 263 774 l 263 244 q 312 121 263 161 q 458 81 361 81 q 654 244 654 81 l 654 746 q 642 786 654 774 q 603 799 631 799 l 576 799 l 576 899 l 886 899 l 886 799 l 853 799 q 814 787 826 799 q 801 749 801 775 l 801 253 q 715 53 801 126 q 458 -21 629 -21 z "},"Ų":{"ha":917,"x_min":32,"x_max":885,"o":"m 885 899 l 885 799 l 851 799 q 813 787 825 799 q 800 749 800 775 l 800 253 q 732 69 800 140 q 528 -17 664 -3 q 478 -126 478 -67 q 529 -190 478 -190 q 588 -179 558 -190 l 588 -265 q 506 -290 556 -286 l 471 -289 q 386 -249 418 -283 q 354 -154 354 -215 q 407 -19 354 -76 q 188 64 261 -8 q 115 253 115 136 l 115 749 q 103 787 115 775 q 64 799 92 799 l 32 799 l 32 899 l 339 899 l 339 799 l 313 799 q 274 786 286 799 q 263 746 263 774 l 263 244 q 312 121 263 161 q 458 81 361 81 q 654 244 654 81 l 654 746 q 642 786 654 774 q 603 799 631 799 l 576 799 l 576 899 l 885 899 z "},"Ů":{"ha":918,"x_min":32,"x_max":886,"o":"m 460 972 q 349 1018 394 972 q 303 1129 303 1064 q 349 1241 303 1194 q 460 1288 394 1288 q 572 1241 525 1288 q 618 1129 618 1194 q 572 1018 618 1064 q 460 972 525 972 m 460 1056 q 513 1077 492 1056 q 533 1129 533 1099 q 512 1183 533 1161 q 460 1204 490 1204 q 408 1183 429 1204 q 386 1129 386 1161 q 408 1077 386 1099 q 460 1056 429 1056 m 458 -21 q 201 53 288 -21 q 115 253 115 126 l 115 749 q 103 787 115 775 q 64 799 92 799 l 32 799 l 32 899 l 339 899 l 339 799 l 313 799 q 274 786 286 799 q 263 746 263 774 l 263 244 q 312 121 263 161 q 458 81 361 81 q 654 244 654 81 l 654 746 q 642 786 654 774 q 603 799 631 799 l 576 799 l 576 899 l 886 899 l 886 799 l 853 799 q 814 787 826 799 q 801 749 801 775 l 801 253 q 715 53 801 126 q 458 -21 629 -21 z "},"Ũ":{"ha":918,"x_min":32,"x_max":886,"o":"m 164 974 q 201 1117 164 1071 q 315 1164 238 1164 q 382 1153 351 1164 q 447 1121 413 1142 q 497 1097 478 1104 q 536 1089 515 1089 q 583 1106 568 1089 q 597 1164 597 1122 l 706 1164 q 669 1019 706 1064 q 557 974 633 974 q 492 985 521 974 q 428 1015 463 996 q 378 1039 399 1031 q 335 1047 357 1047 q 288 1031 303 1047 q 272 974 272 1014 l 164 974 m 458 -21 q 201 53 288 -21 q 115 253 115 126 l 115 749 q 103 787 115 775 q 64 799 92 799 l 32 799 l 32 899 l 339 899 l 339 799 l 313 799 q 274 786 286 799 q 263 746 263 774 l 263 244 q 312 121 263 161 q 458 81 361 81 q 654 244 654 81 l 654 746 q 642 786 654 774 q 603 799 631 799 l 576 799 l 576 899 l 886 899 l 886 799 l 853 799 q 814 787 826 799 q 801 749 801 775 l 801 253 q 715 53 801 126 q 458 -21 629 -21 z "},"V":{"ha":982,"x_min":46,"x_max":936,"o":"m 160 742 q 131 788 147 776 q 75 799 114 799 l 46 799 l 46 899 l 260 899 l 492 193 l 721 899 l 936 899 l 936 799 l 907 799 q 851 788 868 799 q 822 742 835 776 l 563 0 l 422 0 l 160 742 z "},"W":{"ha":1210,"x_min":46,"x_max":1164,"o":"m 156 739 q 132 784 149 772 q 75 796 115 796 l 46 796 l 46 899 l 260 899 l 396 254 l 546 747 l 663 747 l 814 254 l 951 899 l 1164 899 l 1164 796 l 1133 796 q 1076 784 1093 796 q 1053 739 1060 772 l 888 0 l 767 0 l 604 511 l 444 0 l 322 0 l 156 739 z "},"Ẃ":{"ha":1210,"x_min":46,"x_max":1164,"o":"m 665 1222 l 839 1222 l 681 974 l 554 974 l 665 1222 m 156 739 q 132 784 149 772 q 75 796 115 796 l 46 796 l 46 899 l 260 899 l 396 254 l 546 747 l 663 747 l 814 254 l 951 899 l 1164 899 l 1164 796 l 1133 796 q 1076 784 1093 796 q 1053 739 1060 772 l 888 0 l 767 0 l 604 511 l 444 0 l 322 0 l 156 739 z "},"Ŵ":{"ha":1210,"x_min":46,"x_max":1164,"o":"m 533 1235 l 676 1235 l 850 974 l 711 974 l 604 1149 l 497 974 l 360 974 l 533 1235 m 156 739 q 132 784 149 772 q 75 796 115 796 l 46 796 l 46 899 l 260 899 l 396 254 l 546 747 l 663 747 l 814 254 l 951 899 l 1164 899 l 1164 796 l 1133 796 q 1076 784 1093 796 q 1053 739 1060 772 l 888 0 l 767 0 l 604 511 l 444 0 l 322 0 l 156 739 z "},"Ẅ":{"ha":1210,"x_min":46,"x_max":1164,"o":"m 392 1129 l 519 1129 l 519 996 l 392 996 l 392 1129 m 688 1129 l 817 1129 l 817 996 l 688 996 l 688 1129 m 156 739 q 132 784 149 772 q 75 796 115 796 l 46 796 l 46 899 l 260 899 l 396 254 l 546 747 l 663 747 l 814 254 l 951 899 l 1164 899 l 1164 796 l 1133 796 q 1076 784 1093 796 q 1053 739 1060 772 l 888 0 l 767 0 l 604 511 l 444 0 l 322 0 l 156 739 z "},"Ẁ":{"ha":1210,"x_min":46,"x_max":1164,"o":"m 375 1222 l 550 1222 l 661 974 l 533 974 l 375 1222 m 156 739 q 132 784 149 772 q 75 796 115 796 l 46 796 l 46 899 l 260 899 l 396 254 l 546 747 l 663 747 l 814 254 l 951 899 l 1164 899 l 1164 796 l 1133 796 q 1076 784 1093 796 q 1053 739 1060 772 l 888 0 l 767 0 l 604 511 l 444 0 l 322 0 l 156 739 z "},"X":{"ha":938,"x_min":46,"x_max":892,"o":"m 46 103 l 89 103 q 147 113 126 103 q 188 151 168 124 l 392 451 l 192 747 q 151 786 172 776 q 93 796 131 796 l 56 796 l 56 899 l 369 899 l 369 796 l 306 796 l 468 543 l 632 796 l 567 796 l 567 899 l 881 899 l 881 796 l 843 796 q 785 786 806 796 q 746 747 765 776 l 544 451 l 750 151 q 790 113 769 124 q 847 103 810 103 l 892 103 l 892 0 l 571 0 l 571 101 l 636 101 l 468 360 l 301 101 l 365 101 l 365 0 l 46 0 l 46 103 z "},"Y":{"ha":925,"x_min":46,"x_max":879,"o":"m 307 100 l 339 100 q 378 113 367 100 q 390 151 390 125 l 390 329 l 165 743 q 129 787 147 775 q 78 799 111 799 l 46 799 l 46 899 l 349 899 l 349 799 l 329 799 q 299 781 299 799 q 310 749 299 768 l 464 450 l 617 749 q 626 781 626 767 q 597 799 626 799 l 576 799 l 576 899 l 879 899 l 879 799 l 847 799 q 796 787 814 799 q 760 743 778 775 l 536 329 l 536 151 q 549 113 536 125 q 588 100 561 100 l 619 100 l 619 0 l 307 0 l 307 100 z "},"Ý":{"ha":925,"x_min":46,"x_max":879,"o":"m 494 1222 l 668 1222 l 510 974 l 383 974 l 494 1222 m 307 100 l 339 100 q 378 113 367 100 q 390 151 390 125 l 390 329 l 165 743 q 129 787 147 775 q 78 799 111 799 l 46 799 l 46 899 l 349 899 l 349 799 l 329 799 q 299 781 299 799 q 310 749 299 768 l 464 450 l 617 749 q 626 781 626 767 q 597 799 626 799 l 576 799 l 576 899 l 879 899 l 879 799 l 847 799 q 796 787 814 799 q 760 743 778 775 l 536 329 l 536 151 q 549 113 536 125 q 588 100 561 100 l 619 100 l 619 0 l 307 0 l 307 100 z "},"Ŷ":{"ha":925,"x_min":46,"x_max":879,"o":"m 394 1235 l 538 1235 l 711 974 l 572 974 l 465 1149 l 358 974 l 221 974 l 394 1235 m 307 100 l 339 100 q 378 113 367 100 q 390 151 390 125 l 390 329 l 165 743 q 129 787 147 775 q 78 799 111 799 l 46 799 l 46 899 l 349 899 l 349 799 l 329 799 q 299 781 299 799 q 310 749 299 768 l 464 450 l 617 749 q 626 781 626 767 q 597 799 626 799 l 576 799 l 576 899 l 879 899 l 879 799 l 847 799 q 796 787 814 799 q 760 743 778 775 l 536 329 l 536 151 q 549 113 536 125 q 588 100 561 100 l 619 100 l 619 0 l 307 0 l 307 100 z "},"Ÿ":{"ha":925,"x_min":46,"x_max":879,"o":"m 250 1133 l 378 1133 l 378 1000 l 250 1000 l 250 1133 m 546 1133 l 675 1133 l 675 1000 l 546 1000 l 546 1133 m 307 100 l 339 100 q 378 113 367 100 q 390 151 390 125 l 390 329 l 165 743 q 129 787 147 775 q 78 799 111 799 l 46 799 l 46 899 l 349 899 l 349 799 l 329 799 q 299 781 299 799 q 310 749 299 768 l 464 450 l 617 749 q 626 781 626 767 q 597 799 626 799 l 576 799 l 576 899 l 879 899 l 879 799 l 847 799 q 796 787 814 799 q 760 743 778 775 l 536 329 l 536 151 q 549 113 536 125 q 588 100 561 100 l 619 100 l 619 0 l 307 0 l 307 100 z "},"Ẏ":{"ha":925,"x_min":46,"x_max":879,"o":"m 400 1101 l 528 1101 l 528 968 l 400 968 l 400 1101 m 307 100 l 339 100 q 378 113 367 100 q 390 151 390 125 l 390 329 l 165 743 q 129 787 147 775 q 78 799 111 799 l 46 799 l 46 899 l 349 899 l 349 799 l 329 799 q 299 781 299 799 q 310 749 299 768 l 464 450 l 617 749 q 626 781 626 767 q 597 799 626 799 l 576 799 l 576 899 l 879 899 l 879 799 l 847 799 q 796 787 814 799 q 760 743 778 775 l 536 329 l 536 151 q 549 113 536 125 q 588 100 561 100 l 619 100 l 619 0 l 307 0 l 307 100 z "},"Ỵ":{"ha":925,"x_min":46,"x_max":879,"o":"m 307 100 l 339 100 q 378 113 367 100 q 390 151 390 125 l 390 329 l 165 743 q 129 787 147 775 q 78 799 111 799 l 46 799 l 46 899 l 349 899 l 349 799 l 329 799 q 299 781 299 799 q 310 749 299 768 l 464 450 l 617 749 q 626 781 626 767 q 597 799 626 799 l 576 799 l 576 899 l 879 899 l 879 799 l 847 799 q 796 787 814 799 q 760 743 778 775 l 536 329 l 536 151 q 549 113 536 125 q 588 100 561 100 l 619 100 l 619 0 l 307 0 l 307 100 m 385 -86 l 513 -86 l 513 -219 l 385 -219 l 385 -86 z "},"Ỳ":{"ha":925,"x_min":46,"x_max":879,"o":"m 229 1222 l 404 1222 l 515 974 l 388 974 l 229 1222 m 307 100 l 339 100 q 378 113 367 100 q 390 151 390 125 l 390 329 l 165 743 q 129 787 147 775 q 78 799 111 799 l 46 799 l 46 899 l 349 899 l 349 799 l 329 799 q 299 781 299 799 q 310 749 299 768 l 464 450 l 617 749 q 626 781 626 767 q 597 799 626 799 l 576 799 l 576 899 l 879 899 l 879 799 l 847 799 q 796 787 814 799 q 760 743 778 775 l 536 329 l 536 151 q 549 113 536 125 q 588 100 561 100 l 619 100 l 619 0 l 307 0 l 307 100 z "},"Ỷ":{"ha":925,"x_min":46,"x_max":879,"o":"m 386 1064 q 453 1079 433 1064 q 472 1124 472 1094 q 457 1161 472 1150 q 404 1172 442 1172 q 336 1160 368 1172 l 336 1242 q 436 1257 376 1257 q 596 1140 596 1257 q 506 1029 596 1054 l 506 974 l 386 974 l 386 1064 m 307 100 l 339 100 q 378 113 367 100 q 390 151 390 125 l 390 329 l 165 743 q 129 787 147 775 q 78 799 111 799 l 46 799 l 46 899 l 349 899 l 349 799 l 329 799 q 299 781 299 799 q 310 749 299 768 l 464 450 l 617 749 q 626 781 626 767 q 597 799 626 799 l 576 799 l 576 899 l 879 899 l 879 799 l 847 799 q 796 787 814 799 q 760 743 778 775 l 536 329 l 536 151 q 549 113 536 125 q 588 100 561 100 l 619 100 l 619 0 l 307 0 l 307 100 z "},"Ỹ":{"ha":925,"x_min":46,"x_max":879,"o":"m 192 974 q 228 1117 192 1071 q 343 1164 265 1164 q 410 1153 379 1164 q 475 1121 440 1142 q 524 1097 506 1104 q 564 1089 543 1089 q 610 1106 596 1089 q 625 1164 625 1122 l 733 1164 q 697 1019 733 1064 q 585 974 661 974 q 519 985 549 974 q 456 1015 490 996 q 406 1039 426 1031 q 363 1047 385 1047 q 315 1031 331 1047 q 300 974 300 1014 l 192 974 m 307 100 l 339 100 q 378 113 367 100 q 390 151 390 125 l 390 329 l 165 743 q 129 787 147 775 q 78 799 111 799 l 46 799 l 46 899 l 349 899 l 349 799 l 329 799 q 299 781 299 799 q 310 749 299 768 l 464 450 l 617 749 q 626 781 626 767 q 597 799 626 799 l 576 799 l 576 899 l 879 899 l 879 799 l 847 799 q 796 787 814 799 q 760 743 778 775 l 536 329 l 536 151 q 549 113 536 125 q 588 100 561 100 l 619 100 l 619 0 l 307 0 l 307 100 z "},"Z":{"ha":781,"x_min":46,"x_max":735,"o":"m 46 86 l 549 799 l 249 799 q 208 787 219 799 q 196 749 196 775 l 196 721 l 63 721 l 63 899 l 714 899 l 714 813 l 218 100 l 549 100 q 589 112 576 100 q 601 151 601 124 l 601 178 l 735 178 l 735 0 l 46 0 l 46 86 z "},"Ź":{"ha":781,"x_min":46,"x_max":735,"o":"m 393 1222 l 567 1222 l 408 974 l 282 974 l 393 1222 m 46 86 l 549 799 l 249 799 q 208 787 219 799 q 196 749 196 775 l 196 721 l 63 721 l 63 899 l 714 899 l 714 813 l 218 100 l 549 100 q 589 112 576 100 q 601 151 601 124 l 601 178 l 735 178 l 735 0 l 46 0 l 46 86 z "},"Ž":{"ha":781,"x_min":46,"x_max":735,"o":"m 136 1235 l 274 1235 l 381 1060 l 488 1235 l 626 1235 l 453 974 l 310 974 l 136 1235 m 46 86 l 549 799 l 249 799 q 208 787 219 799 q 196 749 196 775 l 196 721 l 63 721 l 63 899 l 714 899 l 714 813 l 218 100 l 549 100 q 589 112 576 100 q 601 151 601 124 l 601 178 l 735 178 l 735 0 l 46 0 l 46 86 z "},"Ż":{"ha":781,"x_min":46,"x_max":735,"o":"m 319 1122 l 447 1122 l 447 989 l 319 989 l 319 1122 m 46 86 l 549 799 l 249 799 q 208 787 219 799 q 196 749 196 775 l 196 721 l 63 721 l 63 899 l 714 899 l 714 813 l 218 100 l 549 100 q 589 112 576 100 q 601 151 601 124 l 601 178 l 735 178 l 735 0 l 46 0 l 46 86 z "},"Ẓ":{"ha":781,"x_min":46,"x_max":735,"o":"m 46 86 l 549 799 l 249 799 q 208 787 219 799 q 196 749 196 775 l 196 721 l 63 721 l 63 899 l 714 899 l 714 813 l 218 100 l 549 100 q 589 112 576 100 q 601 151 601 124 l 601 178 l 735 178 l 735 0 l 46 0 l 46 86 m 311 -86 l 439 -86 l 439 -219 l 311 -219 l 311 -86 z "},"a":{"ha":726,"x_min":32,"x_max":694,"o":"m 258 -21 q 90 28 147 -21 q 32 165 32 76 q 95 312 32 265 q 278 367 158 358 l 472 379 l 472 464 q 444 558 472 529 q 350 588 417 588 q 274 580 304 588 q 219 556 244 572 l 219 506 l 90 506 l 90 615 q 353 688 207 688 q 619 451 619 688 l 619 147 q 630 107 619 119 q 664 94 640 94 l 694 94 l 694 0 l 535 0 l 517 88 q 413 5 472 31 q 258 -21 354 -21 m 292 79 q 424 115 375 79 q 472 225 472 151 l 472 292 l 289 278 q 194 249 221 274 q 168 172 168 225 q 197 103 168 126 q 292 79 226 79 z "},"á":{"ha":726,"x_min":32,"x_max":694,"o":"m 365 979 l 539 979 l 381 731 l 254 731 l 365 979 m 258 -21 q 90 28 147 -21 q 32 165 32 76 q 95 312 32 265 q 278 367 158 358 l 472 379 l 472 464 q 444 558 472 529 q 350 588 417 588 q 274 580 304 588 q 219 556 244 572 l 219 506 l 90 506 l 90 615 q 353 688 207 688 q 619 451 619 688 l 619 147 q 630 107 619 119 q 664 94 640 94 l 694 94 l 694 0 l 535 0 l 517 88 q 413 5 472 31 q 258 -21 354 -21 m 292 79 q 424 115 375 79 q 472 225 472 151 l 472 292 l 289 278 q 194 249 221 274 q 168 172 168 225 q 197 103 168 126 q 292 79 226 79 z "},"ă":{"ha":726,"x_min":32,"x_max":694,"o":"m 356 731 q 194 785 254 731 q 135 929 135 839 l 256 929 q 282 852 256 879 q 356 825 308 825 q 430 852 404 825 q 456 929 456 879 l 576 929 q 517 785 576 839 q 356 731 457 731 m 258 -21 q 90 28 147 -21 q 32 165 32 76 q 95 312 32 265 q 278 367 158 358 l 472 379 l 472 464 q 444 558 472 529 q 350 588 417 588 q 274 580 304 588 q 219 556 244 572 l 219 506 l 90 506 l 90 615 q 353 688 207 688 q 619 451 619 688 l 619 147 q 630 107 619 119 q 664 94 640 94 l 694 94 l 694 0 l 535 0 l 517 88 q 413 5 472 31 q 258 -21 354 -21 m 292 79 q 424 115 375 79 q 472 225 472 151 l 472 292 l 289 278 q 194 249 221 274 q 168 172 168 225 q 197 103 168 126 q 292 79 226 79 z "},"ắ":{"ha":726,"x_min":32,"x_max":694,"o":"m 381 1133 l 533 1133 l 392 933 l 289 933 l 381 1133 m 356 731 q 194 786 258 731 q 129 938 129 842 l 233 938 q 265 851 233 882 q 356 821 297 821 q 448 851 417 821 q 479 938 479 882 l 583 938 q 519 786 583 842 q 356 731 454 731 m 258 -21 q 90 28 147 -21 q 32 165 32 76 q 95 312 32 265 q 278 367 158 358 l 472 379 l 472 464 q 444 558 472 529 q 350 588 417 588 q 274 580 304 588 q 219 556 244 572 l 219 506 l 90 506 l 90 615 q 353 688 207 688 q 619 451 619 688 l 619 147 q 630 107 619 119 q 664 94 640 94 l 694 94 l 694 0 l 535 0 l 517 88 q 413 5 472 31 q 258 -21 354 -21 m 292 79 q 424 115 375 79 q 472 225 472 151 l 472 292 l 289 278 q 194 249 221 274 q 168 172 168 225 q 197 103 168 126 q 292 79 226 79 z "},"ặ":{"ha":726,"x_min":32,"x_max":694,"o":"m 356 731 q 194 785 254 731 q 135 929 135 839 l 256 929 q 282 852 256 879 q 356 825 308 825 q 430 852 404 825 q 456 929 456 879 l 576 929 q 517 785 576 839 q 356 731 457 731 m 258 -21 q 90 28 147 -21 q 32 165 32 76 q 95 312 32 265 q 278 367 158 358 l 472 379 l 472 464 q 444 558 472 529 q 350 588 417 588 q 274 580 304 588 q 219 556 244 572 l 219 506 l 90 506 l 90 615 q 353 688 207 688 q 619 451 619 688 l 619 147 q 630 107 619 119 q 664 94 640 94 l 694 94 l 694 0 l 535 0 l 517 88 q 413 5 472 31 q 258 -21 354 -21 m 292 79 q 424 115 375 79 q 472 225 472 151 l 472 292 l 289 278 q 194 249 221 274 q 168 172 168 225 q 197 103 168 126 q 292 79 226 79 m 289 -86 l 417 -86 l 417 -219 l 289 -219 l 289 -86 z "},"ằ":{"ha":726,"x_min":32,"x_max":694,"o":"m 161 1133 l 314 1133 l 406 933 l 303 933 l 161 1133 m 339 731 q 176 786 240 731 q 111 938 111 842 l 215 938 q 247 851 215 882 q 339 821 278 821 q 429 851 397 821 q 461 938 461 882 l 565 938 q 501 786 565 842 q 339 731 436 731 m 258 -21 q 90 28 147 -21 q 32 165 32 76 q 95 312 32 265 q 278 367 158 358 l 472 379 l 472 464 q 444 558 472 529 q 350 588 417 588 q 274 580 304 588 q 219 556 244 572 l 219 506 l 90 506 l 90 615 q 353 688 207 688 q 619 451 619 688 l 619 147 q 630 107 619 119 q 664 94 640 94 l 694 94 l 694 0 l 535 0 l 517 88 q 413 5 472 31 q 258 -21 354 -21 m 292 79 q 424 115 375 79 q 472 225 472 151 l 472 292 l 289 278 q 194 249 221 274 q 168 172 168 225 q 197 103 168 126 q 292 79 226 79 z "},"ẳ":{"ha":726,"x_min":32,"x_max":694,"o":"m 283 986 q 346 997 329 986 q 363 1032 363 1007 q 315 1068 363 1068 q 258 1057 289 1068 l 258 1128 q 344 1140 293 1140 q 464 1043 464 1140 q 444 984 464 1006 q 382 954 425 963 l 382 922 l 283 922 l 283 986 m 340 731 q 178 786 243 731 q 114 938 114 842 l 218 938 q 250 851 218 882 q 340 821 282 821 q 433 851 401 821 q 464 938 464 882 l 568 938 q 503 786 568 842 q 340 731 439 731 m 258 -21 q 90 28 147 -21 q 32 165 32 76 q 95 312 32 265 q 278 367 158 358 l 472 379 l 472 464 q 444 558 472 529 q 350 588 417 588 q 274 580 304 588 q 219 556 244 572 l 219 506 l 90 506 l 90 615 q 353 688 207 688 q 619 451 619 688 l 619 147 q 630 107 619 119 q 664 94 640 94 l 694 94 l 694 0 l 535 0 l 517 88 q 413 5 472 31 q 258 -21 354 -21 m 292 79 q 424 115 375 79 q 472 225 472 151 l 472 292 l 289 278 q 194 249 221 274 q 168 172 168 225 q 197 103 168 126 q 292 79 226 79 z "},"ẵ":{"ha":726,"x_min":32,"x_max":694,"o":"m 440 983 q 392 992 415 983 q 338 1017 368 1000 q 299 1034 318 1026 q 264 1042 279 1042 q 231 1028 240 1042 q 221 986 221 1014 l 139 986 q 167 1090 139 1058 q 256 1122 196 1122 q 305 1114 282 1122 q 358 1089 328 1106 q 378 1079 363 1088 q 406 1067 393 1071 q 428 1064 418 1064 q 460 1078 451 1064 q 469 1119 469 1092 l 551 1119 q 525 1015 551 1047 q 440 983 499 983 m 346 731 q 184 786 249 731 q 119 938 119 842 l 224 938 q 256 851 224 882 q 346 821 288 821 q 438 851 406 821 q 469 938 469 882 l 574 938 q 509 786 574 842 q 346 731 444 731 m 258 -21 q 90 28 147 -21 q 32 165 32 76 q 95 312 32 265 q 278 367 158 358 l 472 379 l 472 464 q 444 558 472 529 q 350 588 417 588 q 274 580 304 588 q 219 556 244 572 l 219 506 l 90 506 l 90 615 q 353 688 207 688 q 619 451 619 688 l 619 147 q 630 107 619 119 q 664 94 640 94 l 694 94 l 694 0 l 535 0 l 517 88 q 413 5 472 31 q 258 -21 354 -21 m 292 79 q 424 115 375 79 q 472 225 472 151 l 472 292 l 289 278 q 194 249 221 274 q 168 172 168 225 q 197 103 168 126 q 292 79 226 79 z "},"ǎ":{"ha":726,"x_min":32,"x_max":694,"o":"m 100 990 l 238 990 l 344 815 l 451 990 l 590 990 l 417 729 l 274 729 l 100 990 m 258 -21 q 90 28 147 -21 q 32 165 32 76 q 95 312 32 265 q 278 367 158 358 l 472 379 l 472 464 q 444 558 472 529 q 350 588 417 588 q 274 580 304 588 q 219 556 244 572 l 219 506 l 90 506 l 90 615 q 353 688 207 688 q 619 451 619 688 l 619 147 q 630 107 619 119 q 664 94 640 94 l 694 94 l 694 0 l 535 0 l 517 88 q 413 5 472 31 q 258 -21 354 -21 m 292 79 q 424 115 375 79 q 472 225 472 151 l 472 292 l 289 278 q 194 249 221 274 q 168 172 168 225 q 197 103 168 126 q 292 79 226 79 z "},"â":{"ha":726,"x_min":32,"x_max":694,"o":"m 256 990 l 399 990 l 572 729 l 433 729 l 326 904 l 219 729 l 82 729 l 256 990 m 258 -21 q 90 28 147 -21 q 32 165 32 76 q 95 312 32 265 q 278 367 158 358 l 472 379 l 472 464 q 444 558 472 529 q 350 588 417 588 q 274 580 304 588 q 219 556 244 572 l 219 506 l 90 506 l 90 615 q 353 688 207 688 q 619 451 619 688 l 619 147 q 630 107 619 119 q 664 94 640 94 l 694 94 l 694 0 l 535 0 l 517 88 q 413 5 472 31 q 258 -21 354 -21 m 292 79 q 424 115 375 79 q 472 225 472 151 l 472 292 l 289 278 q 194 249 221 274 q 168 172 168 225 q 197 103 168 126 q 292 79 226 79 z "},"ấ":{"ha":726,"x_min":32,"x_max":717,"o":"m 560 1058 l 717 1058 l 581 882 l 472 882 l 560 1058 m 265 918 l 404 918 l 553 731 l 421 731 l 335 849 l 246 731 l 117 731 l 265 918 m 258 -21 q 90 28 147 -21 q 32 165 32 76 q 95 312 32 265 q 278 367 158 358 l 472 379 l 472 464 q 444 558 472 529 q 350 588 417 588 q 274 580 304 588 q 219 556 244 572 l 219 506 l 90 506 l 90 615 q 353 688 207 688 q 619 451 619 688 l 619 147 q 630 107 619 119 q 664 94 640 94 l 694 94 l 694 0 l 535 0 l 517 88 q 413 5 472 31 q 258 -21 354 -21 m 292 79 q 424 115 375 79 q 472 225 472 151 l 472 292 l 289 278 q 194 249 221 274 q 168 172 168 225 q 197 103 168 126 q 292 79 226 79 z "},"ậ":{"ha":726,"x_min":32,"x_max":694,"o":"m 275 990 l 418 990 l 592 729 l 453 729 l 346 904 l 239 729 l 101 729 l 275 990 m 258 -21 q 90 28 147 -21 q 32 165 32 76 q 95 312 32 265 q 278 367 158 358 l 472 379 l 472 464 q 444 558 472 529 q 350 588 417 588 q 274 580 304 588 q 219 556 244 572 l 219 506 l 90 506 l 90 615 q 353 688 207 688 q 619 451 619 688 l 619 147 q 630 107 619 119 q 664 94 640 94 l 694 94 l 694 0 l 535 0 l 517 88 q 413 5 472 31 q 258 -21 354 -21 m 292 79 q 424 115 375 79 q 472 225 472 151 l 472 292 l 289 278 q 194 249 221 274 q 168 172 168 225 q 197 103 168 126 q 292 79 226 79 m 282 -86 l 410 -86 l 410 -219 l 282 -219 l 282 -86 z "},"ầ":{"ha":726,"x_min":-37,"x_max":694,"o":"m -37 1058 l 119 1058 l 207 882 l 99 882 l -37 1058 m 290 918 l 429 918 l 578 731 l 449 731 l 360 849 l 274 731 l 142 731 l 290 918 m 258 -21 q 90 28 147 -21 q 32 165 32 76 q 95 312 32 265 q 278 367 158 358 l 472 379 l 472 464 q 444 558 472 529 q 350 588 417 588 q 274 580 304 588 q 219 556 244 572 l 219 506 l 90 506 l 90 615 q 353 688 207 688 q 619 451 619 688 l 619 147 q 630 107 619 119 q 664 94 640 94 l 694 94 l 694 0 l 535 0 l 517 88 q 413 5 472 31 q 258 -21 354 -21 m 292 79 q 424 115 375 79 q 472 225 472 151 l 472 292 l 289 278 q 194 249 221 274 q 168 172 168 225 q 197 103 168 126 q 292 79 226 79 z "},"ẩ":{"ha":726,"x_min":32,"x_max":694,"o":"m 461 969 q 524 980 507 969 q 540 1015 540 990 q 528 1042 540 1033 q 493 1051 515 1051 q 436 1040 467 1051 l 436 1111 q 521 1124 471 1124 q 642 1026 642 1124 q 622 967 642 989 q 560 938 603 946 l 560 906 l 461 906 l 461 969 m 283 918 l 424 918 l 572 731 l 442 731 l 353 849 l 267 731 l 136 731 l 283 918 m 258 -21 q 90 28 147 -21 q 32 165 32 76 q 95 312 32 265 q 278 367 158 358 l 472 379 l 472 464 q 444 558 472 529 q 350 588 417 588 q 274 580 304 588 q 219 556 244 572 l 219 506 l 90 506 l 90 615 q 353 688 207 688 q 619 451 619 688 l 619 147 q 630 107 619 119 q 664 94 640 94 l 694 94 l 694 0 l 535 0 l 517 88 q 413 5 472 31 q 258 -21 354 -21 m 292 79 q 424 115 375 79 q 472 225 472 151 l 472 292 l 289 278 q 194 249 221 274 q 168 172 168 225 q 197 103 168 126 q 292 79 226 79 z "},"ẫ":{"ha":726,"x_min":32,"x_max":694,"o":"m 438 943 q 389 951 413 943 q 335 976 365 960 q 296 994 315 986 q 261 1001 276 1001 q 228 988 238 1001 q 218 946 218 974 l 136 946 q 165 1050 136 1018 q 253 1082 193 1082 q 302 1074 279 1082 q 356 1049 325 1065 q 375 1039 360 1047 q 403 1027 390 1031 q 425 1024 415 1024 q 458 1038 449 1024 q 468 1079 468 1051 l 550 1079 q 523 975 550 1007 q 438 943 496 943 m 272 918 l 413 918 l 561 731 l 431 731 l 342 849 l 256 731 l 125 731 l 272 918 m 258 -21 q 90 28 147 -21 q 32 165 32 76 q 95 312 32 265 q 278 367 158 358 l 472 379 l 472 464 q 444 558 472 529 q 350 588 417 588 q 274 580 304 588 q 219 556 244 572 l 219 506 l 90 506 l 90 615 q 353 688 207 688 q 619 451 619 688 l 619 147 q 630 107 619 119 q 664 94 640 94 l 694 94 l 694 0 l 535 0 l 517 88 q 413 5 472 31 q 258 -21 354 -21 m 292 79 q 424 115 375 79 q 472 225 472 151 l 472 292 l 289 278 q 194 249 221 274 q 168 172 168 225 q 197 103 168 126 q 292 79 226 79 z "},"ä":{"ha":726,"x_min":32,"x_max":694,"o":"m 122 890 l 250 890 l 250 757 l 122 757 l 122 890 m 418 890 l 547 890 l 547 757 l 418 757 l 418 890 m 258 -21 q 90 28 147 -21 q 32 165 32 76 q 95 312 32 265 q 278 367 158 358 l 472 379 l 472 464 q 444 558 472 529 q 350 588 417 588 q 274 580 304 588 q 219 556 244 572 l 219 506 l 90 506 l 90 615 q 353 688 207 688 q 619 451 619 688 l 619 147 q 630 107 619 119 q 664 94 640 94 l 694 94 l 694 0 l 535 0 l 517 88 q 413 5 472 31 q 258 -21 354 -21 m 292 79 q 424 115 375 79 q 472 225 472 151 l 472 292 l 289 278 q 194 249 221 274 q 168 172 168 225 q 197 103 168 126 q 292 79 226 79 z "},"ạ":{"ha":726,"x_min":32,"x_max":694,"o":"m 258 -21 q 90 28 147 -21 q 32 165 32 76 q 95 312 32 265 q 278 367 158 358 l 472 379 l 472 464 q 444 558 472 529 q 350 588 417 588 q 274 580 304 588 q 219 556 244 572 l 219 506 l 90 506 l 90 615 q 353 688 207 688 q 619 451 619 688 l 619 147 q 630 107 619 119 q 664 94 640 94 l 694 94 l 694 0 l 535 0 l 517 88 q 413 5 472 31 q 258 -21 354 -21 m 292 79 q 424 115 375 79 q 472 225 472 151 l 472 292 l 289 278 q 194 249 221 274 q 168 172 168 225 q 197 103 168 126 q 292 79 226 79 m 271 -86 l 399 -86 l 399 -219 l 271 -219 l 271 -86 z "},"à":{"ha":726,"x_min":32,"x_max":694,"o":"m 122 979 l 297 979 l 408 731 l 281 731 l 122 979 m 258 -21 q 90 28 147 -21 q 32 165 32 76 q 95 312 32 265 q 278 367 158 358 l 472 379 l 472 464 q 444 558 472 529 q 350 588 417 588 q 274 580 304 588 q 219 556 244 572 l 219 506 l 90 506 l 90 615 q 353 688 207 688 q 619 451 619 688 l 619 147 q 630 107 619 119 q 664 94 640 94 l 694 94 l 694 0 l 535 0 l 517 88 q 413 5 472 31 q 258 -21 354 -21 m 292 79 q 424 115 375 79 q 472 225 472 151 l 472 292 l 289 278 q 194 249 221 274 q 168 172 168 225 q 197 103 168 126 q 292 79 226 79 z "},"ả":{"ha":726,"x_min":32,"x_max":694,"o":"m 289 819 q 356 835 336 819 q 375 879 375 850 q 360 917 375 906 q 307 928 344 928 q 239 915 271 928 l 239 997 q 339 1013 279 1013 q 499 896 499 1013 q 408 785 499 810 l 408 729 l 289 729 l 289 819 m 258 -21 q 90 28 147 -21 q 32 165 32 76 q 95 312 32 265 q 278 367 158 358 l 472 379 l 472 464 q 444 558 472 529 q 350 588 417 588 q 274 580 304 588 q 219 556 244 572 l 219 506 l 90 506 l 90 615 q 353 688 207 688 q 619 451 619 688 l 619 147 q 630 107 619 119 q 664 94 640 94 l 694 94 l 694 0 l 535 0 l 517 88 q 413 5 472 31 q 258 -21 354 -21 m 292 79 q 424 115 375 79 q 472 225 472 151 l 472 292 l 289 278 q 194 249 221 274 q 168 172 168 225 q 197 103 168 126 q 292 79 226 79 z "},"ɑ":{"ha":814,"x_min":46,"x_max":782,"o":"m 344 -19 q 126 67 206 -19 q 46 318 46 154 q 83 514 46 431 q 190 642 121 597 q 351 688 258 688 q 497 662 440 688 q 593 576 553 636 l 600 667 l 708 667 l 708 149 q 718 106 708 118 q 754 94 728 94 l 782 94 l 782 0 l 604 0 l 592 96 q 490 8 551 35 q 344 -19 429 -19 m 378 74 q 518 138 465 74 q 571 300 571 201 l 571 371 q 521 532 571 474 q 383 590 471 590 q 190 319 190 590 q 235 133 190 192 q 378 74 281 74 z "},"ā":{"ha":726,"x_min":32,"x_max":694,"o":"m 138 854 l 539 854 l 539 758 l 138 758 l 138 854 m 258 -21 q 90 28 147 -21 q 32 165 32 76 q 95 312 32 265 q 278 367 158 358 l 472 379 l 472 464 q 444 558 472 529 q 350 588 417 588 q 274 580 304 588 q 219 556 244 572 l 219 506 l 90 506 l 90 615 q 353 688 207 688 q 619 451 619 688 l 619 147 q 630 107 619 119 q 664 94 640 94 l 694 94 l 694 0 l 535 0 l 517 88 q 413 5 472 31 q 258 -21 354 -21 m 292 79 q 424 115 375 79 q 472 225 472 151 l 472 292 l 289 278 q 194 249 221 274 q 168 172 168 225 q 197 103 168 126 q 292 79 226 79 z "},"ą":{"ha":726,"x_min":32,"x_max":694,"o":"m 633 0 q 581 -60 599 -29 q 564 -126 564 -90 q 615 -190 564 -190 q 674 -179 643 -190 l 674 -265 q 582 -290 639 -290 q 479 -256 518 -290 q 440 -154 440 -222 q 459 -69 440 -110 q 511 0 478 -29 l 535 0 l 517 88 q 413 5 472 31 q 258 -21 354 -21 q 90 28 147 -21 q 32 165 32 76 q 95 312 32 265 q 278 367 158 358 l 472 379 l 472 464 q 444 558 472 529 q 350 588 417 588 q 274 580 304 588 q 219 556 244 572 l 219 506 l 90 506 l 90 615 q 353 688 207 688 q 619 451 619 688 l 619 147 q 630 107 619 119 q 664 94 640 94 l 694 94 l 694 0 l 633 0 m 472 292 l 289 278 q 194 249 221 274 q 168 172 168 225 q 197 103 168 126 q 292 79 226 79 q 424 115 375 79 q 472 225 472 151 l 472 292 z "},"å":{"ha":726,"x_min":32,"x_max":694,"o":"m 339 729 q 228 775 274 729 q 182 886 182 821 q 228 998 182 951 q 339 1044 274 1044 q 451 998 404 1044 q 497 886 497 951 q 451 775 497 821 q 339 729 404 729 m 339 813 q 392 834 371 813 q 413 886 413 856 q 391 940 413 918 q 339 961 369 961 q 287 940 308 961 q 265 886 265 918 q 287 834 265 856 q 339 813 308 813 m 258 -21 q 90 28 147 -21 q 32 165 32 76 q 95 312 32 265 q 278 367 158 358 l 472 379 l 472 464 q 444 558 472 529 q 350 588 417 588 q 274 580 304 588 q 219 556 244 572 l 219 506 l 90 506 l 90 615 q 353 688 207 688 q 619 451 619 688 l 619 147 q 630 107 619 119 q 664 94 640 94 l 694 94 l 694 0 l 535 0 l 517 88 q 413 5 472 31 q 258 -21 354 -21 m 292 79 q 424 115 375 79 q 472 225 472 151 l 472 292 l 289 278 q 194 249 221 274 q 168 172 168 225 q 197 103 168 126 q 292 79 226 79 z "},"ǻ":{"ha":726,"x_min":32,"x_max":694,"o":"m 372 1276 l 546 1276 l 388 1078 l 261 1078 l 372 1276 m 347 725 q 236 771 282 725 q 190 882 190 817 q 236 994 190 947 q 347 1040 282 1040 q 459 994 413 1040 q 506 882 506 947 q 459 771 506 817 q 347 725 413 725 m 347 808 q 400 830 379 808 q 421 882 421 851 q 399 935 421 914 q 347 957 378 957 q 295 935 317 957 q 274 882 274 914 q 295 830 274 851 q 347 808 317 808 m 258 -21 q 90 28 147 -21 q 32 165 32 76 q 95 312 32 265 q 278 367 158 358 l 472 379 l 472 464 q 444 558 472 529 q 350 588 417 588 q 274 580 304 588 q 219 556 244 572 l 219 506 l 90 506 l 90 615 q 353 688 207 688 q 619 451 619 688 l 619 147 q 630 107 619 119 q 664 94 640 94 l 694 94 l 694 0 l 535 0 l 517 88 q 413 5 472 31 q 258 -21 354 -21 m 292 79 q 424 115 375 79 q 472 225 472 151 l 472 292 l 289 278 q 194 249 221 274 q 168 172 168 225 q 197 103 168 126 q 292 79 226 79 z "},"ã":{"ha":726,"x_min":32,"x_max":694,"o":"m 75 731 q 112 874 75 828 q 226 921 149 921 q 293 910 263 921 q 358 878 324 899 q 408 853 389 861 q 447 846 426 846 q 494 863 479 846 q 508 921 508 879 l 617 921 q 581 776 617 821 q 468 731 544 731 q 403 742 432 731 q 339 772 374 753 q 289 796 310 788 q 246 804 268 804 q 199 788 214 804 q 183 731 183 771 l 75 731 m 258 -21 q 90 28 147 -21 q 32 165 32 76 q 95 312 32 265 q 278 367 158 358 l 472 379 l 472 464 q 444 558 472 529 q 350 588 417 588 q 274 580 304 588 q 219 556 244 572 l 219 506 l 90 506 l 90 615 q 353 688 207 688 q 619 451 619 688 l 619 147 q 630 107 619 119 q 664 94 640 94 l 694 94 l 694 0 l 535 0 l 517 88 q 413 5 472 31 q 258 -21 354 -21 m 292 79 q 424 115 375 79 q 472 225 472 151 l 472 292 l 289 278 q 194 249 221 274 q 168 172 168 225 q 197 103 168 126 q 292 79 226 79 z "},"æ":{"ha":1175,"x_min":32,"x_max":1129,"o":"m 258 -21 q 90 28 147 -21 q 32 165 32 76 q 95 312 32 265 q 278 367 158 358 l 472 379 l 472 464 q 444 558 472 529 q 350 588 417 588 q 278 580 308 588 q 219 556 247 572 l 219 506 l 90 506 l 90 615 q 350 688 207 688 q 485 661 435 688 q 565 579 535 635 q 669 660 604 633 q 815 688 735 688 q 1051 601 972 688 q 1129 358 1129 514 l 1129 294 l 624 294 q 682 131 624 186 q 826 75 740 75 q 914 83 878 75 q 981 108 950 92 l 981 160 l 1106 160 l 1106 63 q 985 -1 1051 19 q 825 -21 918 -21 q 667 13 735 -21 q 560 114 599 47 q 441 12 519 44 q 258 -21 363 -21 m 990 385 q 947 540 990 492 q 814 588 904 588 q 672 536 721 588 q 624 385 624 485 l 990 385 m 292 79 q 424 116 375 79 q 472 226 472 153 l 472 293 l 289 279 q 194 251 221 275 q 168 174 168 226 q 197 103 168 128 q 292 79 226 79 z "},"ǽ":{"ha":1175,"x_min":32,"x_max":1129,"o":"m 596 979 l 769 979 l 611 731 l 485 731 l 596 979 m 258 -21 q 90 28 147 -21 q 32 165 32 76 q 95 312 32 265 q 278 367 158 358 l 472 379 l 472 464 q 444 558 472 529 q 350 588 417 588 q 278 580 308 588 q 219 556 247 572 l 219 506 l 90 506 l 90 615 q 350 688 207 688 q 485 661 435 688 q 565 579 535 635 q 669 660 604 633 q 815 688 735 688 q 1051 601 972 688 q 1129 358 1129 514 l 1129 294 l 624 294 q 682 131 624 186 q 826 75 740 75 q 914 83 878 75 q 981 108 950 92 l 981 160 l 1106 160 l 1106 63 q 985 -1 1051 19 q 825 -21 918 -21 q 667 13 735 -21 q 560 114 599 47 q 441 12 519 44 q 258 -21 363 -21 m 990 385 q 947 540 990 492 q 814 588 904 588 q 672 536 721 588 q 624 385 624 485 l 990 385 m 292 79 q 424 116 375 79 q 472 226 472 153 l 472 293 l 289 279 q 194 251 221 275 q 168 174 168 226 q 197 103 168 128 q 292 79 226 79 z "},"b":{"ha":817,"x_min":32,"x_max":771,"o":"m 469 -21 q 236 94 306 -21 l 225 0 l 111 0 l 111 757 q 101 803 111 789 q 58 818 90 818 l 32 818 l 32 919 l 254 919 l 254 586 q 350 663 290 638 q 485 688 410 688 q 698 597 625 688 q 771 333 771 507 q 690 73 771 167 q 469 -21 608 -21 m 450 88 q 585 146 543 88 q 626 336 626 204 q 584 525 626 469 q 442 581 542 581 q 310 526 363 581 q 258 374 258 472 l 258 293 q 312 145 258 203 q 450 88 365 88 z "},"c":{"ha":717,"x_min":46,"x_max":671,"o":"m 403 -21 q 222 19 303 -21 q 93 139 140 60 q 46 328 46 218 q 140 595 46 503 q 399 688 233 688 q 550 668 489 688 q 668 606 611 649 l 668 472 l 539 472 l 539 549 q 478 574 507 567 q 399 581 449 581 q 248 519 306 581 q 190 328 190 457 q 256 147 190 206 q 425 88 322 88 q 534 99 489 88 q 619 136 579 110 l 671 51 q 552 -5 613 11 q 403 -21 492 -21 z "},"ć":{"ha":717,"x_min":46,"x_max":671,"o":"m 404 979 l 578 979 l 419 731 l 293 731 l 404 979 m 403 -21 q 222 19 303 -21 q 93 139 140 60 q 46 328 46 218 q 140 595 46 503 q 399 688 233 688 q 550 668 489 688 q 668 606 611 649 l 668 472 l 539 472 l 539 549 q 478 574 507 567 q 399 581 449 581 q 248 519 306 581 q 190 328 190 457 q 256 147 190 206 q 425 88 322 88 q 534 99 489 88 q 619 136 579 110 l 671 51 q 552 -5 613 11 q 403 -21 492 -21 z "},"č":{"ha":717,"x_min":46,"x_max":671,"o":"m 143 990 l 281 990 l 388 815 l 494 990 l 633 990 l 460 729 l 317 729 l 143 990 m 403 -21 q 222 19 303 -21 q 93 139 140 60 q 46 328 46 218 q 140 595 46 503 q 399 688 233 688 q 550 668 489 688 q 668 606 611 649 l 668 472 l 539 472 l 539 549 q 478 574 507 567 q 399 581 449 581 q 248 519 306 581 q 190 328 190 457 q 256 147 190 206 q 425 88 322 88 q 534 99 489 88 q 619 136 579 110 l 671 51 q 552 -5 613 11 q 403 -21 492 -21 z "},"ç":{"ha":717,"x_min":46,"x_max":671,"o":"m 460 -64 q 546 -103 519 -74 q 572 -185 572 -133 q 525 -283 572 -249 q 383 -317 478 -317 q 279 -299 325 -317 l 279 -212 q 369 -231 319 -231 q 449 -181 449 -231 q 423 -129 449 -144 q 321 -114 397 -114 l 336 -17 q 126 92 207 3 q 46 328 46 182 q 140 595 46 503 q 399 688 233 688 q 550 668 489 688 q 668 606 611 649 l 668 472 l 539 472 l 539 549 q 476 573 507 565 q 399 581 446 581 q 248 519 306 581 q 190 328 190 457 q 256 147 190 206 q 425 88 322 88 q 534 99 489 88 q 619 136 579 110 l 671 51 q 576 3 624 19 q 468 -18 529 -14 l 460 -64 z "},"ĉ":{"ha":717,"x_min":46,"x_max":671,"o":"m 306 990 l 449 990 l 622 729 l 483 729 l 376 904 l 269 729 l 132 729 l 306 990 m 403 -21 q 222 19 303 -21 q 93 139 140 60 q 46 328 46 218 q 140 595 46 503 q 399 688 233 688 q 550 668 489 688 q 668 606 611 649 l 668 472 l 539 472 l 539 549 q 478 574 507 567 q 399 581 449 581 q 248 519 306 581 q 190 328 190 457 q 256 147 190 206 q 425 88 322 88 q 534 99 489 88 q 619 136 579 110 l 671 51 q 552 -5 613 11 q 403 -21 492 -21 z "},"ċ":{"ha":717,"x_min":46,"x_max":671,"o":"m 324 900 l 451 900 l 451 767 l 324 767 l 324 900 m 403 -21 q 222 19 303 -21 q 93 139 140 60 q 46 328 46 218 q 140 595 46 503 q 399 688 233 688 q 550 668 489 688 q 668 606 611 649 l 668 472 l 539 472 l 539 549 q 478 574 507 567 q 399 581 449 581 q 248 519 306 581 q 190 328 190 457 q 256 147 190 206 q 425 88 322 88 q 534 99 489 88 q 619 136 579 110 l 671 51 q 552 -5 613 11 q 403 -21 492 -21 z "},"d":{"ha":811,"x_min":46,"x_max":779,"o":"m 338 -21 q 123 68 200 -21 q 46 322 46 157 q 122 592 46 496 q 343 688 199 688 q 478 667 428 688 q 563 597 529 646 l 563 757 q 551 804 563 790 q 508 818 540 818 l 485 818 l 485 919 l 706 919 l 706 149 q 715 106 706 118 q 751 94 725 94 l 779 94 l 779 0 l 593 0 l 581 97 q 482 7 539 35 q 338 -21 425 -21 m 371 88 q 510 145 460 88 q 560 300 560 203 l 560 371 q 512 526 560 472 q 376 581 464 581 q 234 519 278 581 q 190 324 190 458 q 232 142 190 196 q 371 88 274 88 z "},"ð":{"ha":803,"x_min":46,"x_max":756,"o":"m 363 -21 q 130 52 214 -21 q 46 276 46 125 q 91 475 46 390 q 220 606 136 560 q 417 651 304 651 q 528 628 479 651 q 611 561 578 606 q 554 764 604 706 l 419 689 l 410 754 l 497 803 q 419 817 471 817 q 233 768 325 817 l 189 860 q 444 919 290 919 q 618 872 550 919 l 724 933 l 733 867 l 668 829 q 756 518 756 728 q 656 117 756 254 q 363 -21 557 -21 m 369 82 q 526 149 468 82 q 594 356 585 217 q 553 499 601 451 q 424 547 504 547 q 262 493 318 547 q 193 333 206 439 q 189 267 189 299 q 192 225 189 253 q 241 117 200 153 q 369 82 282 82 z "},"ď":{"ha":1024,"x_min":46,"x_max":1006,"o":"m 835 1001 l 1006 1001 l 894 724 l 769 724 l 835 1001 m 338 -21 q 123 68 200 -21 q 46 322 46 157 q 122 592 46 496 q 343 688 199 688 q 478 667 428 688 q 563 597 529 646 l 563 757 q 551 804 563 790 q 508 818 540 818 l 485 818 l 485 919 l 706 919 l 706 149 q 715 106 706 118 q 751 94 725 94 l 779 94 l 779 0 l 593 0 l 581 97 q 482 7 539 35 q 338 -21 425 -21 m 371 88 q 510 145 460 88 q 560 300 560 203 l 560 371 q 512 526 560 472 q 376 581 464 581 q 234 519 278 581 q 190 324 190 458 q 232 142 190 196 q 371 88 274 88 z "},"đ":{"ha":813,"x_min":46,"x_max":781,"o":"m 338 -21 q 123 68 200 -21 q 46 322 46 157 q 122 592 46 496 q 343 688 199 688 q 478 667 428 688 q 563 597 529 646 l 563 707 l 374 707 l 374 788 l 558 788 q 508 818 550 818 l 485 818 l 485 919 l 706 919 l 706 788 l 781 788 l 781 707 l 706 707 l 706 149 q 715 106 706 118 q 751 94 725 94 l 779 94 l 779 0 l 593 0 l 581 97 q 482 7 539 35 q 338 -21 425 -21 m 371 88 q 510 145 460 88 q 560 300 560 203 l 560 371 q 512 526 560 472 q 376 581 464 581 q 234 519 278 581 q 190 324 190 458 q 232 142 190 196 q 371 88 274 88 z "},"ḍ":{"ha":811,"x_min":46,"x_max":779,"o":"m 338 -21 q 123 68 200 -21 q 46 322 46 157 q 122 592 46 496 q 343 688 199 688 q 478 667 428 688 q 563 597 529 646 l 563 757 q 551 804 563 790 q 508 818 540 818 l 485 818 l 485 919 l 706 919 l 706 149 q 715 106 706 118 q 751 94 725 94 l 779 94 l 779 0 l 593 0 l 581 97 q 482 7 539 35 q 338 -21 425 -21 m 371 88 q 510 145 460 88 q 560 300 560 203 l 560 371 q 512 526 560 472 q 376 581 464 581 q 234 519 278 581 q 190 324 190 458 q 232 142 190 196 q 371 88 274 88 m 319 -86 l 447 -86 l 447 -219 l 319 -219 l 319 -86 z "},"ḏ":{"ha":811,"x_min":46,"x_max":779,"o":"m 338 -21 q 123 68 200 -21 q 46 322 46 157 q 122 592 46 496 q 343 688 199 688 q 478 667 428 688 q 563 597 529 646 l 563 757 q 551 804 563 790 q 508 818 540 818 l 485 818 l 485 919 l 706 919 l 706 149 q 715 106 706 118 q 751 94 725 94 l 779 94 l 779 0 l 593 0 l 581 97 q 482 7 539 35 q 338 -21 425 -21 m 371 88 q 510 145 460 88 q 560 300 560 203 l 560 371 q 512 526 560 472 q 376 581 464 581 q 234 519 278 581 q 190 324 190 458 q 232 142 190 196 q 371 88 274 88 m 219 -87 l 621 -87 l 621 -183 l 219 -183 l 219 -87 z "},"e":{"ha":749,"x_min":46,"x_max":703,"o":"m 394 -21 q 141 67 236 -21 q 46 325 46 156 q 134 597 46 506 q 385 688 222 688 q 622 599 542 688 q 703 358 703 510 l 703 294 l 193 294 q 248 128 193 182 q 396 75 303 75 q 485 83 449 75 q 550 108 521 90 l 550 158 l 679 158 l 679 61 q 553 -1 621 19 q 394 -21 486 -21 m 560 385 q 383 588 560 588 q 242 533 290 588 q 193 385 193 479 l 560 385 z "},"é":{"ha":749,"x_min":46,"x_max":703,"o":"m 392 979 l 565 979 l 407 731 l 281 731 l 392 979 m 394 -21 q 141 67 236 -21 q 46 325 46 156 q 134 597 46 506 q 385 688 222 688 q 622 599 542 688 q 703 358 703 510 l 703 294 l 193 294 q 248 128 193 182 q 396 75 303 75 q 485 83 449 75 q 550 108 521 90 l 550 158 l 679 158 l 679 61 q 553 -1 621 19 q 394 -21 486 -21 m 560 385 q 383 588 560 588 q 242 533 290 588 q 193 385 193 479 l 560 385 z "},"ĕ":{"ha":749,"x_min":46,"x_max":703,"o":"m 371 731 q 210 785 269 731 q 150 929 150 839 l 271 929 q 297 852 271 879 q 371 825 324 825 q 445 852 419 825 q 471 929 471 879 l 592 929 q 532 785 592 839 q 371 731 472 731 m 394 -21 q 141 67 236 -21 q 46 325 46 156 q 134 597 46 506 q 385 688 222 688 q 622 599 542 688 q 703 358 703 510 l 703 294 l 193 294 q 248 128 193 182 q 396 75 303 75 q 485 83 449 75 q 550 108 521 90 l 550 158 l 679 158 l 679 61 q 553 -1 621 19 q 394 -21 486 -21 m 560 385 q 383 588 560 588 q 242 533 290 588 q 193 385 193 479 l 560 385 z "},"ě":{"ha":749,"x_min":46,"x_max":703,"o":"m 129 990 l 267 990 l 374 815 l 481 990 l 619 990 l 446 729 l 303 729 l 129 990 m 394 -21 q 141 67 236 -21 q 46 325 46 156 q 134 597 46 506 q 385 688 222 688 q 622 599 542 688 q 703 358 703 510 l 703 294 l 193 294 q 248 128 193 182 q 396 75 303 75 q 485 83 449 75 q 550 108 521 90 l 550 158 l 679 158 l 679 61 q 553 -1 621 19 q 394 -21 486 -21 m 560 385 q 383 588 560 588 q 242 533 290 588 q 193 385 193 479 l 560 385 z "},"ê":{"ha":749,"x_min":46,"x_max":703,"o":"m 297 990 l 440 990 l 614 729 l 475 729 l 368 904 l 261 729 l 124 729 l 297 990 m 394 -21 q 141 67 236 -21 q 46 325 46 156 q 134 597 46 506 q 385 688 222 688 q 622 599 542 688 q 703 358 703 510 l 703 294 l 193 294 q 248 128 193 182 q 396 75 303 75 q 485 83 449 75 q 550 108 521 90 l 550 158 l 679 158 l 679 61 q 553 -1 621 19 q 394 -21 486 -21 m 560 385 q 383 588 560 588 q 242 533 290 588 q 193 385 193 479 l 560 385 z "},"ế":{"ha":749,"x_min":46,"x_max":756,"o":"m 599 1058 l 756 1058 l 619 882 l 511 882 l 599 1058 m 304 918 l 443 918 l 592 731 l 460 731 l 374 849 l 285 731 l 156 731 l 304 918 m 394 -21 q 141 67 236 -21 q 46 325 46 156 q 134 597 46 506 q 385 688 222 688 q 622 599 542 688 q 703 358 703 510 l 703 294 l 193 294 q 248 128 193 182 q 396 75 303 75 q 485 83 449 75 q 550 108 521 90 l 550 158 l 679 158 l 679 61 q 553 -1 621 19 q 394 -21 486 -21 m 560 385 q 383 588 560 588 q 242 533 290 588 q 193 385 193 479 l 560 385 z "},"ệ":{"ha":749,"x_min":46,"x_max":703,"o":"m 318 990 l 461 990 l 635 729 l 496 729 l 389 904 l 282 729 l 144 729 l 318 990 m 394 -21 q 141 67 236 -21 q 46 325 46 156 q 134 597 46 506 q 385 688 222 688 q 622 599 542 688 q 703 358 703 510 l 703 294 l 193 294 q 248 128 193 182 q 396 75 303 75 q 485 83 449 75 q 550 108 521 90 l 550 158 l 679 158 l 679 61 q 553 -1 621 19 q 394 -21 486 -21 m 560 385 q 383 588 560 588 q 242 533 290 588 q 193 385 193 479 l 560 385 m 325 -86 l 453 -86 l 453 -219 l 325 -219 l 325 -86 z "},"ề":{"ha":749,"x_min":-43,"x_max":703,"o":"m -43 1058 l 114 1058 l 201 882 l 93 882 l -43 1058 m 294 918 l 433 918 l 582 731 l 453 731 l 364 849 l 278 731 l 146 731 l 294 918 m 394 -21 q 141 67 236 -21 q 46 325 46 156 q 134 597 46 506 q 385 688 222 688 q 622 599 542 688 q 703 358 703 510 l 703 294 l 193 294 q 248 128 193 182 q 396 75 303 75 q 485 83 449 75 q 550 108 521 90 l 550 158 l 679 158 l 679 61 q 553 -1 621 19 q 394 -21 486 -21 m 560 385 q 383 588 560 588 q 242 533 290 588 q 193 385 193 479 l 560 385 z "},"ể":{"ha":749,"x_min":46,"x_max":703,"o":"m 493 969 q 556 980 539 969 q 572 1015 572 990 q 560 1042 572 1033 q 525 1051 547 1051 q 468 1040 499 1051 l 468 1111 q 553 1124 503 1124 q 674 1026 674 1124 q 654 967 674 989 q 592 938 635 946 l 592 906 l 493 906 l 493 969 m 315 918 l 456 918 l 604 731 l 474 731 l 385 849 l 299 731 l 168 731 l 315 918 m 394 -21 q 141 67 236 -21 q 46 325 46 156 q 134 597 46 506 q 385 688 222 688 q 622 599 542 688 q 703 358 703 510 l 703 294 l 193 294 q 248 128 193 182 q 396 75 303 75 q 485 83 449 75 q 550 108 521 90 l 550 158 l 679 158 l 679 61 q 553 -1 621 19 q 394 -21 486 -21 m 560 385 q 383 588 560 588 q 242 533 290 588 q 193 385 193 479 l 560 385 z "},"ễ":{"ha":749,"x_min":46,"x_max":703,"o":"m 467 943 q 418 951 442 943 q 364 976 394 960 q 325 994 344 986 q 290 1001 306 1001 q 257 988 267 1001 q 247 946 247 974 l 165 946 q 194 1050 165 1018 q 282 1082 222 1082 q 331 1074 308 1082 q 385 1049 354 1065 q 404 1039 389 1047 q 432 1027 419 1031 q 454 1024 444 1024 q 488 1038 478 1024 q 497 1079 497 1051 l 579 1079 q 552 975 579 1007 q 467 943 525 943 m 301 918 l 442 918 l 590 731 l 460 731 l 371 849 l 285 731 l 154 731 l 301 918 m 394 -21 q 141 67 236 -21 q 46 325 46 156 q 134 597 46 506 q 385 688 222 688 q 622 599 542 688 q 703 358 703 510 l 703 294 l 193 294 q 248 128 193 182 q 396 75 303 75 q 485 83 449 75 q 550 108 521 90 l 550 158 l 679 158 l 679 61 q 553 -1 621 19 q 394 -21 486 -21 m 560 385 q 383 588 560 588 q 242 533 290 588 q 193 385 193 479 l 560 385 z "},"ë":{"ha":749,"x_min":46,"x_max":703,"o":"m 156 879 l 283 879 l 283 746 l 156 746 l 156 879 m 451 879 l 581 879 l 581 746 l 451 746 l 451 879 m 394 -21 q 141 67 236 -21 q 46 325 46 156 q 134 597 46 506 q 385 688 222 688 q 622 599 542 688 q 703 358 703 510 l 703 294 l 193 294 q 248 128 193 182 q 396 75 303 75 q 485 83 449 75 q 550 108 521 90 l 550 158 l 679 158 l 679 61 q 553 -1 621 19 q 394 -21 486 -21 m 560 385 q 383 588 560 588 q 242 533 290 588 q 193 385 193 479 l 560 385 z "},"ė":{"ha":749,"x_min":46,"x_max":703,"o":"m 310 890 l 438 890 l 438 757 l 310 757 l 310 890 m 394 -21 q 141 67 236 -21 q 46 325 46 156 q 134 597 46 506 q 385 688 222 688 q 622 599 542 688 q 703 358 703 510 l 703 294 l 193 294 q 248 128 193 182 q 396 75 303 75 q 485 83 449 75 q 550 108 521 90 l 550 158 l 679 158 l 679 61 q 553 -1 621 19 q 394 -21 486 -21 m 560 385 q 383 588 560 588 q 242 533 290 588 q 193 385 193 479 l 560 385 z "},"ẹ":{"ha":749,"x_min":46,"x_max":703,"o":"m 394 -21 q 141 67 236 -21 q 46 325 46 156 q 134 597 46 506 q 385 688 222 688 q 622 599 542 688 q 703 358 703 510 l 703 294 l 193 294 q 248 128 193 182 q 396 75 303 75 q 485 83 449 75 q 550 108 521 90 l 550 158 l 679 158 l 679 61 q 553 -1 621 19 q 394 -21 486 -21 m 560 385 q 383 588 560 588 q 242 533 290 588 q 193 385 193 479 l 560 385 m 335 -86 l 463 -86 l 463 -219 l 335 -219 l 335 -86 z "},"è":{"ha":749,"x_min":46,"x_max":703,"o":"m 178 979 l 353 979 l 464 731 l 336 731 l 178 979 m 394 -21 q 141 67 236 -21 q 46 325 46 156 q 134 597 46 506 q 385 688 222 688 q 622 599 542 688 q 703 358 703 510 l 703 294 l 193 294 q 248 128 193 182 q 396 75 303 75 q 485 83 449 75 q 550 108 521 90 l 550 158 l 679 158 l 679 61 q 553 -1 621 19 q 394 -21 486 -21 m 560 385 q 383 588 560 588 q 242 533 290 588 q 193 385 193 479 l 560 385 z "},"ẻ":{"ha":749,"x_min":46,"x_max":703,"o":"m 331 819 q 397 835 378 819 q 417 879 417 850 q 401 917 417 906 q 349 928 386 928 q 281 915 313 928 l 281 997 q 381 1013 321 1013 q 540 896 540 1013 q 450 785 540 810 l 450 729 l 331 729 l 331 819 m 394 -21 q 141 67 236 -21 q 46 325 46 156 q 134 597 46 506 q 385 688 222 688 q 622 599 542 688 q 703 358 703 510 l 703 294 l 193 294 q 248 128 193 182 q 396 75 303 75 q 485 83 449 75 q 550 108 521 90 l 550 158 l 679 158 l 679 61 q 553 -1 621 19 q 394 -21 486 -21 m 560 385 q 383 588 560 588 q 242 533 290 588 q 193 385 193 479 l 560 385 z "},"ē":{"ha":749,"x_min":46,"x_max":703,"o":"m 175 854 l 576 854 l 576 758 l 175 758 l 175 854 m 394 -21 q 141 67 236 -21 q 46 325 46 156 q 134 597 46 506 q 385 688 222 688 q 622 599 542 688 q 703 358 703 510 l 703 294 l 193 294 q 248 128 193 182 q 396 75 303 75 q 485 83 449 75 q 550 108 521 90 l 550 158 l 679 158 l 679 61 q 553 -1 621 19 q 394 -21 486 -21 m 560 385 q 383 588 560 588 q 242 533 290 588 q 193 385 193 479 l 560 385 z "},"ę":{"ha":749,"x_min":46,"x_max":703,"o":"m 703 294 l 193 294 q 248 128 193 182 q 396 75 303 75 q 485 83 449 75 q 550 108 521 90 l 550 158 l 679 158 l 679 61 q 557 0 619 19 q 505 -60 522 -29 q 488 -126 488 -90 q 539 -190 488 -190 q 599 -179 568 -190 l 599 -265 q 515 -290 564 -286 l 481 -289 q 396 -249 428 -283 q 364 -154 364 -215 q 415 -21 364 -79 l 394 -21 q 141 67 236 -21 q 46 325 46 156 q 134 597 46 506 q 385 688 222 688 q 622 599 542 688 q 703 358 703 510 l 703 294 m 560 385 q 383 588 560 588 q 242 533 290 588 q 193 385 193 479 l 560 385 z "},"ẽ":{"ha":749,"x_min":46,"x_max":703,"o":"m 121 731 q 158 874 121 828 q 272 921 194 921 q 339 910 308 921 q 404 878 369 899 q 453 853 435 861 q 493 846 472 846 q 540 863 525 846 q 554 921 554 879 l 663 921 q 626 776 663 821 q 514 731 590 731 q 449 742 478 731 q 385 772 419 753 q 335 796 356 788 q 292 804 314 804 q 244 788 260 804 q 229 731 229 771 l 121 731 m 394 -21 q 141 67 236 -21 q 46 325 46 156 q 134 597 46 506 q 385 688 222 688 q 622 599 542 688 q 703 358 703 510 l 703 294 l 193 294 q 248 128 193 182 q 396 75 303 75 q 485 83 449 75 q 550 108 521 90 l 550 158 l 679 158 l 679 61 q 553 -1 621 19 q 394 -21 486 -21 m 560 385 q 383 588 560 588 q 242 533 290 588 q 193 385 193 479 l 560 385 z "},"f":{"ha":581,"x_min":32,"x_max":615,"o":"m 53 103 l 88 103 q 128 115 115 103 q 140 154 140 126 l 140 565 l 32 565 l 32 667 l 140 667 l 140 703 q 203 877 140 814 q 388 940 267 940 q 615 867 531 940 l 615 760 l 493 760 l 493 813 q 397 840 458 840 q 315 808 343 840 q 288 717 288 776 l 288 667 l 488 667 l 488 565 l 288 565 l 288 154 q 299 115 288 126 q 338 103 310 103 l 371 103 l 371 0 l 53 0 l 53 103 z "},"g":{"ha":811,"x_min":46,"x_max":779,"o":"m 428 -278 q 161 -181 263 -278 l 161 -85 l 289 -85 l 289 -135 q 345 -162 315 -154 q 418 -169 375 -169 q 563 -24 563 -169 l 563 88 q 471 13 525 36 q 342 -11 417 -11 q 123 79 200 -11 q 46 342 46 169 q 127 597 46 507 q 347 688 208 688 q 483 659 428 688 q 581 568 539 631 l 593 668 l 779 668 l 779 572 l 750 572 q 715 559 725 572 q 706 515 706 546 l 706 -1 q 630 -202 706 -126 q 428 -278 554 -278 m 376 97 q 512 149 465 97 q 558 303 558 201 l 558 367 q 511 523 558 465 q 375 581 464 581 q 234 524 278 581 q 190 342 190 468 q 233 153 190 210 q 376 97 276 97 z "},"ğ":{"ha":811,"x_min":46,"x_max":779,"o":"m 399 731 q 238 785 297 731 q 178 929 178 839 l 299 929 q 325 852 299 879 q 399 825 351 825 q 473 852 447 825 q 499 929 499 879 l 619 929 q 560 785 619 839 q 399 731 500 731 m 428 -278 q 161 -181 263 -278 l 161 -85 l 289 -85 l 289 -135 q 345 -162 315 -154 q 418 -169 375 -169 q 563 -24 563 -169 l 563 88 q 471 13 525 36 q 342 -11 417 -11 q 123 79 200 -11 q 46 342 46 169 q 127 597 46 507 q 347 688 208 688 q 483 659 428 688 q 581 568 539 631 l 593 668 l 779 668 l 779 572 l 750 572 q 715 559 725 572 q 706 515 706 546 l 706 -1 q 630 -202 706 -126 q 428 -278 554 -278 m 376 97 q 512 149 465 97 q 558 303 558 201 l 558 367 q 511 523 558 465 q 375 581 464 581 q 234 524 278 581 q 190 342 190 468 q 233 153 190 210 q 376 97 276 97 z "},"ǧ":{"ha":811,"x_min":46,"x_max":779,"o":"m 174 990 l 311 990 l 418 815 l 525 990 l 664 990 l 490 729 l 347 729 l 174 990 m 428 -278 q 161 -181 263 -278 l 161 -85 l 289 -85 l 289 -135 q 345 -162 315 -154 q 418 -169 375 -169 q 563 -24 563 -169 l 563 88 q 471 13 525 36 q 342 -11 417 -11 q 123 79 200 -11 q 46 342 46 169 q 127 597 46 507 q 347 688 208 688 q 483 659 428 688 q 581 568 539 631 l 593 668 l 779 668 l 779 572 l 750 572 q 715 559 725 572 q 706 515 706 546 l 706 -1 q 630 -202 706 -126 q 428 -278 554 -278 m 376 97 q 512 149 465 97 q 558 303 558 201 l 558 367 q 511 523 558 465 q 375 581 464 581 q 234 524 278 581 q 190 342 190 468 q 233 153 190 210 q 376 97 276 97 z "},"ĝ":{"ha":811,"x_min":46,"x_max":779,"o":"m 326 990 l 469 990 l 643 729 l 504 729 l 397 904 l 290 729 l 153 729 l 326 990 m 428 -278 q 161 -181 263 -278 l 161 -85 l 289 -85 l 289 -135 q 345 -162 315 -154 q 418 -169 375 -169 q 563 -24 563 -169 l 563 88 q 471 13 525 36 q 342 -11 417 -11 q 123 79 200 -11 q 46 342 46 169 q 127 597 46 507 q 347 688 208 688 q 483 659 428 688 q 581 568 539 631 l 593 668 l 779 668 l 779 572 l 750 572 q 715 559 725 572 q 706 515 706 546 l 706 -1 q 630 -202 706 -126 q 428 -278 554 -278 m 376 97 q 512 149 465 97 q 558 303 558 201 l 558 367 q 511 523 558 465 q 375 581 464 581 q 234 524 278 581 q 190 342 190 468 q 233 153 190 210 q 376 97 276 97 z "},"ģ":{"ha":811,"x_min":46,"x_max":779,"o":"m 411 1057 l 529 1057 l 486 774 l 325 774 l 411 1057 m 428 -278 q 161 -181 263 -278 l 161 -85 l 289 -85 l 289 -135 q 345 -162 315 -154 q 418 -169 375 -169 q 563 -24 563 -169 l 563 88 q 471 13 525 36 q 342 -11 417 -11 q 123 79 200 -11 q 46 342 46 169 q 127 597 46 507 q 347 688 208 688 q 483 659 428 688 q 581 568 539 631 l 593 668 l 779 668 l 779 572 l 750 572 q 715 559 725 572 q 706 515 706 546 l 706 -1 q 630 -202 706 -126 q 428 -278 554 -278 m 376 97 q 512 149 465 97 q 558 303 558 201 l 558 367 q 511 523 558 465 q 375 581 464 581 q 234 524 278 581 q 190 342 190 468 q 233 153 190 210 q 376 97 276 97 z "},"ġ":{"ha":811,"x_min":46,"x_max":779,"o":"m 328 879 l 456 879 l 456 746 l 328 746 l 328 879 m 428 -278 q 161 -181 263 -278 l 161 -85 l 289 -85 l 289 -135 q 345 -162 315 -154 q 418 -169 375 -169 q 563 -24 563 -169 l 563 88 q 471 13 525 36 q 342 -11 417 -11 q 123 79 200 -11 q 46 342 46 169 q 127 597 46 507 q 347 688 208 688 q 483 659 428 688 q 581 568 539 631 l 593 668 l 779 668 l 779 572 l 750 572 q 715 559 725 572 q 706 515 706 546 l 706 -1 q 630 -202 706 -126 q 428 -278 554 -278 m 376 97 q 512 149 465 97 q 558 303 558 201 l 558 367 q 511 523 558 465 q 375 581 464 581 q 234 524 278 581 q 190 342 190 468 q 233 153 190 210 q 376 97 276 97 z "},"ḡ":{"ha":811,"x_min":46,"x_max":779,"o":"m 188 854 l 589 854 l 589 758 l 188 758 l 188 854 m 428 -278 q 161 -181 263 -278 l 161 -85 l 289 -85 l 289 -135 q 345 -162 315 -154 q 418 -169 375 -169 q 563 -24 563 -169 l 563 88 q 471 13 525 36 q 342 -11 417 -11 q 123 79 200 -11 q 46 342 46 169 q 127 597 46 507 q 347 688 208 688 q 483 659 428 688 q 581 568 539 631 l 593 668 l 779 668 l 779 572 l 750 572 q 715 559 725 572 q 706 515 706 546 l 706 -1 q 630 -202 706 -126 q 428 -278 554 -278 m 376 97 q 512 149 465 97 q 558 303 558 201 l 558 367 q 511 523 558 465 q 375 581 464 581 q 234 524 278 581 q 190 342 190 468 q 233 153 190 210 q 376 97 276 97 z "},"h":{"ha":839,"x_min":46,"x_max":807,"o":"m 46 103 l 81 103 q 120 115 108 103 q 132 154 132 126 l 132 765 q 120 804 132 792 q 81 817 108 817 l 53 817 l 53 919 l 267 919 l 267 597 q 369 667 317 647 q 500 688 421 688 q 663 628 608 688 q 718 457 718 568 l 718 154 q 730 115 718 126 q 768 103 742 103 l 807 103 l 807 0 l 567 0 l 567 456 q 536 557 567 525 q 443 589 506 589 q 326 548 372 589 q 281 435 281 507 l 281 154 q 291 115 281 126 q 326 103 301 103 l 364 103 l 364 0 l 46 0 l 46 103 z "},"ħ":{"ha":839,"x_min":46,"x_max":807,"o":"m 46 103 l 81 103 q 120 115 108 103 q 132 154 132 126 l 132 726 l 46 726 l 46 828 l 132 828 l 132 919 l 267 919 l 267 828 l 450 828 l 450 726 l 267 726 l 267 597 q 369 667 317 647 q 500 688 421 688 q 663 628 608 688 q 718 457 718 568 l 718 154 q 730 115 718 126 q 768 103 742 103 l 807 103 l 807 0 l 567 0 l 567 456 q 536 557 567 525 q 443 589 506 589 q 326 548 372 589 q 281 435 281 507 l 281 154 q 291 115 281 126 q 326 103 301 103 l 364 103 l 364 0 l 46 0 l 46 103 z "},"ḫ":{"ha":839,"x_min":46,"x_max":807,"o":"m 46 103 l 81 103 q 120 115 108 103 q 132 154 132 126 l 132 765 q 120 804 132 792 q 81 817 108 817 l 53 817 l 53 919 l 267 919 l 267 597 q 369 667 317 647 q 500 688 421 688 q 663 628 608 688 q 718 457 718 568 l 718 154 q 730 115 718 126 q 768 103 742 103 l 807 103 l 807 0 l 567 0 l 567 456 q 536 557 567 525 q 443 589 506 589 q 326 548 372 589 q 281 435 281 507 l 281 154 q 291 115 281 126 q 326 103 301 103 l 364 103 l 364 0 l 46 0 l 46 103 m 440 -267 q 279 -212 339 -267 q 219 -67 219 -157 l 340 -67 q 367 -144 340 -117 q 440 -171 393 -171 q 515 -144 489 -171 q 540 -67 540 -117 l 661 -67 q 601 -212 661 -157 q 440 -267 542 -267 z "},"ĥ":{"ha":839,"x_min":46,"x_max":807,"o":"m 235 1235 l 378 1235 l 551 974 l 413 974 l 306 1149 l 199 974 l 61 974 l 235 1235 m 46 103 l 81 103 q 120 115 108 103 q 132 154 132 126 l 132 765 q 120 804 132 792 q 81 817 108 817 l 53 817 l 53 919 l 267 919 l 267 597 q 369 667 317 647 q 500 688 421 688 q 663 628 608 688 q 718 457 718 568 l 718 154 q 730 115 718 126 q 768 103 742 103 l 807 103 l 807 0 l 567 0 l 567 456 q 536 557 567 525 q 443 589 506 589 q 326 548 372 589 q 281 435 281 507 l 281 154 q 291 115 281 126 q 326 103 301 103 l 364 103 l 364 0 l 46 0 l 46 103 z "},"ḥ":{"ha":839,"x_min":46,"x_max":807,"o":"m 46 103 l 81 103 q 120 115 108 103 q 132 154 132 126 l 132 765 q 120 804 132 792 q 81 817 108 817 l 53 817 l 53 919 l 267 919 l 267 597 q 369 667 317 647 q 500 688 421 688 q 663 628 608 688 q 718 457 718 568 l 718 154 q 730 115 718 126 q 768 103 742 103 l 807 103 l 807 0 l 567 0 l 567 456 q 536 557 567 525 q 443 589 506 589 q 326 548 372 589 q 281 435 281 507 l 281 154 q 291 115 281 126 q 326 103 301 103 l 364 103 l 364 0 l 46 0 l 46 103 m 363 -86 l 490 -86 l 490 -219 l 363 -219 l 363 -86 z "},"i":{"ha":396,"x_min":32,"x_max":364,"o":"m 119 900 l 276 900 l 276 772 l 119 772 l 119 900 m 32 103 l 72 103 q 112 115 100 103 q 124 156 124 128 l 124 513 q 112 551 124 539 q 72 563 100 563 l 32 563 l 32 667 l 272 667 l 272 154 q 285 115 272 128 q 324 103 297 103 l 364 103 l 364 0 l 32 0 l 32 103 z "},"ı":{"ha":396,"x_min":32,"x_max":364,"o":"m 32 103 l 72 103 q 112 115 100 103 q 124 156 124 128 l 124 513 q 112 551 124 539 q 72 563 100 563 l 32 563 l 32 667 l 272 667 l 272 154 q 285 115 272 128 q 324 103 297 103 l 364 103 l 364 0 l 32 0 l 32 103 z "},"í":{"ha":396,"x_min":32,"x_max":392,"o":"m 218 979 l 392 979 l 233 731 l 107 731 l 218 979 m 32 103 l 72 103 q 112 115 100 103 q 124 156 124 128 l 124 513 q 112 551 124 539 q 72 563 100 563 l 32 563 l 32 667 l 272 667 l 272 154 q 285 115 272 128 q 324 103 297 103 l 364 103 l 364 0 l 32 0 l 32 103 z "},"ĭ":{"ha":396,"x_min":-43,"x_max":399,"o":"m 178 731 q 17 785 76 731 q -43 929 -43 839 l 78 929 q 104 852 78 879 q 178 825 131 825 q 252 852 226 825 q 278 929 278 879 l 399 929 q 339 785 399 839 q 178 731 279 731 m 32 103 l 72 103 q 112 115 100 103 q 124 156 124 128 l 124 513 q 112 551 124 539 q 72 563 100 563 l 32 563 l 32 667 l 272 667 l 272 154 q 285 115 272 128 q 324 103 297 103 l 364 103 l 364 0 l 32 0 l 32 103 z "},"ǐ":{"ha":396,"x_min":-65,"x_max":425,"o":"m -65 990 l 72 990 l 179 815 l 286 990 l 425 990 l 251 729 l 108 729 l -65 990 m 32 103 l 72 103 q 112 115 100 103 q 124 156 124 128 l 124 513 q 112 551 124 539 q 72 563 100 563 l 32 563 l 32 667 l 272 667 l 272 154 q 285 115 272 128 q 324 103 297 103 l 364 103 l 364 0 l 32 0 l 32 103 z "},"î":{"ha":396,"x_min":-72,"x_max":418,"o":"m 101 992 l 244 992 l 418 731 l 279 731 l 172 906 l 65 731 l -72 731 l 101 992 m 32 103 l 72 103 q 112 115 100 103 q 124 156 124 128 l 124 513 q 112 551 124 539 q 72 563 100 563 l 32 563 l 32 667 l 272 667 l 272 154 q 285 115 272 128 q 324 103 297 103 l 364 103 l 364 0 l 32 0 l 32 103 z "},"ï":{"ha":396,"x_min":-50,"x_max":375,"o":"m -50 890 l 78 890 l 78 757 l -50 757 l -50 890 m 246 890 l 375 890 l 375 757 l 246 757 l 246 890 m 32 103 l 72 103 q 112 115 100 103 q 124 156 124 128 l 124 513 q 112 551 124 539 q 72 563 100 563 l 32 563 l 32 667 l 272 667 l 272 154 q 285 115 272 128 q 324 103 297 103 l 364 103 l 364 0 l 32 0 l 32 103 z "},"ị":{"ha":396,"x_min":32,"x_max":364,"o":"m 119 900 l 276 900 l 276 772 l 119 772 l 119 900 m 32 103 l 72 103 q 112 115 100 103 q 124 156 124 128 l 124 513 q 112 551 124 539 q 72 563 100 563 l 32 563 l 32 667 l 272 667 l 272 154 q 285 115 272 128 q 324 103 297 103 l 364 103 l 364 0 l 32 0 l 32 103 m 135 -86 l 263 -86 l 263 -219 l 135 -219 l 135 -86 z "},"ì":{"ha":396,"x_min":-22,"x_max":364,"o":"m -22 979 l 153 979 l 264 731 l 136 731 l -22 979 m 32 103 l 72 103 q 112 115 100 103 q 124 156 124 128 l 124 513 q 112 551 124 539 q 72 563 100 563 l 32 563 l 32 667 l 272 667 l 272 154 q 285 115 272 128 q 324 103 297 103 l 364 103 l 364 0 l 32 0 l 32 103 z "},"ỉ":{"ha":396,"x_min":32,"x_max":364,"o":"m 122 800 q 189 815 169 800 q 208 860 208 831 q 193 897 208 886 q 140 908 178 908 q 72 896 104 908 l 72 978 q 172 993 113 993 q 332 876 332 993 q 242 765 332 790 l 242 710 l 122 710 l 122 800 m 32 103 l 72 103 q 112 115 100 103 q 124 156 124 128 l 124 513 q 112 551 124 539 q 72 563 100 563 l 32 563 l 32 667 l 272 667 l 272 154 q 285 115 272 128 q 324 103 297 103 l 364 103 l 364 0 l 32 0 l 32 103 z "},"ĳ":{"ha":763,"x_min":32,"x_max":689,"o":"m 119 900 l 276 900 l 276 772 l 119 772 l 119 900 m 532 900 l 689 900 l 689 772 l 532 772 l 532 900 m 32 103 l 72 103 q 112 115 100 103 q 124 156 124 128 l 124 513 q 112 551 124 539 q 72 563 100 563 l 32 563 l 32 667 l 272 667 l 272 154 q 285 115 272 128 q 324 103 297 103 l 364 103 l 364 0 l 32 0 l 32 103 m 438 -240 q 306 -220 363 -240 q 203 -160 249 -200 l 203 -44 l 328 -44 l 328 -106 q 373 -133 350 -125 q 429 -140 396 -140 q 510 -112 483 -140 q 536 -17 536 -83 l 536 513 q 524 551 536 539 q 485 563 513 563 l 444 563 l 444 667 l 685 667 l 685 0 q 622 -180 685 -119 q 438 -240 558 -240 z "},"ī":{"ha":396,"x_min":-19,"x_max":383,"o":"m -19 854 l 383 854 l 383 758 l -19 758 l -19 854 m 32 103 l 72 103 q 112 115 100 103 q 124 156 124 128 l 124 513 q 112 551 124 539 q 72 563 100 563 l 32 563 l 32 667 l 272 667 l 272 154 q 285 115 272 128 q 324 103 297 103 l 364 103 l 364 0 l 32 0 l 32 103 z "},"į":{"ha":396,"x_min":32,"x_max":364,"o":"m 276 772 l 119 772 l 119 900 l 276 900 l 276 772 m 271 0 q 219 -60 236 -29 q 201 -126 201 -90 q 253 -190 201 -190 q 311 -179 281 -190 l 311 -265 q 219 -290 276 -290 q 117 -256 156 -290 q 78 -154 78 -222 q 97 -69 78 -110 q 149 0 115 -29 l 32 0 l 32 103 l 72 103 q 112 115 100 103 q 124 156 124 128 l 124 513 q 112 551 124 539 q 72 563 100 563 l 32 563 l 32 667 l 272 667 l 272 154 q 285 115 272 128 q 324 103 297 103 l 364 103 l 364 0 l 271 0 z "},"ĩ":{"ha":396,"x_min":-101,"x_max":440,"o":"m -101 739 q -65 883 -101 836 q 50 929 -28 929 q 117 918 86 929 q 182 886 147 907 q 231 862 213 869 q 271 854 250 854 q 317 871 303 854 q 332 929 332 888 l 440 929 q 404 784 440 829 q 292 739 368 739 q 226 750 256 739 q 163 781 197 761 q 113 804 133 796 q 69 813 92 813 q 22 796 38 813 q 7 739 7 779 l -101 739 m 32 103 l 72 103 q 112 115 100 103 q 124 156 124 128 l 124 513 q 112 551 124 539 q 72 563 100 563 l 32 563 l 32 667 l 272 667 l 272 154 q 285 115 272 128 q 324 103 297 103 l 364 103 l 364 0 l 32 0 l 32 103 z "},"j":{"ha":518,"x_min":-37,"x_max":449,"o":"m 292 900 l 449 900 l 449 772 l 292 772 l 292 900 m 197 -240 q 65 -220 122 -240 q -37 -160 8 -200 l -37 -44 l 88 -44 l 88 -106 q 133 -133 110 -125 q 189 -140 156 -140 q 269 -112 243 -140 q 296 -17 296 -83 l 296 513 q 284 551 296 539 q 244 563 272 563 l 204 563 l 204 667 l 444 667 l 444 0 q 381 -180 444 -119 q 197 -240 318 -240 z "},"ȷ":{"ha":518,"x_min":-37,"x_max":444,"o":"m 197 -240 q 65 -220 122 -240 q -37 -160 8 -200 l -37 -44 l 88 -44 l 88 -106 q 133 -133 110 -125 q 189 -140 156 -140 q 269 -112 243 -140 q 296 -17 296 -83 l 296 513 q 284 551 296 539 q 244 563 272 563 l 204 563 l 204 667 l 444 667 l 444 0 q 381 -180 444 -119 q 197 -240 318 -240 z "},"ĵ":{"ha":518,"x_min":-37,"x_max":581,"o":"m 264 1001 l 407 1001 l 581 740 l 442 740 l 335 915 l 228 740 l 90 740 l 264 1001 m 197 -240 q 65 -220 122 -240 q -37 -160 8 -200 l -37 -44 l 88 -44 l 88 -106 q 133 -133 110 -125 q 189 -140 156 -140 q 269 -112 243 -140 q 296 -17 296 -83 l 296 513 q 284 551 296 539 q 244 563 272 563 l 204 563 l 204 667 l 444 667 l 444 0 q 381 -180 444 -119 q 197 -240 318 -240 z "},"k":{"ha":804,"x_min":46,"x_max":772,"o":"m 46 99 l 83 99 q 122 109 111 99 q 132 146 132 119 l 132 776 q 122 813 132 803 q 86 824 113 824 l 54 824 l 54 919 l 353 919 l 353 824 l 314 824 q 279 813 289 824 q 269 776 269 803 l 269 368 l 494 569 l 426 569 l 426 667 l 743 667 l 743 569 l 679 569 q 646 564 657 569 q 615 542 635 558 l 478 421 l 646 136 q 673 106 660 114 q 714 99 686 99 l 772 99 l 772 0 l 586 0 l 381 340 l 269 242 l 269 146 q 280 109 269 119 q 318 99 290 99 l 361 99 l 361 0 l 46 0 l 46 99 z "},"ķ":{"ha":804,"x_min":46,"x_max":772,"o":"m 46 99 l 83 99 q 122 109 111 99 q 132 146 132 119 l 132 776 q 122 813 132 803 q 86 824 113 824 l 54 824 l 54 919 l 353 919 l 353 824 l 314 824 q 279 813 289 824 q 269 776 269 803 l 269 368 l 494 569 l 426 569 l 426 667 l 743 667 l 743 569 l 679 569 q 646 564 657 569 q 615 542 635 558 l 478 421 l 646 136 q 673 106 660 114 q 714 99 686 99 l 772 99 l 772 0 l 586 0 l 381 340 l 269 242 l 269 146 q 280 109 269 119 q 318 99 290 99 l 361 99 l 361 0 l 46 0 l 46 99 m 346 -68 l 507 -68 l 421 -351 l 303 -351 l 346 -68 z "},"ĸ":{"ha":808,"x_min":46,"x_max":763,"o":"m 46 99 l 83 99 q 117 107 107 99 q 130 129 128 115 q 132 176 132 143 l 132 524 q 122 560 132 550 q 86 571 113 571 l 54 571 l 54 667 l 342 667 l 342 571 l 314 571 q 276 556 283 571 q 269 497 269 542 l 269 353 l 490 569 l 432 569 l 432 667 l 740 667 l 740 569 l 679 569 q 635 558 653 569 q 586 515 618 547 l 468 406 l 635 138 q 663 108 649 117 q 704 99 678 99 l 763 99 l 763 0 l 519 0 l 503 38 l 556 38 l 376 325 l 269 225 l 269 146 q 280 109 269 119 q 318 99 290 99 l 361 99 l 361 0 l 46 0 l 46 99 z "},"l":{"ha":410,"x_min":46,"x_max":378,"o":"m 46 103 l 86 103 q 126 115 114 103 q 138 156 138 128 l 138 765 q 126 803 138 792 q 86 815 114 815 l 46 815 l 46 919 l 286 919 l 286 154 q 299 115 286 128 q 338 103 311 103 l 378 103 l 378 0 l 46 0 l 46 103 z "},"ĺ":{"ha":410,"x_min":46,"x_max":413,"o":"m 239 1222 l 413 1222 l 254 974 l 128 974 l 239 1222 m 46 103 l 86 103 q 126 115 114 103 q 138 156 138 128 l 138 765 q 126 803 138 792 q 86 815 114 815 l 46 815 l 46 919 l 286 919 l 286 154 q 299 115 286 128 q 338 103 311 103 l 378 103 l 378 0 l 46 0 l 46 103 z "},"ľ":{"ha":561,"x_min":46,"x_max":588,"o":"m 426 1056 l 588 1056 l 501 772 l 383 772 l 426 1056 m 46 103 l 86 103 q 126 115 114 103 q 138 156 138 128 l 138 765 q 126 803 138 792 q 86 815 114 815 l 46 815 l 46 919 l 286 919 l 286 154 q 299 115 286 128 q 338 103 311 103 l 378 103 l 378 0 l 46 0 l 46 103 z "},"ļ":{"ha":410,"x_min":46,"x_max":378,"o":"m 46 103 l 86 103 q 126 115 114 103 q 138 156 138 128 l 138 765 q 126 803 138 792 q 86 815 114 815 l 46 815 l 46 919 l 286 919 l 286 154 q 299 115 286 128 q 338 103 311 103 l 378 103 l 378 0 l 46 0 l 46 103 m 144 -68 l 306 -68 l 219 -351 l 101 -351 l 144 -68 z "},"ŀ":{"ha":524,"x_min":46,"x_max":533,"o":"m 46 103 l 86 103 q 126 115 114 103 q 138 156 138 128 l 138 765 q 126 803 138 792 q 86 815 114 815 l 46 815 l 46 919 l 286 919 l 286 154 q 299 115 286 128 q 338 103 311 103 l 378 103 l 378 0 l 46 0 l 46 103 m 404 528 l 533 528 l 533 394 l 404 394 l 404 528 z "},"ḷ":{"ha":410,"x_min":46,"x_max":378,"o":"m 46 103 l 86 103 q 126 115 114 103 q 138 156 138 128 l 138 765 q 126 803 138 792 q 86 815 114 815 l 46 815 l 46 919 l 286 919 l 286 154 q 299 115 286 128 q 338 103 311 103 l 378 103 l 378 0 l 46 0 l 46 103 m 147 -86 l 275 -86 l 275 -219 l 147 -219 l 147 -86 z "},"ḹ":{"ha":410,"x_min":-26,"x_max":378,"o":"m -26 1075 l 375 1075 l 375 979 l -26 979 l -26 1075 m 46 103 l 86 103 q 126 115 114 103 q 138 156 138 128 l 138 765 q 126 803 138 792 q 86 815 114 815 l 46 815 l 46 919 l 286 919 l 286 154 q 299 115 286 128 q 338 103 311 103 l 378 103 l 378 0 l 46 0 l 46 103 m 149 -86 l 276 -86 l 276 -219 l 149 -219 l 149 -86 z "},"ḻ":{"ha":410,"x_min":15,"x_max":417,"o":"m 46 103 l 86 103 q 126 115 114 103 q 138 156 138 128 l 138 765 q 126 803 138 792 q 86 815 114 815 l 46 815 l 46 919 l 286 919 l 286 154 q 299 115 286 128 q 338 103 311 103 l 378 103 l 378 0 l 46 0 l 46 103 m 15 -87 l 417 -87 l 417 -183 l 15 -183 l 15 -87 z "},"ł":{"ha":429,"x_min":32,"x_max":411,"o":"m 51 103 l 92 103 q 131 115 119 103 q 143 156 143 128 l 143 369 l 32 306 l 32 417 l 143 481 l 143 765 q 131 803 143 792 q 92 815 119 815 l 51 815 l 51 919 l 292 919 l 292 567 l 411 636 l 411 525 l 292 456 l 292 154 q 304 115 292 128 q 343 103 317 103 l 383 103 l 383 0 l 51 0 l 51 103 z "},"m":{"ha":1189,"x_min":46,"x_max":1157,"o":"m 46 103 l 81 103 q 120 115 108 103 q 132 154 132 126 l 132 513 q 120 551 132 539 q 81 563 108 563 l 53 563 l 53 667 l 226 667 l 236 572 q 330 659 274 631 q 467 688 386 688 q 572 660 528 688 q 639 581 617 632 q 724 662 674 636 q 851 688 775 688 q 1016 631 965 688 q 1067 460 1067 574 l 1067 154 q 1079 115 1067 128 q 1118 103 1092 103 l 1157 103 l 1157 0 l 921 0 l 921 460 q 894 558 921 529 q 806 588 868 588 q 705 551 742 588 q 668 446 668 515 l 668 154 q 678 115 668 126 q 715 103 689 103 l 753 103 l 753 0 l 531 0 l 531 456 q 504 556 531 524 q 421 588 478 588 q 314 549 351 588 q 276 435 276 510 l 276 154 q 287 115 276 126 q 324 103 297 103 l 361 103 l 361 0 l 46 0 l 46 103 z "},"ṃ":{"ha":1189,"x_min":46,"x_max":1157,"o":"m 46 103 l 81 103 q 120 115 108 103 q 132 154 132 126 l 132 513 q 120 551 132 539 q 81 563 108 563 l 53 563 l 53 667 l 226 667 l 236 572 q 330 659 274 631 q 467 688 386 688 q 572 660 528 688 q 639 581 617 632 q 724 662 674 636 q 851 688 775 688 q 1016 631 965 688 q 1067 460 1067 574 l 1067 154 q 1079 115 1067 128 q 1118 103 1092 103 l 1157 103 l 1157 0 l 921 0 l 921 460 q 894 558 921 529 q 806 588 868 588 q 705 551 742 588 q 668 446 668 515 l 668 154 q 678 115 668 126 q 715 103 689 103 l 753 103 l 753 0 l 531 0 l 531 456 q 504 556 531 524 q 421 588 478 588 q 314 549 351 588 q 276 435 276 510 l 276 154 q 287 115 276 126 q 324 103 297 103 l 361 103 l 361 0 l 46 0 l 46 103 m 540 -86 l 668 -86 l 668 -219 l 540 -219 l 540 -86 z "},"n":{"ha":838,"x_min":46,"x_max":806,"o":"m 46 103 l 81 103 q 120 115 108 103 q 132 154 132 126 l 132 511 q 121 551 132 539 q 82 563 110 563 l 53 563 l 53 667 l 231 667 l 239 574 q 347 660 286 633 q 493 688 407 688 q 715 457 715 688 l 715 154 q 727 115 715 126 q 767 103 739 103 l 806 103 l 806 0 l 567 0 l 567 456 q 538 556 567 525 q 443 588 508 588 q 326 547 372 588 q 281 435 281 507 l 281 154 q 291 115 281 126 q 328 103 301 103 l 364 103 l 364 0 l 46 0 l 46 103 z "},"ń":{"ha":838,"x_min":46,"x_max":806,"o":"m 414 979 l 588 979 l 429 731 l 303 731 l 414 979 m 46 103 l 81 103 q 120 115 108 103 q 132 154 132 126 l 132 511 q 121 551 132 539 q 82 563 110 563 l 53 563 l 53 667 l 231 667 l 239 574 q 347 660 286 633 q 493 688 407 688 q 715 457 715 688 l 715 154 q 727 115 715 126 q 767 103 739 103 l 806 103 l 806 0 l 567 0 l 567 456 q 538 556 567 525 q 443 588 508 588 q 326 547 372 588 q 281 435 281 507 l 281 154 q 291 115 281 126 q 328 103 301 103 l 364 103 l 364 0 l 46 0 l 46 103 z "},"ŉ":{"ha":1011,"x_min":63,"x_max":979,"o":"m 106 992 l 267 992 l 181 708 l 63 708 l 106 992 m 219 103 l 254 103 q 294 115 282 103 q 306 154 306 126 l 306 511 q 294 551 306 539 q 256 563 283 563 l 226 563 l 226 667 l 404 667 l 413 574 q 520 660 460 633 q 667 688 581 688 q 889 457 889 688 l 889 154 q 901 115 889 126 q 940 103 913 103 l 979 103 l 979 0 l 740 0 l 740 456 q 711 556 740 525 q 617 588 682 588 q 500 547 546 588 q 454 435 454 507 l 454 154 q 465 115 454 126 q 501 103 475 103 l 538 103 l 538 0 l 219 0 l 219 103 z "},"ň":{"ha":838,"x_min":46,"x_max":806,"o":"m 157 990 l 294 990 l 401 815 l 508 990 l 647 990 l 474 729 l 331 729 l 157 990 m 46 103 l 81 103 q 120 115 108 103 q 132 154 132 126 l 132 511 q 121 551 132 539 q 82 563 110 563 l 53 563 l 53 667 l 231 667 l 239 574 q 347 660 286 633 q 493 688 407 688 q 715 457 715 688 l 715 154 q 727 115 715 126 q 767 103 739 103 l 806 103 l 806 0 l 567 0 l 567 456 q 538 556 567 525 q 443 588 508 588 q 326 547 372 588 q 281 435 281 507 l 281 154 q 291 115 281 126 q 328 103 301 103 l 364 103 l 364 0 l 46 0 l 46 103 z "},"ņ":{"ha":838,"x_min":46,"x_max":806,"o":"m 46 103 l 81 103 q 120 115 108 103 q 132 154 132 126 l 132 511 q 121 551 132 539 q 82 563 110 563 l 53 563 l 53 667 l 231 667 l 239 574 q 347 660 286 633 q 493 688 407 688 q 715 457 715 688 l 715 154 q 727 115 715 126 q 767 103 739 103 l 806 103 l 806 0 l 567 0 l 567 456 q 538 556 567 525 q 443 588 508 588 q 326 547 372 588 q 281 435 281 507 l 281 154 q 291 115 281 126 q 328 103 301 103 l 364 103 l 364 0 l 46 0 l 46 103 m 415 -68 l 576 -68 l 490 -351 l 372 -351 l 415 -68 z "},"ṅ":{"ha":838,"x_min":46,"x_max":806,"o":"m 349 890 l 476 890 l 476 757 l 349 757 l 349 890 m 46 103 l 81 103 q 120 115 108 103 q 132 154 132 126 l 132 511 q 121 551 132 539 q 82 563 110 563 l 53 563 l 53 667 l 231 667 l 239 574 q 347 660 286 633 q 493 688 407 688 q 715 457 715 688 l 715 154 q 727 115 715 126 q 767 103 739 103 l 806 103 l 806 0 l 567 0 l 567 456 q 538 556 567 525 q 443 588 508 588 q 326 547 372 588 q 281 435 281 507 l 281 154 q 291 115 281 126 q 328 103 301 103 l 364 103 l 364 0 l 46 0 l 46 103 z "},"ṇ":{"ha":838,"x_min":46,"x_max":806,"o":"m 46 103 l 81 103 q 120 115 108 103 q 132 154 132 126 l 132 511 q 121 551 132 539 q 82 563 110 563 l 53 563 l 53 667 l 231 667 l 239 574 q 347 660 286 633 q 493 688 407 688 q 715 457 715 688 l 715 154 q 727 115 715 126 q 767 103 739 103 l 806 103 l 806 0 l 567 0 l 567 456 q 538 556 567 525 q 443 588 508 588 q 326 547 372 588 q 281 435 281 507 l 281 154 q 291 115 281 126 q 328 103 301 103 l 364 103 l 364 0 l 46 0 l 46 103 m 353 -86 l 481 -86 l 481 -219 l 353 -219 l 353 -86 z "},"ŋ":{"ha":799,"x_min":46,"x_max":715,"o":"m 468 -361 q 335 -341 392 -361 q 233 -281 279 -321 l 233 -165 l 358 -165 l 358 -229 q 403 -255 382 -249 q 460 -261 425 -261 q 540 -233 514 -261 q 567 -137 567 -204 l 567 456 q 538 556 567 525 q 443 588 508 588 q 326 547 372 588 q 281 435 281 507 l 281 154 q 291 115 281 126 q 328 103 301 103 l 364 103 l 364 0 l 46 0 l 46 103 l 81 103 q 120 115 108 103 q 132 154 132 126 l 132 511 q 121 551 132 539 q 82 563 110 563 l 53 563 l 53 667 l 231 667 l 239 574 q 347 660 286 633 q 493 688 407 688 q 715 457 715 688 l 715 -121 q 652 -301 715 -240 q 468 -361 589 -361 z "},"ṉ":{"ha":838,"x_min":46,"x_max":806,"o":"m 46 103 l 81 103 q 120 115 108 103 q 132 154 132 126 l 132 511 q 121 551 132 539 q 82 563 110 563 l 53 563 l 53 667 l 231 667 l 239 574 q 347 660 286 633 q 493 688 407 688 q 715 457 715 688 l 715 154 q 727 115 715 126 q 767 103 739 103 l 806 103 l 806 0 l 567 0 l 567 456 q 538 556 567 525 q 443 588 508 588 q 326 547 372 588 q 281 435 281 507 l 281 154 q 291 115 281 126 q 328 103 301 103 l 364 103 l 364 0 l 46 0 l 46 103 m 222 -87 l 624 -87 l 624 -183 l 222 -183 l 222 -87 z "},"ñ":{"ha":838,"x_min":46,"x_max":806,"o":"m 129 731 q 166 874 129 828 q 281 921 203 921 q 347 910 317 921 q 413 878 378 899 q 462 853 443 861 q 501 846 481 846 q 548 863 533 846 q 563 921 563 879 l 671 921 q 635 776 671 821 q 522 731 599 731 q 457 742 486 731 q 393 772 428 753 q 343 796 364 788 q 300 804 322 804 q 253 788 268 804 q 238 731 238 771 l 129 731 m 46 103 l 81 103 q 120 115 108 103 q 132 154 132 126 l 132 511 q 121 551 132 539 q 82 563 110 563 l 53 563 l 53 667 l 231 667 l 239 574 q 347 660 286 633 q 493 688 407 688 q 715 457 715 688 l 715 154 q 727 115 715 126 q 767 103 739 103 l 806 103 l 806 0 l 567 0 l 567 456 q 538 556 567 525 q 443 588 508 588 q 326 547 372 588 q 281 435 281 507 l 281 154 q 291 115 281 126 q 328 103 301 103 l 364 103 l 364 0 l 46 0 l 46 103 z "},"o":{"ha":775,"x_min":46,"x_max":729,"o":"m 388 -21 q 132 72 218 -21 q 46 332 46 165 q 131 594 46 500 q 388 688 217 688 q 644 594 558 688 q 729 332 729 500 q 643 72 729 165 q 388 -21 557 -21 m 388 83 q 536 144 488 83 q 585 332 585 206 q 536 522 585 460 q 388 583 488 583 q 240 522 288 583 q 192 332 192 460 q 240 144 192 206 q 388 83 288 83 z "},"ó":{"ha":775,"x_min":46,"x_max":729,"o":"m 406 979 l 579 979 l 421 731 l 294 731 l 406 979 m 388 -21 q 132 72 218 -21 q 46 332 46 165 q 131 594 46 500 q 388 688 217 688 q 644 594 558 688 q 729 332 729 500 q 643 72 729 165 q 388 -21 557 -21 m 388 83 q 536 144 488 83 q 585 332 585 206 q 536 522 585 460 q 388 583 488 583 q 240 522 288 583 q 192 332 192 460 q 240 144 192 206 q 388 83 288 83 z "},"ŏ":{"ha":775,"x_min":46,"x_max":729,"o":"m 390 731 q 229 785 289 731 q 169 929 169 839 l 290 929 q 317 852 290 879 q 390 825 343 825 q 465 852 439 825 q 490 929 490 879 l 611 929 q 551 785 611 839 q 390 731 492 731 m 388 -21 q 132 72 218 -21 q 46 332 46 165 q 131 594 46 500 q 388 688 217 688 q 644 594 558 688 q 729 332 729 500 q 643 72 729 165 q 388 -21 557 -21 m 388 83 q 536 144 488 83 q 585 332 585 206 q 536 522 585 460 q 388 583 488 583 q 240 522 288 583 q 192 332 192 460 q 240 144 192 206 q 388 83 288 83 z "},"ǒ":{"ha":775,"x_min":46,"x_max":729,"o":"m 143 990 l 281 990 l 388 815 l 494 990 l 633 990 l 460 729 l 317 729 l 143 990 m 388 -21 q 132 72 218 -21 q 46 332 46 165 q 131 594 46 500 q 388 688 217 688 q 644 594 558 688 q 729 332 729 500 q 643 72 729 165 q 388 -21 557 -21 m 388 83 q 536 144 488 83 q 585 332 585 206 q 536 522 585 460 q 388 583 488 583 q 240 522 288 583 q 192 332 192 460 q 240 144 192 206 q 388 83 288 83 z "},"ô":{"ha":775,"x_min":46,"x_max":729,"o":"m 300 990 l 443 990 l 617 729 l 478 729 l 371 904 l 264 729 l 126 729 l 300 990 m 388 -21 q 132 72 218 -21 q 46 332 46 165 q 131 594 46 500 q 388 688 217 688 q 644 594 558 688 q 729 332 729 500 q 643 72 729 165 q 388 -21 557 -21 m 388 83 q 536 144 488 83 q 585 332 585 206 q 536 522 585 460 q 388 583 488 583 q 240 522 288 583 q 192 332 192 460 q 240 144 192 206 q 388 83 288 83 z "},"ố":{"ha":775,"x_min":46,"x_max":765,"o":"m 608 1058 l 765 1058 l 629 882 l 521 882 l 608 1058 m 314 918 l 453 918 l 601 731 l 469 731 l 383 849 l 294 731 l 165 731 l 314 918 m 388 -21 q 132 72 218 -21 q 46 332 46 165 q 131 594 46 500 q 388 688 217 688 q 644 594 558 688 q 729 332 729 500 q 643 72 729 165 q 388 -21 557 -21 m 388 83 q 536 144 488 83 q 585 332 585 206 q 536 522 585 460 q 388 583 488 583 q 240 522 288 583 q 192 332 192 460 q 240 144 192 206 q 388 83 288 83 z "},"ộ":{"ha":775,"x_min":46,"x_max":729,"o":"m 318 990 l 461 990 l 635 729 l 496 729 l 389 904 l 282 729 l 144 729 l 318 990 m 388 -21 q 132 72 218 -21 q 46 332 46 165 q 131 594 46 500 q 388 688 217 688 q 644 594 558 688 q 729 332 729 500 q 643 72 729 165 q 388 -21 557 -21 m 388 83 q 536 144 488 83 q 585 332 585 206 q 536 522 585 460 q 388 583 488 583 q 240 522 288 583 q 192 332 192 460 q 240 144 192 206 q 388 83 288 83 m 325 -86 l 453 -86 l 453 -219 l 325 -219 l 325 -86 z "},"ồ":{"ha":775,"x_min":-37,"x_max":729,"o":"m -37 1058 l 119 1058 l 207 882 l 99 882 l -37 1058 m 304 918 l 443 918 l 592 731 l 463 731 l 374 849 l 288 731 l 156 731 l 304 918 m 388 -21 q 132 72 218 -21 q 46 332 46 165 q 131 594 46 500 q 388 688 217 688 q 644 594 558 688 q 729 332 729 500 q 643 72 729 165 q 388 -21 557 -21 m 388 83 q 536 144 488 83 q 585 332 585 206 q 536 522 585 460 q 388 583 488 583 q 240 522 288 583 q 192 332 192 460 q 240 144 192 206 q 388 83 288 83 z "},"ổ":{"ha":775,"x_min":46,"x_max":729,"o":"m 481 969 q 543 980 526 969 q 560 1015 560 990 q 547 1042 560 1033 q 513 1051 535 1051 q 456 1040 486 1051 l 456 1111 q 540 1124 490 1124 q 661 1026 661 1124 q 642 967 661 989 q 579 938 622 946 l 579 906 l 481 906 l 481 969 m 303 918 l 443 918 l 592 731 l 461 731 l 372 849 l 286 731 l 156 731 l 303 918 m 388 -21 q 132 72 218 -21 q 46 332 46 165 q 131 594 46 500 q 388 688 217 688 q 644 594 558 688 q 729 332 729 500 q 643 72 729 165 q 388 -21 557 -21 m 388 83 q 536 144 488 83 q 585 332 585 206 q 536 522 585 460 q 388 583 488 583 q 240 522 288 583 q 192 332 192 460 q 240 144 192 206 q 388 83 288 83 z "},"ỗ":{"ha":775,"x_min":46,"x_max":729,"o":"m 479 983 q 431 992 454 983 q 376 1017 407 1000 q 338 1034 357 1026 q 303 1042 318 1042 q 269 1028 279 1042 q 260 986 260 1014 l 178 986 q 206 1090 178 1058 q 294 1122 235 1122 q 344 1114 321 1122 q 397 1089 367 1106 q 417 1079 401 1088 q 444 1067 432 1071 q 467 1064 457 1064 q 499 1078 490 1064 q 508 1119 508 1092 l 590 1119 q 564 1015 590 1047 q 479 983 538 983 m 385 731 q 223 786 288 731 q 158 938 158 842 l 263 938 q 294 851 263 882 q 385 821 326 821 q 476 851 444 821 q 508 938 508 882 l 613 938 q 548 786 613 842 q 385 731 483 731 m 388 -21 q 132 72 218 -21 q 46 332 46 165 q 131 594 46 500 q 388 688 217 688 q 644 594 558 688 q 729 332 729 500 q 643 72 729 165 q 388 -21 557 -21 m 388 83 q 536 144 488 83 q 585 332 585 206 q 536 522 585 460 q 388 583 488 583 q 240 522 288 583 q 192 332 192 460 q 240 144 192 206 q 388 83 288 83 z "},"ö":{"ha":775,"x_min":46,"x_max":729,"o":"m 160 890 l 288 890 l 288 757 l 160 757 l 160 890 m 456 890 l 585 890 l 585 757 l 456 757 l 456 890 m 388 -21 q 132 72 218 -21 q 46 332 46 165 q 131 594 46 500 q 388 688 217 688 q 644 594 558 688 q 729 332 729 500 q 643 72 729 165 q 388 -21 557 -21 m 388 83 q 536 144 488 83 q 585 332 585 206 q 536 522 585 460 q 388 583 488 583 q 240 522 288 583 q 192 332 192 460 q 240 144 192 206 q 388 83 288 83 z "},"ọ":{"ha":775,"x_min":46,"x_max":729,"o":"m 388 -21 q 132 72 218 -21 q 46 332 46 165 q 131 594 46 500 q 388 688 217 688 q 644 594 558 688 q 729 332 729 500 q 643 72 729 165 q 388 -21 557 -21 m 388 83 q 536 144 488 83 q 585 332 585 206 q 536 522 585 460 q 388 583 488 583 q 240 522 288 583 q 192 332 192 460 q 240 144 192 206 q 388 83 288 83 m 324 -86 l 451 -86 l 451 -219 l 324 -219 l 324 -86 z "},"ò":{"ha":775,"x_min":46,"x_max":729,"o":"m 175 979 l 350 979 l 461 731 l 333 731 l 175 979 m 388 -21 q 132 72 218 -21 q 46 332 46 165 q 131 594 46 500 q 388 688 217 688 q 644 594 558 688 q 729 332 729 500 q 643 72 729 165 q 388 -21 557 -21 m 388 83 q 536 144 488 83 q 585 332 585 206 q 536 522 585 460 q 388 583 488 583 q 240 522 288 583 q 192 332 192 460 q 240 144 192 206 q 388 83 288 83 z "},"ỏ":{"ha":775,"x_min":46,"x_max":729,"o":"m 329 819 q 396 835 376 819 q 415 879 415 850 q 400 917 415 906 q 347 928 385 928 q 279 915 311 928 l 279 997 q 379 1013 319 1013 q 539 896 539 1013 q 449 785 539 810 l 449 729 l 329 729 l 329 819 m 388 -21 q 132 72 218 -21 q 46 332 46 165 q 131 594 46 500 q 388 688 217 688 q 644 594 558 688 q 729 332 729 500 q 643 72 729 165 q 388 -21 557 -21 m 388 83 q 536 144 488 83 q 585 332 585 206 q 536 522 585 460 q 388 583 488 583 q 240 522 288 583 q 192 332 192 460 q 240 144 192 206 q 388 83 288 83 z "},"ơ":{"ha":860,"x_min":46,"x_max":863,"o":"m 388 -21 q 132 72 218 -21 q 46 332 46 165 q 131 594 46 500 q 388 688 217 688 q 642 594 553 688 q 703 624 686 600 q 721 697 721 649 l 721 747 l 863 747 l 863 696 q 824 565 863 614 q 701 500 786 515 q 729 332 729 431 q 643 72 729 165 q 388 -21 557 -21 m 388 83 q 536 144 488 83 q 585 332 585 206 q 536 522 585 460 q 388 583 488 583 q 240 522 288 583 q 192 332 192 460 q 240 144 192 206 q 388 83 288 83 z "},"ớ":{"ha":860,"x_min":46,"x_max":863,"o":"m 426 979 l 600 979 l 442 731 l 315 731 l 426 979 m 388 -21 q 132 72 218 -21 q 46 332 46 165 q 131 594 46 500 q 388 688 217 688 q 642 594 553 688 q 703 624 686 600 q 721 697 721 649 l 721 747 l 863 747 l 863 696 q 824 565 863 614 q 701 500 786 515 q 729 332 729 431 q 643 72 729 165 q 388 -21 557 -21 m 388 83 q 536 144 488 83 q 585 332 585 206 q 536 522 585 460 q 388 583 488 583 q 240 522 288 583 q 192 332 192 460 q 240 144 192 206 q 388 83 288 83 z "},"ợ":{"ha":860,"x_min":46,"x_max":863,"o":"m 388 -21 q 132 72 218 -21 q 46 332 46 165 q 131 594 46 500 q 388 688 217 688 q 642 594 553 688 q 703 624 686 600 q 721 697 721 649 l 721 747 l 863 747 l 863 696 q 824 565 863 614 q 701 500 786 515 q 729 332 729 431 q 643 72 729 165 q 388 -21 557 -21 m 388 83 q 536 144 488 83 q 585 332 585 206 q 536 522 585 460 q 388 583 488 583 q 240 522 288 583 q 192 332 192 460 q 240 144 192 206 q 388 83 288 83 m 325 -86 l 453 -86 l 453 -219 l 325 -219 l 325 -86 z "},"ờ":{"ha":860,"x_min":46,"x_max":863,"o":"m 161 979 l 336 979 l 447 731 l 319 731 l 161 979 m 388 -21 q 132 72 218 -21 q 46 332 46 165 q 131 594 46 500 q 388 688 217 688 q 642 594 553 688 q 703 624 686 600 q 721 697 721 649 l 721 747 l 863 747 l 863 696 q 824 565 863 614 q 701 500 786 515 q 729 332 729 431 q 643 72 729 165 q 388 -21 557 -21 m 388 83 q 536 144 488 83 q 585 332 585 206 q 536 522 585 460 q 388 583 488 583 q 240 522 288 583 q 192 332 192 460 q 240 144 192 206 q 388 83 288 83 z "},"ở":{"ha":860,"x_min":46,"x_max":863,"o":"m 336 819 q 403 835 383 819 q 422 879 422 850 q 407 917 422 906 q 354 928 392 928 q 286 915 318 928 l 286 997 q 386 1013 326 1013 q 546 896 546 1013 q 456 785 546 810 l 456 729 l 336 729 l 336 819 m 388 -21 q 132 72 218 -21 q 46 332 46 165 q 131 594 46 500 q 388 688 217 688 q 642 594 553 688 q 703 624 686 600 q 721 697 721 649 l 721 747 l 863 747 l 863 696 q 824 565 863 614 q 701 500 786 515 q 729 332 729 431 q 643 72 729 165 q 388 -21 557 -21 m 388 83 q 536 144 488 83 q 585 332 585 206 q 536 522 585 460 q 388 583 488 583 q 240 522 288 583 q 192 332 192 460 q 240 144 192 206 q 388 83 288 83 z "},"ỡ":{"ha":860,"x_min":46,"x_max":863,"o":"m 110 731 q 147 874 110 828 q 261 921 183 921 q 328 910 297 921 q 393 878 358 899 q 442 853 424 861 q 482 846 461 846 q 528 863 514 846 q 543 921 543 879 l 651 921 q 615 776 651 821 q 503 731 579 731 q 438 742 467 731 q 374 772 408 753 q 324 796 344 788 q 281 804 303 804 q 233 788 249 804 q 218 731 218 771 l 110 731 m 388 -21 q 132 72 218 -21 q 46 332 46 165 q 131 594 46 500 q 388 688 217 688 q 642 594 553 688 q 703 624 686 600 q 721 697 721 649 l 721 747 l 863 747 l 863 696 q 824 565 863 614 q 701 500 786 515 q 729 332 729 431 q 643 72 729 165 q 388 -21 557 -21 m 388 83 q 536 144 488 83 q 585 332 585 206 q 536 522 585 460 q 388 583 488 583 q 240 522 288 583 q 192 332 192 460 q 240 144 192 206 q 388 83 288 83 z "},"ő":{"ha":775,"x_min":46,"x_max":729,"o":"m 260 990 l 438 990 l 271 729 l 139 729 l 260 990 m 536 990 l 715 990 l 547 729 l 417 729 l 536 990 m 388 -21 q 132 72 218 -21 q 46 332 46 165 q 131 594 46 500 q 388 688 217 688 q 644 594 558 688 q 729 332 729 500 q 643 72 729 165 q 388 -21 557 -21 m 388 83 q 536 144 488 83 q 585 332 585 206 q 536 522 585 460 q 388 583 488 583 q 240 522 288 583 q 192 332 192 460 q 240 144 192 206 q 388 83 288 83 z "},"ō":{"ha":775,"x_min":46,"x_max":729,"o":"m 189 854 l 590 854 l 590 758 l 189 758 l 189 854 m 388 -21 q 132 72 218 -21 q 46 332 46 165 q 131 594 46 500 q 388 688 217 688 q 644 594 558 688 q 729 332 729 500 q 643 72 729 165 q 388 -21 557 -21 m 388 83 q 536 144 488 83 q 585 332 585 206 q 536 522 585 460 q 388 583 488 583 q 240 522 288 583 q 192 332 192 460 q 240 144 192 206 q 388 83 288 83 z "},"ø":{"ha":775,"x_min":46,"x_max":729,"o":"m 233 4 q 93 124 140 40 q 46 332 46 208 q 131 594 46 500 q 388 688 217 688 q 478 679 422 688 l 501 743 l 576 743 l 546 660 q 683 539 638 622 q 729 332 729 456 q 643 72 729 165 q 388 -21 557 -21 q 301 -14 347 -21 l 281 -72 l 204 -72 l 233 4 m 442 578 q 388 583 408 583 q 240 522 288 583 q 192 332 192 460 q 274 118 192 175 l 442 578 m 388 83 q 536 144 488 83 q 585 332 585 206 q 504 544 585 485 l 338 88 q 388 83 361 83 z "},"ǿ":{"ha":775,"x_min":46,"x_max":729,"o":"m 417 974 l 592 974 l 433 725 l 307 725 l 417 974 m 233 4 q 93 124 140 40 q 46 332 46 208 q 131 594 46 500 q 388 688 217 688 q 478 679 422 688 l 501 743 l 576 743 l 546 660 q 683 539 638 622 q 729 332 729 456 q 643 72 729 165 q 388 -21 557 -21 q 301 -14 347 -21 l 281 -72 l 204 -72 l 233 4 m 442 578 q 388 583 408 583 q 240 522 288 583 q 192 332 192 460 q 274 118 192 175 l 442 578 m 388 83 q 536 144 488 83 q 585 332 585 206 q 504 544 585 485 l 338 88 q 388 83 361 83 z "},"õ":{"ha":775,"x_min":46,"x_max":729,"o":"m 101 731 q 138 874 101 828 q 253 921 175 921 q 319 910 289 921 q 385 878 350 899 q 434 853 415 861 q 474 846 453 846 q 520 863 506 846 q 535 921 535 879 l 643 921 q 607 776 643 821 q 494 731 571 731 q 429 742 458 731 q 365 772 400 753 q 315 796 336 788 q 272 804 294 804 q 225 788 240 804 q 210 731 210 771 l 101 731 m 388 -21 q 132 72 218 -21 q 46 332 46 165 q 131 594 46 500 q 388 688 217 688 q 644 594 558 688 q 729 332 729 500 q 643 72 729 165 q 388 -21 557 -21 m 388 83 q 536 144 488 83 q 585 332 585 206 q 536 522 585 460 q 388 583 488 583 q 240 522 288 583 q 192 332 192 460 q 240 144 192 206 q 388 83 288 83 z "},"œ":{"ha":1286,"x_min":46,"x_max":1240,"o":"m 388 -21 q 132 72 218 -21 q 46 332 46 165 q 131 594 46 500 q 388 688 217 688 q 657 554 574 688 q 922 688 742 688 q 1160 600 1079 688 q 1240 358 1240 513 l 1240 294 l 731 294 q 788 131 731 186 q 933 75 844 75 q 1022 83 986 75 q 1088 108 1058 90 l 1088 158 l 1217 158 l 1217 61 q 1091 -1 1158 19 q 932 -21 1024 -21 q 773 13 842 -21 q 660 113 704 47 q 388 -21 568 -21 m 1097 385 q 1053 539 1097 490 q 921 588 1010 588 q 780 535 829 588 q 731 385 731 483 l 1097 385 m 388 83 q 536 144 488 83 q 585 332 585 204 q 535 522 585 460 q 388 583 486 583 q 240 522 288 583 q 192 332 192 460 q 240 144 192 206 q 388 83 288 83 z "},"p":{"ha":817,"x_min":32,"x_max":771,"o":"m 32 -189 l 56 -189 q 99 -174 88 -189 q 111 -126 111 -160 l 111 514 q 99 555 111 542 q 61 568 88 568 l 32 568 l 32 667 l 224 667 l 238 567 q 475 688 321 688 q 692 597 614 688 q 771 340 771 507 q 694 74 771 168 q 476 -21 618 -21 q 351 1 401 -21 q 254 78 300 24 l 254 -126 q 266 -174 254 -160 q 310 -189 278 -189 l 333 -189 l 333 -289 l 32 -289 l 32 -189 m 440 88 q 583 147 539 88 q 626 339 626 206 q 585 524 626 468 q 446 581 543 581 q 308 523 358 581 q 258 369 258 465 l 258 292 q 308 140 258 193 q 440 88 358 88 z "},"þ":{"ha":831,"x_min":46,"x_max":785,"o":"m 46 -189 l 69 -189 q 113 -174 101 -189 q 125 -126 125 -160 l 125 764 q 75 818 125 818 l 46 818 l 46 919 l 258 919 l 258 576 q 354 660 299 633 q 489 688 410 688 q 706 597 628 688 q 785 340 785 507 q 708 74 785 168 q 490 -21 632 -21 q 365 1 415 -21 q 268 78 314 24 l 268 -126 q 280 -174 268 -160 q 324 -189 292 -189 l 347 -189 l 347 -289 l 46 -289 l 46 -189 m 454 88 q 597 147 553 88 q 640 339 640 206 q 599 524 640 468 q 460 581 557 581 q 322 523 372 581 q 272 369 272 465 l 272 292 q 322 140 272 193 q 454 88 372 88 z "},"q":{"ha":817,"x_min":46,"x_max":785,"o":"m 563 78 q 466 1 517 24 q 340 -21 415 -21 q 122 67 197 -21 q 46 324 46 154 q 83 517 46 435 q 188 643 119 599 q 347 688 256 688 q 482 658 428 688 q 579 567 536 629 l 593 667 l 785 667 l 785 568 l 756 568 q 717 555 729 568 q 706 514 706 542 l 706 -126 q 717 -174 706 -160 q 761 -189 729 -189 l 785 -189 l 785 -289 l 563 -289 l 563 78 m 376 88 q 508 140 458 88 q 558 292 558 193 l 558 369 q 508 523 558 465 q 371 581 458 581 q 233 517 276 581 q 190 322 190 453 q 209 183 190 233 q 268 110 228 132 q 376 88 308 88 z "},"r":{"ha":536,"x_min":46,"x_max":504,"o":"m 46 103 l 81 103 q 120 115 108 103 q 132 154 132 126 l 132 513 q 121 551 132 539 q 83 564 110 564 l 54 564 l 54 667 l 246 667 l 265 590 q 337 650 293 633 q 440 667 381 667 l 504 667 l 504 564 l 426 564 q 314 528 347 564 q 281 419 281 493 l 281 154 q 292 115 281 126 q 329 103 303 103 l 364 103 l 364 0 l 46 0 l 46 103 z "},"ŕ":{"ha":536,"x_min":46,"x_max":504,"o":"m 272 979 l 446 979 l 288 731 l 161 731 l 272 979 m 46 103 l 81 103 q 120 115 108 103 q 132 154 132 126 l 132 513 q 121 551 132 539 q 83 564 110 564 l 54 564 l 54 667 l 246 667 l 265 590 q 337 650 293 633 q 440 667 381 667 l 504 667 l 504 564 l 426 564 q 314 528 347 564 q 281 419 281 493 l 281 154 q 292 115 281 126 q 329 103 303 103 l 364 103 l 364 0 l 46 0 l 46 103 z "},"ř":{"ha":536,"x_min":40,"x_max":531,"o":"m 40 990 l 178 990 l 285 815 l 392 990 l 531 990 l 357 729 l 214 729 l 40 990 m 46 103 l 81 103 q 120 115 108 103 q 132 154 132 126 l 132 513 q 121 551 132 539 q 83 564 110 564 l 54 564 l 54 667 l 246 667 l 265 590 q 337 650 293 633 q 440 667 381 667 l 504 667 l 504 564 l 426 564 q 314 528 347 564 q 281 419 281 493 l 281 154 q 292 115 281 126 q 329 103 303 103 l 364 103 l 364 0 l 46 0 l 46 103 z "},"ŗ":{"ha":536,"x_min":46,"x_max":504,"o":"m 46 103 l 81 103 q 120 115 108 103 q 132 154 132 126 l 132 513 q 121 551 132 539 q 83 564 110 564 l 54 564 l 54 667 l 246 667 l 265 590 q 337 650 293 633 q 440 667 381 667 l 504 667 l 504 564 l 426 564 q 314 528 347 564 q 281 419 281 493 l 281 154 q 292 115 281 126 q 329 103 303 103 l 364 103 l 364 0 l 46 0 l 46 103 m 176 -68 l 338 -68 l 251 -351 l 133 -351 l 176 -68 z "},"ṛ":{"ha":536,"x_min":46,"x_max":504,"o":"m 46 103 l 81 103 q 120 115 108 103 q 132 154 132 126 l 132 513 q 121 551 132 539 q 83 564 110 564 l 54 564 l 54 667 l 246 667 l 265 590 q 337 650 293 633 q 440 667 381 667 l 504 667 l 504 564 l 426 564 q 314 528 347 564 q 281 419 281 493 l 281 154 q 292 115 281 126 q 329 103 303 103 l 364 103 l 364 0 l 46 0 l 46 103 m 143 -86 l 271 -86 l 271 -219 l 143 -219 l 143 -86 z "},"ṝ":{"ha":536,"x_min":46,"x_max":504,"o":"m 49 854 l 450 854 l 450 758 l 49 758 l 49 854 m 46 103 l 81 103 q 120 115 108 103 q 132 154 132 126 l 132 513 q 121 551 132 539 q 83 564 110 564 l 54 564 l 54 667 l 246 667 l 265 590 q 337 650 293 633 q 440 667 381 667 l 504 667 l 504 564 l 426 564 q 314 528 347 564 q 281 419 281 493 l 281 154 q 292 115 281 126 q 329 103 303 103 l 364 103 l 364 0 l 46 0 l 46 103 m 131 -86 l 258 -86 l 258 -219 l 131 -219 l 131 -86 z "},"ṟ":{"ha":536,"x_min":18,"x_max":504,"o":"m 46 103 l 81 103 q 120 115 108 103 q 132 154 132 126 l 132 513 q 121 551 132 539 q 83 564 110 564 l 54 564 l 54 667 l 246 667 l 265 590 q 337 650 293 633 q 440 667 381 667 l 504 667 l 504 564 l 426 564 q 314 528 347 564 q 281 419 281 493 l 281 154 q 292 115 281 126 q 329 103 303 103 l 364 103 l 364 0 l 46 0 l 46 103 m 18 -87 l 419 -87 l 419 -183 l 18 -183 l 18 -87 z "},"s":{"ha":642,"x_min":46,"x_max":596,"o":"m 325 -21 q 46 60 157 -21 l 46 168 l 182 168 l 182 113 q 321 79 239 79 q 415 99 383 79 q 446 163 446 118 q 430 210 446 192 q 386 242 414 229 q 276 289 358 256 q 151 347 194 322 q 80 408 107 371 q 53 503 53 446 q 124 641 53 594 q 317 688 194 688 q 463 667 394 688 q 581 610 531 647 l 581 506 l 447 506 l 447 557 q 328 588 397 588 q 234 568 265 588 q 203 503 203 549 q 236 438 203 461 q 339 390 269 415 q 382 375 358 385 q 497 324 454 347 q 568 261 540 300 q 596 163 596 222 q 528 26 596 74 q 325 -21 461 -21 z "},"ś":{"ha":642,"x_min":46,"x_max":596,"o":"m 333 979 l 507 979 l 349 731 l 222 731 l 333 979 m 325 -21 q 46 60 157 -21 l 46 168 l 182 168 l 182 113 q 321 79 239 79 q 415 99 383 79 q 446 163 446 118 q 430 210 446 192 q 386 242 414 229 q 276 289 358 256 q 151 347 194 322 q 80 408 107 371 q 53 503 53 446 q 124 641 53 594 q 317 688 194 688 q 463 667 394 688 q 581 610 531 647 l 581 506 l 447 506 l 447 557 q 328 588 397 588 q 234 568 265 588 q 203 503 203 549 q 236 438 203 461 q 339 390 269 415 q 382 375 358 385 q 497 324 454 347 q 568 261 540 300 q 596 163 596 222 q 528 26 596 74 q 325 -21 461 -21 z "},"š":{"ha":642,"x_min":46,"x_max":596,"o":"m 57 990 l 194 990 l 301 815 l 408 990 l 547 990 l 374 729 l 231 729 l 57 990 m 325 -21 q 46 60 157 -21 l 46 168 l 182 168 l 182 113 q 321 79 239 79 q 415 99 383 79 q 446 163 446 118 q 430 210 446 192 q 386 242 414 229 q 276 289 358 256 q 151 347 194 322 q 80 408 107 371 q 53 503 53 446 q 124 641 53 594 q 317 688 194 688 q 463 667 394 688 q 581 610 531 647 l 581 506 l 447 506 l 447 557 q 328 588 397 588 q 234 568 265 588 q 203 503 203 549 q 236 438 203 461 q 339 390 269 415 q 382 375 358 385 q 497 324 454 347 q 568 261 540 300 q 596 163 596 222 q 528 26 596 74 q 325 -21 461 -21 z "},"ş":{"ha":642,"x_min":46,"x_max":596,"o":"m 596 163 q 545 39 596 85 q 393 -18 494 -7 l 386 -64 q 472 -103 446 -74 q 497 -185 497 -133 q 450 -283 497 -249 q 308 -317 403 -317 q 204 -299 253 -317 l 204 -212 q 294 -231 247 -231 q 374 -181 374 -231 q 348 -129 374 -144 q 247 -114 322 -114 l 261 -18 q 46 60 136 -6 l 46 168 l 182 168 l 182 113 q 321 79 239 79 q 415 99 383 79 q 446 163 446 118 q 430 210 446 192 q 386 242 414 229 q 276 289 358 256 q 151 347 194 322 q 80 408 107 371 q 53 503 53 446 q 124 641 53 594 q 317 688 194 688 q 463 667 394 688 q 581 610 531 647 l 581 506 l 447 506 l 447 557 q 328 588 397 588 q 234 568 265 588 q 203 503 203 549 q 236 438 203 461 q 339 390 269 415 q 382 375 358 385 q 497 324 454 347 q 568 261 540 300 q 596 163 596 222 z "},"ŝ":{"ha":642,"x_min":46,"x_max":596,"o":"m 235 990 l 378 990 l 551 729 l 413 729 l 306 904 l 199 729 l 61 729 l 235 990 m 325 -21 q 46 60 157 -21 l 46 168 l 182 168 l 182 113 q 321 79 239 79 q 415 99 383 79 q 446 163 446 118 q 430 210 446 192 q 386 242 414 229 q 276 289 358 256 q 151 347 194 322 q 80 408 107 371 q 53 503 53 446 q 124 641 53 594 q 317 688 194 688 q 463 667 394 688 q 581 610 531 647 l 581 506 l 447 506 l 447 557 q 328 588 397 588 q 234 568 265 588 q 203 503 203 549 q 236 438 203 461 q 339 390 269 415 q 382 375 358 385 q 497 324 454 347 q 568 261 540 300 q 596 163 596 222 q 528 26 596 74 q 325 -21 461 -21 z "},"ș":{"ha":642,"x_min":46,"x_max":596,"o":"m 325 -21 q 46 60 157 -21 l 46 168 l 182 168 l 182 113 q 321 79 239 79 q 415 99 383 79 q 446 163 446 118 q 430 210 446 192 q 386 242 414 229 q 276 289 358 256 q 151 347 194 322 q 80 408 107 371 q 53 503 53 446 q 124 641 53 594 q 317 688 194 688 q 463 667 394 688 q 581 610 531 647 l 581 506 l 447 506 l 447 557 q 328 588 397 588 q 234 568 265 588 q 203 503 203 549 q 236 438 203 461 q 339 390 269 415 q 382 375 358 385 q 497 324 454 347 q 568 261 540 300 q 596 163 596 222 q 528 26 596 74 q 325 -21 461 -21 m 240 -68 l 425 -68 l 293 -339 l 156 -339 l 240 -68 z "},"ṡ":{"ha":642,"x_min":46,"x_max":596,"o":"m 250 890 l 378 890 l 378 757 l 250 757 l 250 890 m 325 -21 q 46 60 157 -21 l 46 168 l 182 168 l 182 113 q 321 79 239 79 q 415 99 383 79 q 446 163 446 118 q 430 210 446 192 q 386 242 414 229 q 276 289 358 256 q 151 347 194 322 q 80 408 107 371 q 53 503 53 446 q 124 641 53 594 q 317 688 194 688 q 463 667 394 688 q 581 610 531 647 l 581 506 l 447 506 l 447 557 q 328 588 397 588 q 234 568 265 588 q 203 503 203 549 q 236 438 203 461 q 339 390 269 415 q 382 375 358 385 q 497 324 454 347 q 568 261 540 300 q 596 163 596 222 q 528 26 596 74 q 325 -21 461 -21 z "},"ṣ":{"ha":642,"x_min":46,"x_max":596,"o":"m 325 -21 q 46 60 157 -21 l 46 168 l 182 168 l 182 113 q 321 79 239 79 q 415 99 383 79 q 446 163 446 118 q 430 210 446 192 q 386 242 414 229 q 276 289 358 256 q 151 347 194 322 q 80 408 107 371 q 53 503 53 446 q 124 641 53 594 q 317 688 194 688 q 463 667 394 688 q 581 610 531 647 l 581 506 l 447 506 l 447 557 q 328 588 397 588 q 234 568 265 588 q 203 503 203 549 q 236 438 203 461 q 339 390 269 415 q 382 375 358 385 q 497 324 454 347 q 568 261 540 300 q 596 163 596 222 q 528 26 596 74 q 325 -21 461 -21 m 247 -86 l 375 -86 l 375 -219 l 247 -219 l 247 -86 z "},"ß":{"ha":885,"x_min":46,"x_max":839,"o":"m 560 -21 q 361 28 440 -21 l 410 113 q 478 87 444 94 q 551 79 511 79 q 657 124 619 79 q 694 261 694 168 q 654 395 694 351 q 519 439 614 439 l 439 439 l 439 536 l 510 536 q 674 717 674 536 q 478 886 674 886 q 285 703 285 886 l 285 0 l 46 0 l 46 101 l 86 101 q 126 114 114 101 q 138 154 138 126 l 138 693 q 222 909 138 829 q 475 989 306 989 q 731 915 644 989 q 818 717 818 840 q 787 578 818 642 q 694 490 756 515 q 806 404 772 463 q 839 260 839 346 q 768 55 839 131 q 560 -21 697 -21 z "},"ə":{"ha":749,"x_min":46,"x_max":703,"o":"m 363 -21 q 126 67 206 -21 q 46 307 46 156 l 46 372 l 554 372 q 500 539 554 486 q 351 592 446 592 q 265 583 300 592 q 199 558 229 575 l 199 507 l 69 507 l 69 604 q 194 667 128 647 q 354 688 261 688 q 607 599 511 688 q 703 342 703 511 q 615 69 703 160 q 363 -21 526 -21 m 365 78 q 506 132 458 78 q 554 281 554 186 l 188 281 q 365 78 188 78 z "},"t":{"ha":604,"x_min":32,"x_max":600,"o":"m 372 -21 q 199 36 257 -21 q 140 203 140 93 l 140 567 l 32 567 l 32 667 l 140 667 l 140 817 l 288 864 l 288 667 l 488 667 l 488 567 l 288 567 l 288 193 q 310 106 288 132 q 381 79 333 79 q 474 106 442 79 l 474 165 l 600 165 l 600 60 q 500 0 554 21 q 372 -21 446 -21 z "},"ŧ":{"ha":604,"x_min":32,"x_max":600,"o":"m 600 165 l 600 60 q 500 0 554 21 q 372 -21 446 -21 q 199 36 257 -21 q 140 203 140 93 l 140 313 l 44 313 l 44 408 l 140 408 l 140 567 l 32 567 l 32 667 l 140 667 l 140 817 l 288 864 l 288 667 l 489 667 l 489 567 l 288 567 l 288 408 l 519 408 l 519 313 l 288 313 l 288 193 q 310 106 288 132 q 381 79 333 79 q 474 106 442 79 l 474 165 l 600 165 z "},"ť":{"ha":604,"x_min":32,"x_max":613,"o":"m 451 1053 l 613 1053 l 526 769 l 408 769 l 451 1053 m 372 -21 q 199 36 257 -21 q 140 203 140 93 l 140 567 l 32 567 l 32 667 l 140 667 l 140 817 l 288 864 l 288 667 l 488 667 l 488 567 l 288 567 l 288 193 q 310 106 288 132 q 381 79 333 79 q 474 106 442 79 l 474 165 l 600 165 l 600 60 q 500 0 554 21 q 372 -21 446 -21 z "},"ţ":{"ha":604,"x_min":32,"x_max":600,"o":"m 600 60 q 424 -18 524 -6 l 417 -64 q 503 -103 476 -74 q 529 -185 529 -133 q 482 -283 529 -249 q 340 -317 435 -317 q 235 -299 283 -317 l 235 -212 q 326 -231 278 -231 q 406 -181 406 -231 q 380 -129 406 -144 q 278 -114 354 -114 l 293 -12 q 179 60 218 6 q 140 203 140 115 l 140 567 l 32 567 l 32 667 l 140 667 l 140 817 l 288 864 l 288 667 l 488 667 l 488 567 l 288 567 l 288 193 q 310 106 288 132 q 381 79 333 79 q 474 106 442 79 l 474 165 l 600 165 l 600 60 z "},"ț":{"ha":604,"x_min":32,"x_max":600,"o":"m 372 -21 q 199 36 257 -21 q 140 203 140 93 l 140 567 l 32 567 l 32 667 l 140 667 l 140 817 l 288 864 l 288 667 l 488 667 l 488 567 l 288 567 l 288 193 q 310 106 288 132 q 381 79 333 79 q 474 106 442 79 l 474 165 l 600 165 l 600 60 q 500 0 554 21 q 372 -21 446 -21 m 300 -68 l 461 -68 l 375 -351 l 257 -351 l 300 -68 z "},"ẗ":{"ha":611,"x_min":32,"x_max":607,"o":"m 32 1040 l 160 1040 l 160 907 l 32 907 l 32 1040 m 328 1040 l 457 1040 l 457 907 l 328 907 l 328 1040 m 379 -21 q 206 36 264 -21 q 147 203 147 93 l 147 567 l 39 567 l 39 667 l 147 667 l 147 817 l 294 864 l 294 667 l 494 667 l 494 567 l 294 567 l 294 193 q 317 106 294 132 q 388 79 340 79 q 481 106 449 79 l 481 165 l 607 165 l 607 60 q 507 0 561 21 q 379 -21 453 -21 z "},"ṭ":{"ha":604,"x_min":32,"x_max":600,"o":"m 372 -21 q 199 36 257 -21 q 140 203 140 93 l 140 567 l 32 567 l 32 667 l 140 667 l 140 817 l 288 864 l 288 667 l 488 667 l 488 567 l 288 567 l 288 193 q 310 106 288 132 q 381 79 333 79 q 474 106 442 79 l 474 165 l 600 165 l 600 60 q 500 0 554 21 q 372 -21 446 -21 m 286 -86 l 414 -86 l 414 -219 l 286 -219 l 286 -86 z "},"ṯ":{"ha":604,"x_min":32,"x_max":600,"o":"m 372 -21 q 199 36 257 -21 q 140 203 140 93 l 140 567 l 32 567 l 32 667 l 140 667 l 140 817 l 288 864 l 288 667 l 488 667 l 488 567 l 288 567 l 288 193 q 310 106 288 132 q 381 79 333 79 q 474 106 442 79 l 474 165 l 600 165 l 600 60 q 500 0 554 21 q 372 -21 446 -21 m 154 -87 l 556 -87 l 556 -183 l 154 -183 l 154 -87 z "},"u":{"ha":817,"x_min":32,"x_max":785,"o":"m 353 -21 q 181 39 239 -21 q 122 210 122 99 l 122 513 q 110 551 122 539 q 72 564 99 564 l 32 564 l 32 667 l 271 667 l 271 211 q 401 76 271 76 q 515 118 472 76 q 558 238 558 160 l 558 513 q 548 551 558 539 q 513 564 538 564 l 474 564 l 474 667 l 706 667 l 706 154 q 718 116 706 128 q 757 104 731 104 l 785 104 l 785 0 l 608 0 l 600 90 q 497 6 556 32 q 353 -21 438 -21 z "},"ú":{"ha":817,"x_min":32,"x_max":785,"o":"m 408 979 l 582 979 l 424 731 l 297 731 l 408 979 m 353 -21 q 181 39 239 -21 q 122 210 122 99 l 122 513 q 110 551 122 539 q 72 564 99 564 l 32 564 l 32 667 l 271 667 l 271 211 q 401 76 271 76 q 515 118 472 76 q 558 238 558 160 l 558 513 q 548 551 558 539 q 513 564 538 564 l 474 564 l 474 667 l 706 667 l 706 154 q 718 116 706 128 q 757 104 731 104 l 785 104 l 785 0 l 608 0 l 600 90 q 497 6 556 32 q 353 -21 438 -21 z "},"ŭ":{"ha":817,"x_min":32,"x_max":785,"o":"m 379 742 q 218 796 278 742 q 158 940 158 850 l 279 940 q 306 863 279 890 q 379 836 332 836 q 453 863 428 836 q 479 940 479 890 l 600 940 q 540 796 600 850 q 379 742 481 742 m 353 -21 q 181 39 239 -21 q 122 210 122 99 l 122 513 q 110 551 122 539 q 72 564 99 564 l 32 564 l 32 667 l 271 667 l 271 211 q 401 76 271 76 q 515 118 472 76 q 558 238 558 160 l 558 513 q 548 551 558 539 q 513 564 538 564 l 474 564 l 474 667 l 706 667 l 706 154 q 718 116 706 128 q 757 104 731 104 l 785 104 l 785 0 l 608 0 l 600 90 q 497 6 556 32 q 353 -21 438 -21 z "}}}
